{
DisplayStrings = (

glyphs = (
{
color = 4;
glyphname = knA;
lastChange = "2015-11-08 17:38:09 +0000";
layers = (
{
associatedMasterId = "59118767-2CA9-48AA-9373-694D24C960D8";
layerId = "C193BEEF-FF23-4743-89F4-46E5581BA577";
name = "Regular Aug 16 15, 01:56";
paths = (
{
closed = 1;
nodes = (
"459 489 OFFCURVE",
"319 329 OFFCURVE",
"319 247 CURVE",
"319 168 OFFCURVE",
"408 128 OFFCURVE",
"462 164 CURVE SMOOTH",
"434 161 LINE SMOOTH",
"401 138 OFFCURVE",
"366 118 OFFCURVE",
"331 98 CURVE SMOOTH",
"227 116 OFFCURVE",
"168 171 OFFCURVE",
"168 246 CURVE",
"168 326 OFFCURVE",
"236 331 OFFCURVE",
"260 331 CURVE",
"294 331 OFFCURVE",
"353 409 OFFCURVE",
"353 446 CURVE",
"353 453 OFFCURVE",
"348 459 OFFCURVE",
"332 459 CURVE",
"234 459 OFFCURVE",
"112 336 OFFCURVE",
"112 195 CURVE",
"112 128 OFFCURVE",
"140 65 OFFCURVE",
"200 27 CURVE SMOOTH",
"134 -7 OFFCURVE",
"74 -36 OFFCURVE",
"30 -58 CURVE",
"20 -63 OFFCURVE",
"26 -82 OFFCURVE",
"39 -103 CURVE",
"44 -111 OFFCURVE",
"56 -110 OFFCURVE",
"61 -107 CURVE",
"118 -72 OFFCURVE",
"183 -35 OFFCURVE",
"248 3 CURVE SMOOTH",
"279 -7 OFFCURVE",
"314 -13 OFFCURVE",
"355 -13 CURVE",
"597 -13 OFFCURVE",
"763 190 OFFCURVE",
"763 327 CURVE",
"763 423 OFFCURVE",
"681 489 OFFCURVE",
"589 489 CURVE"
);
},
{
closed = 1;
nodes = (
"392 92 LINE SMOOTH",
"472 145 OFFCURVE",
"539 198 OFFCURVE",
"574 247 CURVE SMOOTH",
"592 269 OFFCURVE",
"565 287 OFFCURVE",
"544 272 CURVE SMOOTH",
"531 264 OFFCURVE",
"506 241 OFFCURVE",
"468 241 CURVE",
"427 241 OFFCURVE",
"405 266 OFFCURVE",
"405 300 CURVE",
"405 354 OFFCURVE",
"458 383 OFFCURVE",
"520 383 CURVE",
"584 383 OFFCURVE",
"674 353 OFFCURVE",
"674 259 CURVE",
"674 150 OFFCURVE",
"555 92 OFFCURVE",
"408 92 CURVE"
);
}
);
width = 788;
},
{
associatedMasterId = "59118767-2CA9-48AA-9373-694D24C960D8";
guideLines = (
{
angle = 226.033;
position = "{531, 233}";
}
);
layerId = "A6633D15-ADC2-40AC-9516-3BAEC0508A3D";
name = "Regular Aug 25 15, 15:28";
paths = (
{
closed = 1;
nodes = (
"230 10 LINE",
"265 -4 OFFCURVE",
"306 -13 OFFCURVE",
"355 -13 CURVE SMOOTH",
"597 -13 OFFCURVE",
"763 190 OFFCURVE",
"763 327 CURVE SMOOTH",
"763 423 OFFCURVE",
"681 489 OFFCURVE",
"589 489 CURVE SMOOTH",
"459 489 OFFCURVE",
"319 329 OFFCURVE",
"319 247 CURVE SMOOTH",
"319 168 OFFCURVE",
"408 128 OFFCURVE",
"462 164 CURVE",
"434 161 LINE",
"230 109 OFFCURVE",
"111 2 OFFCURVE",
"40 -58 CURVE SMOOTH",
"31 -66 OFFCURVE",
"36 -82 OFFCURVE",
"49 -103 CURVE SMOOTH",
"54 -111 OFFCURVE",
"65 -112 OFFCURVE",
"71 -107 CURVE SMOOTH",
"151 -33 OFFCURVE",
"486 124 OFFCURVE",
"574 247 CURVE",
"592 269 OFFCURVE",
"565 287 OFFCURVE",
"544 272 CURVE",
"531 264 OFFCURVE",
"506 241 OFFCURVE",
"468 241 CURVE SMOOTH",
"427 241 OFFCURVE",
"405 266 OFFCURVE",
"405 300 CURVE SMOOTH",
"405 354 OFFCURVE",
"458 383 OFFCURVE",
"520 383 CURVE SMOOTH",
"584 383 OFFCURVE",
"674 353 OFFCURVE",
"674 259 CURVE SMOOTH",
"674 150 OFFCURVE",
"555 92 OFFCURVE",
"408 92 CURVE SMOOTH",
"370 92 LINE",
"360 94 LINE",
"238 106 OFFCURVE",
"168 164 OFFCURVE",
"168 246 CURVE SMOOTH",
"168 326 OFFCURVE",
"236 331 OFFCURVE",
"260 331 CURVE SMOOTH",
"294 331 OFFCURVE",
"353 409 OFFCURVE",
"353 446 CURVE SMOOTH",
"353 453 OFFCURVE",
"348 459 OFFCURVE",
"332 459 CURVE SMOOTH",
"234 459 OFFCURVE",
"112 336 OFFCURVE",
"112 195 CURVE SMOOTH",
"112 121 OFFCURVE",
"147 51 OFFCURVE",
"221 15 CURVE"
);
}
);
width = 788;
},
{
associatedMasterId = "59118767-2CA9-48AA-9373-694D24C960D8";
background = {
components = (
{
name = "CC-heartbum-Kannada";
transform = "{1, 0, 0, 1, 65, 0}";
}
);
};
layerId = "CC911B7E-E196-4FD6-B7DD-E87A9361BF13";
name = "Regular Aug 26 15, 17:03";
paths = (
{
closed = 1;
nodes = (
"353 83 LINE",
"436 136 OFFCURVE",
"542 215 OFFCURVE",
"579 267 CURVE",
"597 289 OFFCURVE",
"570 307 OFFCURVE",
"549 292 CURVE",
"536 284 OFFCURVE",
"515 257 OFFCURVE",
"477 257 CURVE SMOOTH",
"430 257 OFFCURVE",
"409 288 OFFCURVE",
"409 325 CURVE SMOOTH",
"409 381 OFFCURVE",
"426 430 OFFCURVE",
"505 430 CURVE SMOOTH",
"575 430 OFFCURVE",
"649 375 OFFCURVE",
"649 259 CURVE SMOOTH",
"649 140 OFFCURVE",
"530 92 OFFCURVE",
"383 92 CURVE SMOOTH",
"254 92 OFFCURVE",
"160 133 OFFCURVE",
"160 201 CURVE SMOOTH",
"160 219 OFFCURVE",
"149 238 OFFCURVE",
"168 257 CURVE SMOOTH",
"187 278 OFFCURVE",
"199 271 OFFCURVE",
"215 271 CURVE SMOOTH",
"249 271 OFFCURVE",
"308 349 OFFCURVE",
"308 386 CURVE SMOOTH",
"308 393 OFFCURVE",
"303 399 OFFCURVE",
"287 399 CURVE SMOOTH",
"227 399 OFFCURVE",
"182 361 OFFCURVE",
"140 298 CURVE SMOOTH",
"108 250 OFFCURVE",
"113 204 OFFCURVE",
"113 163 CURVE SMOOTH",
"113 53 OFFCURVE",
"190 -13 OFFCURVE",
"355 -13 CURVE SMOOTH",
"563 -13 OFFCURVE",
"738 141 OFFCURVE",
"738 327 CURVE SMOOTH",
"738 462 OFFCURVE",
"653 523 OFFCURVE",
"557 523 CURVE SMOOTH",
"427 523 OFFCURVE",
"332 401 OFFCURVE",
"332 304 CURVE SMOOTH",
"332 225 OFFCURVE",
"361 182 OFFCURVE",
"404 175 CURVE",
"366 147 OFFCURVE",
"314 110 OFFCURVE",
"277 93 CURVE"
);
},
{
closed = 1;
nodes = (
"197 33 LINE",
"140 -2 OFFCURVE",
"103 -25 OFFCURVE",
"60 -54 CURVE",
"50 -60 OFFCURVE",
"56 -79 OFFCURVE",
"69 -100 CURVE SMOOTH",
"74 -108 OFFCURVE",
"86 -107 OFFCURVE",
"91 -104 CURVE",
"252 7 LINE"
);
}
);
width = 778;
},
{
background = {
paths = (
{
closed = 1;
nodes = (
"471 85 OFFCURVE",
"335 85 CURVE SMOOTH",
"214 85 OFFCURVE",
"103 129 OFFCURVE",
"103 232 CURVE SMOOTH",
"103 313 OFFCURVE",
"154 320 OFFCURVE",
"178 323 CURVE SMOOTH",
"220 328 OFFCURVE",
"268 414 OFFCURVE",
"268 444 CURVE SMOOTH",
"268 453 OFFCURVE",
"264 459 OFFCURVE",
"247 459 CURVE SMOOTH",
"167 459 OFFCURVE",
"27 325 OFFCURVE",
"27 183 CURVE SMOOTH",
"27 49 OFFCURVE",
"134 -12 OFFCURVE",
"265 -12 CURVE SMOOTH",
"463 -12 OFFCURVE",
"708 124 OFFCURVE",
"708 338 CURVE SMOOTH",
"708 452 OFFCURVE",
"623 522 OFFCURVE",
"522 522 CURVE SMOOTH",
"373 522 OFFCURVE",
"273 372 OFFCURVE",
"273 270 CURVE SMOOTH",
"273 224 OFFCURVE",
"294 184 OFFCURVE",
"342 173 CURVE",
"306 148 OFFCURVE",
"259 112 OFFCURVE",
"220 95 CURVE",
"285 77 LINE",
"375 136 OFFCURVE",
"449 188 OFFCURVE",
"495 236 CURVE SMOOTH",
"516 255 OFFCURVE",
"492 277 OFFCURVE",
"469 265 CURVE",
"458 260 OFFCURVE",
"451 249 OFFCURVE",
"422 249 CURVE SMOOTH",
"305 249 OFFCURVE",
"343 425 OFFCURVE",
"475 425 CURVE SMOOTH",
"553 425 OFFCURVE",
"611 365 OFFCURVE",
"611 286 CURVE SMOOTH",
"611 151 OFFCURVE"
);
},
{
closed = 1;
nodes = (
"194 61 LINE",
"103 2 OFFCURVE",
"86 -4 OFFCURVE",
"12 -54 CURVE SMOOTH",
"9 -56 OFFCURVE",
"8 -60 OFFCURVE",
"8 -65 CURVE SMOOTH",
"8 -77 OFFCURVE",
"15 -94 OFFCURVE",
"21 -100 CURVE SMOOTH",
"30 -110 OFFCURVE",
"40 -106 OFFCURVE",
"43 -104 CURVE SMOOTH",
"111 -57 OFFCURVE",
"168 -19 OFFCURVE",
"244 37 CURVE"
);
}
);
};
layerId = "59118767-2CA9-48AA-9373-694D24C960D8";
name = Regular;
paths = (
{
closed = 1;
nodes = (
"471 85 OFFCURVE",
"335 85 CURVE SMOOTH",
"214 85 OFFCURVE",
"103 129 OFFCURVE",
"103 232 CURVE SMOOTH",
"103 313 OFFCURVE",
"154 320 OFFCURVE",
"178 323 CURVE SMOOTH",
"220 328 OFFCURVE",
"268 414 OFFCURVE",
"268 444 CURVE SMOOTH",
"268 453 OFFCURVE",
"264 459 OFFCURVE",
"247 459 CURVE SMOOTH",
"167 459 OFFCURVE",
"27 325 OFFCURVE",
"27 183 CURVE SMOOTH",
"27 49 OFFCURVE",
"134 -12 OFFCURVE",
"265 -12 CURVE SMOOTH",
"463 -12 OFFCURVE",
"708 124 OFFCURVE",
"708 338 CURVE SMOOTH",
"708 452 OFFCURVE",
"623 522 OFFCURVE",
"522 522 CURVE SMOOTH",
"373 522 OFFCURVE",
"273 372 OFFCURVE",
"273 270 CURVE SMOOTH",
"273 224 OFFCURVE",
"294 184 OFFCURVE",
"342 173 CURVE",
"306 148 OFFCURVE",
"259 112 OFFCURVE",
"220 95 CURVE",
"285 77 LINE",
"375 136 OFFCURVE",
"447 188 OFFCURVE",
"495 236 CURVE SMOOTH",
"515 256 OFFCURVE",
"491 277 OFFCURVE",
"469 265 CURVE SMOOTH",
"458 259 OFFCURVE",
"451 249 OFFCURVE",
"422 249 CURVE SMOOTH",
"305 249 OFFCURVE",
"343 425 OFFCURVE",
"475 425 CURVE SMOOTH",
"553 425 OFFCURVE",
"611 365 OFFCURVE",
"611 286 CURVE SMOOTH",
"611 151 OFFCURVE"
);
},
{
closed = 1;
nodes = (
"194 61 LINE",
"103 2 OFFCURVE",
"86 -4 OFFCURVE",
"12 -54 CURVE SMOOTH",
"9 -56 OFFCURVE",
"8 -60 OFFCURVE",
"8 -65 CURVE SMOOTH",
"8 -77 OFFCURVE",
"15 -94 OFFCURVE",
"21 -100 CURVE SMOOTH",
"30 -110 OFFCURVE",
"40 -106 OFFCURVE",
"43 -104 CURVE SMOOTH",
"111 -57 OFFCURVE",
"168 -19 OFFCURVE",
"244 37 CURVE"
);
}
);
width = 732;
},
{
associatedMasterId = "59118767-2CA9-48AA-9373-694D24C960D8";
background = {
paths = (
{
closed = 1;
nodes = (
"217 61 LINE",
"133 7 OFFCURVE",
"88 -18 OFFCURVE",
"35 -54 CURVE SMOOTH",
"25 -60 OFFCURVE",
"31 -79 OFFCURVE",
"44 -100 CURVE SMOOTH",
"49 -108 OFFCURVE",
"61 -107 OFFCURVE",
"66 -104 CURVE SMOOTH",
"134 -57 OFFCURVE",
"191 -19 OFFCURVE",
"267 37 CURVE"
);
},
{
closed = 1;
nodes = (
"342 92 LINE",
"422 145 OFFCURVE",
"489 198 OFFCURVE",
"524 247 CURVE",
"542 269 OFFCURVE",
"515 287 OFFCURVE",
"494 272 CURVE",
"481 264 OFFCURVE",
"460 237 OFFCURVE",
"422 237 CURVE SMOOTH",
"381 237 OFFCURVE",
"355 266 OFFCURVE",
"355 300 CURVE SMOOTH",
"355 354 OFFCURVE",
"409 390 OFFCURVE",
"471 390 CURVE SMOOTH",
"535 390 OFFCURVE",
"624 353 OFFCURVE",
"624 259 CURVE SMOOTH",
"624 140 OFFCURVE",
"505 92 OFFCURVE",
"358 92 CURVE SMOOTH"
);
},
{
closed = 1;
nodes = (
"177 10 LINE",
"215 -4 OFFCURVE",
"249 -13 OFFCURVE",
"330 -13 CURVE SMOOTH",
"538 -13 OFFCURVE",
"713 141 OFFCURVE",
"713 327 CURVE SMOOTH",
"713 423 OFFCURVE",
"641 489 OFFCURVE",
"539 489 CURVE SMOOTH",
"409 489 OFFCURVE",
"269 329 OFFCURVE",
"269 247 CURVE SMOOTH",
"269 168 OFFCURVE",
"358 128 OFFCURVE",
"412 164 CURVE",
"380 176 LINE",
"339 148 OFFCURVE",
"281 101 OFFCURVE",
"235 87 CURVE",
"322 93 LINE",
"193 103 OFFCURVE",
"129 162 OFFCURVE",
"129 246 CURVE SMOOTH",
"129 314 OFFCURVE",
"186 331 OFFCURVE",
"210 331 CURVE SMOOTH",
"244 331 OFFCURVE",
"303 409 OFFCURVE",
"303 446 CURVE SMOOTH",
"303 453 OFFCURVE",
"298 459 OFFCURVE",
"282 459 CURVE SMOOTH",
"184 459 OFFCURVE",
"62 336 OFFCURVE",
"62 195 CURVE SMOOTH",
"62 118 OFFCURVE",
"99 46 OFFCURVE",
"179 12 CURVE",
"179 10 LINE"
);
}
);
};
layerId = "B59BCCB6-7C8D-498E-8339-C6C23FF1DF06";
name = "Regular Sep 13 15, 13:25";
paths = (
{
closed = 1;
nodes = (
"409 489 OFFCURVE",
"269 329 OFFCURVE",
"269 247 CURVE SMOOTH",
"269 168 OFFCURVE",
"358 128 OFFCURVE",
"412 164 CURVE",
"384 161 LINE",
"351 138 OFFCURVE",
"316 118 OFFCURVE",
"281 98 CURVE",
"177 116 OFFCURVE",
"118 171 OFFCURVE",
"118 246 CURVE SMOOTH",
"118 326 OFFCURVE",
"186 331 OFFCURVE",
"210 331 CURVE SMOOTH",
"244 331 OFFCURVE",
"303 409 OFFCURVE",
"303 446 CURVE SMOOTH",
"303 453 OFFCURVE",
"298 459 OFFCURVE",
"282 459 CURVE SMOOTH",
"184 459 OFFCURVE",
"62 336 OFFCURVE",
"62 195 CURVE SMOOTH",
"62 128 OFFCURVE",
"90 65 OFFCURVE",
"150 27 CURVE",
"84 -7 OFFCURVE",
"24 -36 OFFCURVE",
"-20 -58 CURVE SMOOTH",
"-30 -63 OFFCURVE",
"-24 -82 OFFCURVE",
"-11 -103 CURVE SMOOTH",
"-6 -111 OFFCURVE",
"6 -110 OFFCURVE",
"11 -107 CURVE SMOOTH",
"68 -72 OFFCURVE",
"133 -35 OFFCURVE",
"198 3 CURVE",
"229 -7 OFFCURVE",
"264 -13 OFFCURVE",
"305 -13 CURVE SMOOTH",
"547 -13 OFFCURVE",
"713 190 OFFCURVE",
"713 327 CURVE SMOOTH",
"713 423 OFFCURVE",
"631 489 OFFCURVE",
"539 489 CURVE SMOOTH"
);
},
{
closed = 1;
nodes = (
"342 92 LINE",
"422 145 OFFCURVE",
"489 198 OFFCURVE",
"524 247 CURVE",
"542 269 OFFCURVE",
"515 287 OFFCURVE",
"494 272 CURVE",
"481 264 OFFCURVE",
"456 241 OFFCURVE",
"418 241 CURVE SMOOTH",
"377 241 OFFCURVE",
"355 266 OFFCURVE",
"355 300 CURVE SMOOTH",
"355 354 OFFCURVE",
"408 383 OFFCURVE",
"470 383 CURVE SMOOTH",
"534 383 OFFCURVE",
"624 353 OFFCURVE",
"624 259 CURVE SMOOTH",
"624 150 OFFCURVE",
"505 92 OFFCURVE",
"358 92 CURVE SMOOTH"
);
}
);
width = 743;
},
{
associatedMasterId = "59118767-2CA9-48AA-9373-694D24C960D8";
layerId = "79C97094-35AA-43A4-9195-5C18A6A2883B";
name = "Regular Sep 14 15, 09:36";
paths = (
{
closed = 1;
nodes = (
"217 61 LINE",
"133 7 OFFCURVE",
"88 -18 OFFCURVE",
"35 -54 CURVE SMOOTH",
"25 -60 OFFCURVE",
"31 -79 OFFCURVE",
"44 -100 CURVE SMOOTH",
"49 -108 OFFCURVE",
"61 -107 OFFCURVE",
"66 -104 CURVE SMOOTH",
"134 -57 OFFCURVE",
"191 -19 OFFCURVE",
"267 37 CURVE"
);
},
{
closed = 1;
nodes = (
"588 428 OFFCURVE",
"650 367 OFFCURVE",
"650 281 CURVE SMOOTH",
"650 173 OFFCURVE",
"514 88 OFFCURVE",
"350 88 CURVE SMOOTH",
"333 88 OFFCURVE",
"315 88 OFFCURVE",
"297 90 CURVE",
"311 72 LINE",
"405 132 OFFCURVE",
"483 187 OFFCURVE",
"530 236 CURVE",
"551 255 OFFCURVE",
"527 277 OFFCURVE",
"504 265 CURVE",
"490 259 OFFCURVE",
"490 249 OFFCURVE",
"452 249 CURVE SMOOTH",
"343 249 OFFCURVE",
"378 428 OFFCURVE",
"510 428 CURVE SMOOTH"
);
},
{
closed = 1;
nodes = (
"177 10 LINE",
"215 -4 OFFCURVE",
"249 -13 OFFCURVE",
"330 -13 CURVE SMOOTH",
"503 -13 OFFCURVE",
"743 147 OFFCURVE",
"743 341 CURVE SMOOTH",
"743 449 OFFCURVE",
"663 522 OFFCURVE",
"549 522 CURVE SMOOTH",
"404 522 OFFCURVE",
"289 345 OFFCURVE",
"289 263 CURVE SMOOTH",
"289 184 OFFCURVE",
"378 144 OFFCURVE",
"432 180 CURVE",
"380 176 LINE",
"339 148 OFFCURVE",
"281 101 OFFCURVE",
"235 87 CURVE",
"322 93 LINE",
"193 103 OFFCURVE",
"135 162 OFFCURVE",
"135 246 CURVE SMOOTH",
"135 314 OFFCURVE",
"186 331 OFFCURVE",
"210 331 CURVE SMOOTH",
"244 331 OFFCURVE",
"303 409 OFFCURVE",
"303 446 CURVE SMOOTH",
"303 453 OFFCURVE",
"298 459 OFFCURVE",
"282 459 CURVE SMOOTH",
"199 459 OFFCURVE",
"62 314 OFFCURVE",
"62 195 CURVE SMOOTH",
"62 118 OFFCURVE",
"99 46 OFFCURVE",
"179 12 CURVE",
"179 10 LINE"
);
}
);
width = 743;
}
);
leftKerningGroup = knA;
rightKerningGroup = knA;
unicode = 0C85;
},
{
color = 4;
glyphname = knAA;
lastChange = "2015-11-09 12:18:58 +0000";
layers = (
{
layerId = "59118767-2CA9-48AA-9373-694D24C960D8";
name = Regular;
paths = (
{
closed = 1;
nodes = (
"522 271 LINE",
"607 327 OFFCURVE",
"647 399 OFFCURVE",
"647 447 CURVE SMOOTH",
"647 492 OFFCURVE",
"613 524 OFFCURVE",
"553 524 CURVE SMOOTH",
"454 524 OFFCURVE",
"368 439 OFFCURVE",
"368 355 CURVE SMOOTH",
"368 242 OFFCURVE",
"514 244 OFFCURVE",
"514 172 CURVE SMOOTH",
"514 118 OFFCURVE",
"434 84 OFFCURVE",
"341 84 CURVE SMOOTH",
"241 84 OFFCURVE",
"117 124 OFFCURVE",
"117 238 CURVE SMOOTH",
"117 311 OFFCURVE",
"166 320 OFFCURVE",
"192 324 CURVE SMOOTH",
"237 331 OFFCURVE",
"280 416 OFFCURVE",
"280 445 CURVE SMOOTH",
"280 453 OFFCURVE",
"276 459 OFFCURVE",
"259 459 CURVE SMOOTH",
"182 459 OFFCURVE",
"39 330 OFFCURVE",
"39 181 CURVE SMOOTH",
"39 45 OFFCURVE",
"157 -13 OFFCURVE",
"287 -13 CURVE SMOOTH",
"489 -13 OFFCURVE",
"602 126 OFFCURVE",
"602 206 CURVE SMOOTH",
"602 299 OFFCURVE",
"449 317 OFFCURVE",
"449 397 CURVE SMOOTH",
"449 431 OFFCURVE",
"476 455 OFFCURVE",
"506 455 CURVE SMOOTH",
"537 455 OFFCURVE",
"555 431 OFFCURVE",
"555 400 CURVE SMOOTH",
"555 371 OFFCURVE",
"539 336 OFFCURVE",
"501 310 CURVE"
);
},
{
closed = 1;
nodes = (
"167 37 LINE",
"285 115 OFFCURVE",
"404 193 OFFCURVE",
"522 271 CURVE",
"501 320 LINE",
"363 223 OFFCURVE",
"208 131 OFFCURVE",
"112 68 CURVE"
);
},
{
closed = 1;
nodes = (
"112 68 LINE",
"28 14 OFFCURVE",
"-16 -10 OFFCURVE",
"-70 -47 CURVE SMOOTH",
"-73 -49 OFFCURVE",
"-75 -53 OFFCURVE",
"-75 -57 CURVE SMOOTH",
"-75 -66 OFFCURVE",
"-60 -95 OFFCURVE",
"-56 -100 CURVE SMOOTH",
"-53 -104 OFFCURVE",
"-50 -106 OFFCURVE",
"-44 -106 CURVE SMOOTH",
"-39 -106 OFFCURVE",
"-36 -105 OFFCURVE",
"-34 -104 CURVE SMOOTH",
"34 -57 OFFCURVE",
"91 -19 OFFCURVE",
"167 37 CURVE"
);
}
);
width = 672;
}
);
leftKerningGroup = knAA;
rightKerningGroup = knAA;
unicode = 0C86;
},
{
color = 4;
glyphname = knI;
lastChange = "2015-12-11 04:10:50 +0000";
layers = (
{
components = (
{
disableAlignment = 1;
name = "CC-I-Telugu";
transform = "{1, 0, 0, 1, 22, 0}";
}
);
layerId = "59118767-2CA9-48AA-9373-694D24C960D8";
name = Regular;
paths = (
{
closed = 1;
nodes = (
"526 -13 OFFCURVE",
"550 -1 OFFCURVE",
"566 13 CURVE SMOOTH",
"586 31 OFFCURVE",
"595 52 OFFCURVE",
"595 78 CURVE SMOOTH",
"595 182 OFFCURVE",
"446 251 OFFCURVE",
"307 251 CURVE SMOOTH",
"148 251 OFFCURVE",
"42 161 OFFCURVE",
"42 79 CURVE SMOOTH",
"42 20 OFFCURVE",
"96 -11 OFFCURVE",
"169 -11 CURVE SMOOTH",
"260 -11 OFFCURVE",
"384 37 OFFCURVE",
"455 118 CURVE",
"409 156 LINE",
"358 110 OFFCURVE",
"268 78 OFFCURVE",
"207 78 CURVE SMOOTH",
"165 78 OFFCURVE",
"137 93 OFFCURVE",
"137 119 CURVE SMOOTH",
"137 157 OFFCURVE",
"194 188 OFFCURVE",
"264 188 CURVE SMOOTH",
"342 188 OFFCURVE",
"460 148 OFFCURVE",
"497 -2 CURVE SMOOTH",
"498 -7 OFFCURVE",
"500 -13 OFFCURVE",
"511 -13 CURVE SMOOTH"
);
}
);
width = 635;
}
);
leftKerningGroup = knI;
rightKerningGroup = knI;
unicode = 0C87;
},
{
color = 4;
glyphname = knII;
lastChange = "2015-12-11 04:10:56 +0000";
layers = (
{
components = (
{
name = knRA;
transform = "{1, 0, 0, 1, 30, 0}";
}
);
guideLines = (
{
position = "{2421, -110}";
},
{
angle = 226.033;
position = "{1792, 233}";
},
{
position = "{2997, 519}";
},
{
angle = 90;
position = "{847, 163}";
}
);
layerId = "59118767-2CA9-48AA-9373-694D24C960D8";
name = Regular;
paths = (
{
closed = 1;
nodes = (
"489 188 LINE",
"554 200 OFFCURVE",
"610 219 OFFCURVE",
"658 238 CURVE SMOOTH",
"784 288 OFFCURVE",
"845 361 OFFCURVE",
"845 432 CURVE SMOOTH",
"845 494 OFFCURVE",
"800 518 OFFCURVE",
"756 518 CURVE SMOOTH",
"644 518 OFFCURVE",
"562 360 OFFCURVE",
"562 217 CURVE SMOOTH",
"562 175 OFFCURVE",
"569 131 OFFCURVE",
"585 88 CURVE SMOOTH",
"631 -34 OFFCURVE",
"717 -63 OFFCURVE",
"753 -63 CURVE SMOOTH",
"792 -63 OFFCURVE",
"821 -30 OFFCURVE",
"821 5 CURVE SMOOTH",
"821 22 OFFCURVE",
"815 16 OFFCURVE",
"789 25 CURVE SMOOTH",
"748 39 OFFCURVE",
"703 75 OFFCURVE",
"672 139 CURVE SMOOTH",
"648 189 OFFCURVE",
"638 244 OFFCURVE",
"638 292 CURVE SMOOTH",
"638 355 OFFCURVE",
"656 428 OFFCURVE",
"708 428 CURVE SMOOTH",
"735 428 OFFCURVE",
"757 408 OFFCURVE",
"757 383 CURVE SMOOTH",
"757 362 OFFCURVE",
"741 328 OFFCURVE",
"669 299 CURVE SMOOTH",
"629 283 OFFCURVE",
"571 255 OFFCURVE",
"489 246 CURVE"
);
},
{
closed = 1;
nodes = (
"471 244 LINE",
"254 223 OFFCURVE",
"147 237 OFFCURVE",
"98 245 CURVE SMOOTH",
"66 252 OFFCURVE",
"51 251 OFFCURVE",
"31 222 CURVE SMOOTH",
"16 200 OFFCURVE",
"9 175 OFFCURVE",
"10 168 CURVE SMOOTH",
"10 160 OFFCURVE",
"17 161 OFFCURVE",
"31 161 CURVE SMOOTH",
"57 162 OFFCURVE",
"126 165 OFFCURVE",
"240 170 CURVE SMOOTH",
"362 176 OFFCURVE",
"440 182 OFFCURVE",
"463 186 CURVE"
);
}
);
width = 875;
},
{
associatedMasterId = "59118767-2CA9-48AA-9373-694D24C960D8";
components = (
{
name = knRA;
transform = "{1, 0, 0, 1, 132, 0}";
}
);
layerId = "ED52A00C-84E3-4CAF-AA81-2ADF2EB183B8";
name = "Regular Aug 25 15, 15:10";
paths = (
{
closed = 1;
nodes = (
"590 470 OFFCURVE",
"718 470 CURVE SMOOTH",
"748 470 OFFCURVE",
"773 437 OFFCURVE",
"754 410 CURVE SMOOTH",
"719 357 OFFCURVE",
"560 315 OFFCURVE",
"531 302 CURVE SMOOTH",
"371 235 OFFCURVE",
"164 169 OFFCURVE",
"30 102 CURVE",
"20 97 OFFCURVE",
"26 78 OFFCURVE",
"39 57 CURVE SMOOTH",
"44 49 OFFCURVE",
"56 50 OFFCURVE",
"61 53 CURVE SMOOTH",
"163 117 OFFCURVE",
"366 180 OFFCURVE",
"540 255 CURVE SMOOTH",
"645 299 OFFCURVE",
"739 321 OFFCURVE",
"796 364 CURVE SMOOTH",
"881 429 OFFCURVE",
"872 564 OFFCURVE",
"756 564 CURVE SMOOTH",
"550 564 OFFCURVE",
"558 209 OFFCURVE",
"704 10 CURVE SMOOTH",
"708 4 OFFCURVE",
"714 -4 OFFCURVE",
"725 2 CURVE",
"733 6 OFFCURVE",
"779 47 OFFCURVE",
"788 52 CURVE",
"796 57 OFFCURVE",
"805 65 OFFCURVE",
"793 79 CURVE SMOOTH",
"677 214 OFFCURVE"
);
}
);
width = 877;
},
{
associatedMasterId = "59118767-2CA9-48AA-9373-694D24C960D8";
components = (
{
name = knRA;
transform = "{1, 0, 0, 1, 132, 0}";
}
);
layerId = "202C4E35-4C5D-4637-8546-E278948801B0";
name = "Regular Aug 25 15, 15:20";
paths = (
{
closed = 1;
nodes = (
"632 338 LINE",
"587 321 OFFCURVE",
"545 308 OFFCURVE",
"531 302 CURVE SMOOTH",
"371 235 OFFCURVE",
"174 159 OFFCURVE",
"30 102 CURVE",
"20 97 OFFCURVE",
"26 72 OFFCURVE",
"39 51 CURVE SMOOTH",
"44 43 OFFCURVE",
"56 44 OFFCURVE",
"61 47 CURVE SMOOTH",
"173 101 OFFCURVE",
"366 174 OFFCURVE",
"540 249 CURVE SMOOTH",
"575 264 OFFCURVE",
"609 276 OFFCURVE",
"641 287 CURVE"
);
},
{
closed = 1;
nodes = (
"811 -12 CURVE SMOOTH",
"845 -12 OFFCURVE",
"889 21 OFFCURVE",
"889 47 CURVE SMOOTH",
"889 60 OFFCURVE",
"699 114 OFFCURVE",
"699 372 CURVE SMOOTH",
"699 460 OFFCURVE",
"749 499 OFFCURVE",
"787 499 CURVE SMOOTH",
"810 499 OFFCURVE",
"829 485 OFFCURVE",
"829 458 CURVE SMOOTH",
"829 400 OFFCURVE",
"663 347 OFFCURVE",
"575 319 CURVE",
"638 282 LINE",
"739 324 OFFCURVE",
"818 360 OFFCURVE",
"865 410 CURVE SMOOTH",
"1031 585 OFFCURVE",
"825 704 OFFCURVE",
"681 504 CURVE SMOOTH",
"640 447 OFFCURVE",
"613 364 OFFCURVE",
"613 281 CURVE SMOOTH",
"613 153 OFFCURVE",
"725 -12 OFFCURVE"
);
}
);
width = 877;
},
{
associatedMasterId = "59118767-2CA9-48AA-9373-694D24C960D8";
background = {
paths = (
{
closed = 1;
nodes = (
"459 489 OFFCURVE",
"319 329 OFFCURVE",
"319 247 CURVE SMOOTH",
"319 168 OFFCURVE",
"408 128 OFFCURVE",
"462 164 CURVE",
"434 161 LINE",
"401 138 OFFCURVE",
"366 118 OFFCURVE",
"331 98 CURVE",
"227 116 OFFCURVE",
"168 171 OFFCURVE",
"168 246 CURVE SMOOTH",
"168 326 OFFCURVE",
"236 331 OFFCURVE",
"260 331 CURVE SMOOTH",
"294 331 OFFCURVE",
"353 409 OFFCURVE",
"353 446 CURVE SMOOTH",
"353 453 OFFCURVE",
"348 459 OFFCURVE",
"332 459 CURVE SMOOTH",
"234 459 OFFCURVE",
"112 336 OFFCURVE",
"112 195 CURVE SMOOTH",
"112 128 OFFCURVE",
"140 65 OFFCURVE",
"200 27 CURVE",
"134 -7 OFFCURVE",
"74 -36 OFFCURVE",
"30 -58 CURVE SMOOTH",
"20 -63 OFFCURVE",
"26 -82 OFFCURVE",
"39 -103 CURVE SMOOTH",
"44 -111 OFFCURVE",
"56 -110 OFFCURVE",
"61 -107 CURVE SMOOTH",
"118 -72 OFFCURVE",
"183 -35 OFFCURVE",
"248 3 CURVE",
"279 -7 OFFCURVE",
"314 -13 OFFCURVE",
"355 -13 CURVE SMOOTH",
"597 -13 OFFCURVE",
"763 190 OFFCURVE",
"763 327 CURVE SMOOTH",
"763 423 OFFCURVE",
"681 489 OFFCURVE",
"589 489 CURVE SMOOTH"
);
}
);
};
components = (
{
name = knRA;
transform = "{1, 0, 0, 1, 132, 0}";
}
);
guideLines = (
{
position = "{360, -110}";
},
{
angle = 226.033;
position = "{-269, 233}";
}
);
layerId = "E8F3CA35-970C-4906-8265-E80916998DA2";
name = "Regular Aug 26 15, 10:49";
paths = (
{
closed = 1;
nodes = (
"613 293 LINE",
"605 164 OFFCURVE",
"722 -12 OFFCURVE",
"811 -12 CURVE SMOOTH",
"845 -12 OFFCURVE",
"889 21 OFFCURVE",
"889 47 CURVE SMOOTH",
"889 60 OFFCURVE",
"714 109 OFFCURVE",
"700 340 CURVE"
);
},
{
closed = 1;
nodes = (
"685 302 CURVE",
"812 346 OFFCURVE",
"927 412 OFFCURVE",
"927 527 CURVE SMOOTH",
"927 622 OFFCURVE",
"787 651 OFFCURVE",
"681 504 CURVE SMOOTH",
"646 455 OFFCURVE",
"621 387 OFFCURVE",
"615 315 CURVE",
"699 346 LINE",
"699 372 LINE",
"699 460 OFFCURVE",
"749 499 OFFCURVE",
"787 499 CURVE SMOOTH",
"810 499 OFFCURVE",
"829 485 OFFCURVE",
"829 458 CURVE SMOOTH",
"829 419 OFFCURVE",
"755 383 OFFCURVE",
"680 354 CURVE",
"550 312 OFFCURVE",
"250 204 OFFCURVE",
"30 159 CURVE",
"20 154 OFFCURVE",
"26 129 OFFCURVE",
"39 108 CURVE SMOOTH",
"44 100 OFFCURVE",
"56 101 OFFCURVE",
"61 104 CURVE",
"282 172 OFFCURVE",
"609 274 OFFCURVE"
);
}
);
width = 877;
},
{
associatedMasterId = "59118767-2CA9-48AA-9373-694D24C960D8";
background = {
paths = (
{
closed = 1;
nodes = (
"822 412 OFFCURVE",
"822 528 CURVE SMOOTH",
"822 568 OFFCURVE",
"789 603 OFFCURVE",
"739 603 CURVE SMOOTH",
"687 603 OFFCURVE",
"630 564 OFFCURVE",
"588 506 CURVE SMOOTH",
"535 433 OFFCURVE",
"502 328 OFFCURVE",
"502 231 CURVE SMOOTH",
"502 99 OFFCURVE",
"563 -20 OFFCURVE",
"694 -16 CURVE",
"808 108 LINE",
"782 95 OFFCURVE",
"754 90 OFFCURVE",
"731 90 CURVE SMOOTH",
"627 90 OFFCURVE",
"578 217 OFFCURVE",
"578 330 CURVE SMOOTH",
"578 422 OFFCURVE",
"611 506 OFFCURVE",
"668 506 CURVE SMOOTH",
"698 506 OFFCURVE",
"724 486 OFFCURVE",
"724 458 CURVE SMOOTH",
"724 419 OFFCURVE",
"630 383 OFFCURVE",
"555 354 CURVE",
"425 312 OFFCURVE",
"125 204 OFFCURVE",
"-95 159 CURVE",
"-105 154 OFFCURVE",
"-99 129 OFFCURVE",
"-86 108 CURVE SMOOTH",
"-81 100 OFFCURVE",
"-69 101 OFFCURVE",
"-64 104 CURVE",
"157 172 OFFCURVE",
"484 274 OFFCURVE",
"560 302 CURVE SMOOTH",
"682 344 OFFCURVE"
);
}
);
};
components = (
{
name = knRA;
transform = "{1, 0, 0, 1, 7, 0}";
}
);
guideLines = (
{
position = "{235, -110}";
},
{
angle = 226.033;
position = "{-394, 233}";
}
);
layerId = "9A35B07F-0372-40EE-B272-5E0C044738EC";
name = "Regular Aug 26 15, 16:01";
paths = (
{
closed = 1;
nodes = (
"497 -12 OFFCURVE",
"686 -12 CURVE SMOOTH",
"720 -12 OFFCURVE",
"764 21 OFFCURVE",
"764 47 CURVE SMOOTH",
"764 52 OFFCURVE",
"592 94 OFFCURVE",
"574 372 CURVE SMOOTH",
"571 415 OFFCURVE",
"583 444 OFFCURVE",
"596 464 CURVE SMOOTH",
"629 514 OFFCURVE",
"724 511 OFFCURVE",
"724 458 CURVE SMOOTH",
"724 419 OFFCURVE",
"630 383 OFFCURVE",
"555 354 CURVE",
"425 312 OFFCURVE",
"125 204 OFFCURVE",
"-95 159 CURVE",
"-105 154 OFFCURVE",
"-99 129 OFFCURVE",
"-86 108 CURVE SMOOTH",
"-81 100 OFFCURVE",
"-69 101 OFFCURVE",
"-64 104 CURVE",
"157 172 OFFCURVE",
"484 274 OFFCURVE",
"560 302 CURVE",
"687 346 OFFCURVE",
"822 412 OFFCURVE",
"822 527 CURVE SMOOTH",
"822 622 OFFCURVE",
"662 661 OFFCURVE",
"556 514 CURVE SMOOTH",
"440 353 OFFCURVE"
);
}
);
width = 802;
},
{
associatedMasterId = "59118767-2CA9-48AA-9373-694D24C960D8";
background = {
components = (
{
name = "CC_headstroke-kannada";
transform = "{1, 0, 0, 1, 26, 0}";
}
);
paths = (
{
closed = 1;
nodes = (
"664 346 LINE",
"586 282 OFFCURVE",
"552 201 OFFCURVE",
"552 125 CURVE SMOOTH",
"552 29 OFFCURVE",
"605 -16 OFFCURVE",
"692 -16 CURVE SMOOTH",
"871 -16 OFFCURVE",
"985 172 OFFCURVE",
"985 302 CURVE SMOOTH",
"985 507 OFFCURVE",
"746 497 OFFCURVE",
"557 374 CURVE",
"548 362 OFFCURVE",
"545 351 OFFCURVE",
"545 336 CURVE SMOOTH",
"545 313 OFFCURVE",
"561 310 OFFCURVE",
"576 310 CURVE SMOOTH",
"592 310 OFFCURVE",
"633 328 OFFCURVE",
"663 342 CURVE",
"721 352 LINE",
"738 352 OFFCURVE",
"758 356 OFFCURVE",
"776 356 CURVE SMOOTH",
"865 356 OFFCURVE",
"899 306 OFFCURVE",
"899 239 CURVE SMOOTH",
"899 126 OFFCURVE",
"801 90 OFFCURVE",
"739 90 CURVE SMOOTH",
"671 90 OFFCURVE",
"631 132 OFFCURVE",
"631 185 CURVE SMOOTH",
"631 248 OFFCURVE",
"699 341 OFFCURVE",
"768 379 CURVE"
);
}
);
};
components = (
{
name = knRA;
transform = "{1, 0, 0, 1, 7, 0}";
}
);
guideLines = (
{
position = "{235, -110}";
},
{
angle = 226.033;
position = "{-394, 233}";
}
);
layerId = "8CE7C320-93D3-4462-A228-F9D330BF10C6";
name = "Regular Aug 26 15, 16:36";
paths = (
{
closed = 1;
nodes = (
"782 334 OFFCURVE",
"782 482 CURVE SMOOTH",
"782 542 OFFCURVE",
"736 566 OFFCURVE",
"691 566 CURVE SMOOTH",
"581 566 OFFCURVE",
"499 402 OFFCURVE",
"499 273 CURVE SMOOTH",
"499 227 OFFCURVE",
"506 179 OFFCURVE",
"521 136 CURVE SMOOTH",
"548 58 OFFCURVE",
"615 -4 OFFCURVE",
"687 -14 CURVE SMOOTH",
"698 -16 OFFCURVE",
"745 -22 OFFCURVE",
"757 48 CURVE SMOOTH",
"761 72 OFFCURVE",
"750 64 OFFCURVE",
"726 73 CURVE SMOOTH",
"676 91 OFFCURVE",
"644 121 OFFCURVE",
"609 188 CURVE SMOOTH",
"568 269 OFFCURVE",
"565 379 OFFCURVE",
"594 439 CURVE SMOOTH",
"605 463 OFFCURVE",
"624 476 OFFCURVE",
"644 476 CURVE SMOOTH",
"668 476 OFFCURVE",
"694 462 OFFCURVE",
"694 428 CURVE SMOOTH",
"694 380 OFFCURVE",
"624 335 OFFCURVE",
"-95 159 CURVE",
"-105 154 OFFCURVE",
"-99 129 OFFCURVE",
"-86 108 CURVE SMOOTH",
"-81 100 OFFCURVE",
"-69 101 OFFCURVE",
"-64 104 CURVE",
"600 279 OFFCURVE"
);
}
);
width = 802;
},
{
associatedMasterId = "59118767-2CA9-48AA-9373-694D24C960D8";
background = {
components = (
{
name = "CC_headstroke-kannada";
transform = "{1, 0, 0, 1, 26, 0}";
}
);
paths = (
{
closed = 1;
nodes = (
"664 346 LINE",
"586 282 OFFCURVE",
"552 201 OFFCURVE",
"552 125 CURVE SMOOTH",
"552 29 OFFCURVE",
"605 -16 OFFCURVE",
"692 -16 CURVE SMOOTH",
"871 -16 OFFCURVE",
"985 172 OFFCURVE",
"985 302 CURVE SMOOTH",
"985 507 OFFCURVE",
"746 497 OFFCURVE",
"557 374 CURVE",
"548 362 OFFCURVE",
"545 351 OFFCURVE",
"545 336 CURVE SMOOTH",
"545 313 OFFCURVE",
"561 310 OFFCURVE",
"576 310 CURVE SMOOTH",
"592 310 OFFCURVE",
"633 328 OFFCURVE",
"663 342 CURVE",
"721 352 LINE",
"738 352 OFFCURVE",
"758 356 OFFCURVE",
"776 356 CURVE SMOOTH",
"865 356 OFFCURVE",
"899 306 OFFCURVE",
"899 239 CURVE SMOOTH",
"899 126 OFFCURVE",
"801 90 OFFCURVE",
"739 90 CURVE SMOOTH",
"671 90 OFFCURVE",
"631 132 OFFCURVE",
"631 185 CURVE SMOOTH",
"631 248 OFFCURVE",
"699 341 OFFCURVE",
"768 379 CURVE"
);
}
);
};
components = (
{
name = knRA;
transform = "{1, 0, 0, 1, 85, 0}";
}
);
guideLines = (
{
position = "{2170, -110}";
},
{
angle = 226.033;
position = "{1541, 233}";
},
{
position = "{2746, 519}";
}
);
layerId = "4554E23E-EED1-44CB-ACFE-107CB70B36E8";
name = "Regular Sep 17 15, 10:24";
paths = (
{
closed = 1;
nodes = (
"40 178 OFFCURVE",
"62 178 CURVE SMOOTH",
"117 175 OFFCURVE",
"187 172 OFFCURVE",
"235 172 CURVE SMOOTH",
"679 172 OFFCURVE",
"870 302 OFFCURVE",
"870 434 CURVE SMOOTH",
"870 494 OFFCURVE",
"824 518 OFFCURVE",
"779 518 CURVE SMOOTH",
"669 518 OFFCURVE",
"587 354 OFFCURVE",
"587 225 CURVE SMOOTH",
"587 179 OFFCURVE",
"594 131 OFFCURVE",
"609 88 CURVE SMOOTH",
"648 -25 OFFCURVE",
"746 -63 OFFCURVE",
"786 -63 CURVE SMOOTH",
"813 -63 OFFCURVE",
"846 -40 OFFCURVE",
"846 8 CURVE SMOOTH",
"846 22 OFFCURVE",
"835 17 OFFCURVE",
"814 25 CURVE SMOOTH",
"764 43 OFFCURVE",
"732 73 OFFCURVE",
"697 140 CURVE SMOOTH",
"674 186 OFFCURVE",
"663 241 OFFCURVE",
"663 291 CURVE SMOOTH",
"663 329 OFFCURVE",
"669 365 OFFCURVE",
"682 391 CURVE SMOOTH",
"693 415 OFFCURVE",
"712 428 OFFCURVE",
"732 428 CURVE SMOOTH",
"756 428 OFFCURVE",
"782 414 OFFCURVE",
"782 380 CURVE SMOOTH",
"782 340 OFFCURVE",
"703 247 OFFCURVE",
"293 247 CURVE SMOOTH",
"178 247 OFFCURVE",
"183 251 OFFCURVE",
"65 258 CURVE",
"47 252 OFFCURVE",
"30 217 OFFCURVE",
"30 197 CURVE SMOOTH",
"30 183 OFFCURVE"
);
}
);
width = 900;
}
);
leftKerningGroup = knII;
rightKerningGroup = knII;
unicode = 0C88;
},
{
color = 4;
glyphname = knU;
lastChange = "2015-11-09 08:48:04 +0000";
layers = (
{
components = (
{
name = "CC-U-kannada";
transform = "{1, 0, 0, 1, 29, 0}";
}
);
layerId = "59118767-2CA9-48AA-9373-694D24C960D8";
name = Regular;
paths = (
{
closed = 1;
nodes = (
"505 207 LINE",
"568 317 OFFCURVE",
"592 427 OFFCURVE",
"649 427 CURVE SMOOTH",
"670 427 OFFCURVE",
"678 413 OFFCURVE",
"678 388 CURVE SMOOTH",
"678 320 OFFCURVE",
"620 218 OFFCURVE",
"620 121 CURVE SMOOTH",
"620 52 OFFCURVE",
"650 -14 OFFCURVE",
"753 -14 CURVE SMOOTH",
"929 -14 OFFCURVE",
"1046 180 OFFCURVE",
"1046 365 CURVE SMOOTH",
"1046 429 OFFCURVE",
"1032 492 OFFCURVE",
"994 492 CURVE SMOOTH",
"978 492 OFFCURVE",
"959 482 OFFCURVE",
"934 456 CURVE SMOOTH",
"915 436 OFFCURVE",
"906 421 OFFCURVE",
"906 406 CURVE SMOOTH",
"906 377 OFFCURVE",
"939 337 OFFCURVE",
"939 267 CURVE SMOOTH",
"939 195 OFFCURVE",
"905 83 OFFCURVE",
"800 83 CURVE SMOOTH",
"738 83 OFFCURVE",
"717 122 OFFCURVE",
"717 172 CURVE SMOOTH",
"717 261 OFFCURVE",
"781 348 OFFCURVE",
"781 436 CURVE SMOOTH",
"781 485 OFFCURVE",
"760 523 OFFCURVE",
"692 523 CURVE SMOOTH",
"566 523 OFFCURVE",
"502 367 OFFCURVE",
"446 245 CURVE"
);
}
);
width = 1079;
},
{
associatedMasterId = "59118767-2CA9-48AA-9373-694D24C960D8";
layerId = "80D83E69-433C-4D94-A375-DC8682E24F53";
name = "Regular Aug 31 15, 14:36";
paths = (
{
closed = 1;
nodes = (
"740 133 LINE",
"704 153 OFFCURVE",
"705 249 OFFCURVE",
"730 297 CURVE SMOOTH",
"799 427 OFFCURVE",
"772 523 OFFCURVE",
"662 523 CURVE SMOOTH",
"534 523 OFFCURVE",
"462 387 OFFCURVE",
"406 261 CURVE SMOOTH",
"357 150 OFFCURVE",
"311 90 OFFCURVE",
"210 90 CURVE SMOOTH",
"142 90 OFFCURVE",
"91 138 OFFCURVE",
"92 211 CURVE SMOOTH",
"94 322 OFFCURVE",
"170 403 OFFCURVE",
"218 403 CURVE SMOOTH",
"266 403 OFFCURVE",
"253 355 OFFCURVE",
"204 327 CURVE SMOOTH",
"155 299 OFFCURVE",
"180 237 OFFCURVE",
"221 242 CURVE SMOOTH",
"323 254 OFFCURVE",
"343 332 OFFCURVE",
"343 379 CURVE SMOOTH",
"343 434 OFFCURVE",
"285 464 OFFCURVE",
"239 464 CURVE SMOOTH",
"161 464 OFFCURVE",
"3 359 OFFCURVE",
"10 147 CURVE SMOOTH",
"14 33 OFFCURVE",
"78 -16 OFFCURVE",
"163 -16 CURVE SMOOTH",
"502 -16 OFFCURVE",
"498 427 OFFCURVE",
"612 427 CURVE SMOOTH",
"696 427 OFFCURVE",
"662 311 OFFCURVE",
"595 199 CURVE SMOOTH",
"577 169 OFFCURVE",
"594 94 OFFCURVE",
"664 50 CURVE"
);
},
{
closed = 1;
nodes = (
"968 604 OFFCURVE",
"884 499 CURVE SMOOTH",
"853 461 OFFCURVE",
"866 424 OFFCURVE",
"900 397 CURVE SMOOTH",
"948 359 OFFCURVE",
"993 310 OFFCURVE",
"993 230 CURVE SMOOTH",
"993 94 OFFCURVE",
"826 37 OFFCURVE",
"740 133 CURVE",
"664 50 LINE",
"701 7 OFFCURVE",
"759 -12 OFFCURVE",
"803 -12 CURVE SMOOTH",
"925 -12 OFFCURVE",
"1062 126 OFFCURVE",
"1062 298 CURVE SMOOTH",
"1062 435 OFFCURVE"
);
}
);
width = 1209;
},
{
associatedMasterId = "59118767-2CA9-48AA-9373-694D24C960D8";
background = {
paths = (
{
closed = 1;
nodes = (
"506 207 LINE",
"569 317 OFFCURVE",
"593 427 OFFCURVE",
"650 427 CURVE SMOOTH",
"705 427 OFFCURVE",
"668 325 OFFCURVE",
"649 269 CURVE SMOOTH",
"617 177 OFFCURVE",
"578 -12 OFFCURVE",
"754 -12 CURVE SMOOTH",
"914 -12 OFFCURVE",
"1046 160 OFFCURVE",
"1043 366 CURVE SMOOTH",
"1043 420 OFFCURVE",
"1046 476 OFFCURVE",
"976 464 CURVE SMOOTH",
"912 453 OFFCURVE",
"906 450 OFFCURVE",
"921 399 CURVE SMOOTH",
"934 358 OFFCURVE",
"939 318 OFFCURVE",
"939 280 CURVE SMOOTH",
"939 168 OFFCURVE",
"886 83 OFFCURVE",
"803 83 CURVE SMOOTH",
"668 83 OFFCURVE",
"728 249 OFFCURVE",
"753 312 CURVE SMOOTH",
"783 387 OFFCURVE",
"816 523 OFFCURVE",
"700 523 CURVE SMOOTH",
"572 523 OFFCURVE",
"508 376 OFFCURVE",
"447 245 CURVE"
);
}
);
};
components = (
{
name = "CC-U-kannada";
transform = "{1, 0, 0, 1, 30, 0}";
}
);
layerId = "70BEEC42-EC2D-42C3-A91F-00A7F0A6C596";
name = "Regular Sep 16 15, 10:33";
paths = (
{
closed = 1;
nodes = (
"506 207 LINE",
"569 317 OFFCURVE",
"593 427 OFFCURVE",
"650 427 CURVE SMOOTH",
"705 427 OFFCURVE",
"668 325 OFFCURVE",
"649 269 CURVE SMOOTH",
"617 177 OFFCURVE",
"578 -12 OFFCURVE",
"754 -12 CURVE SMOOTH",
"914 -12 OFFCURVE",
"1046 160 OFFCURVE",
"1043 366 CURVE SMOOTH",
"1043 420 OFFCURVE",
"1046 476 OFFCURVE",
"976 464 CURVE SMOOTH",
"912 453 OFFCURVE",
"906 450 OFFCURVE",
"921 399 CURVE SMOOTH",
"934 358 OFFCURVE",
"939 318 OFFCURVE",
"939 280 CURVE SMOOTH",
"939 168 OFFCURVE",
"886 83 OFFCURVE",
"803 83 CURVE SMOOTH",
"668 83 OFFCURVE",
"728 249 OFFCURVE",
"753 312 CURVE SMOOTH",
"783 387 OFFCURVE",
"816 523 OFFCURVE",
"700 523 CURVE SMOOTH",
"572 523 OFFCURVE",
"508 376 OFFCURVE",
"447 245 CURVE"
);
}
);
width = 1073;
},
{
associatedMasterId = "59118767-2CA9-48AA-9373-694D24C960D8";
background = {
paths = (
{
closed = 1;
nodes = (
"506 207 LINE",
"569 317 OFFCURVE",
"593 427 OFFCURVE",
"650 427 CURVE SMOOTH",
"705 427 OFFCURVE",
"668 325 OFFCURVE",
"649 269 CURVE SMOOTH",
"617 177 OFFCURVE",
"578 -12 OFFCURVE",
"754 -12 CURVE SMOOTH",
"914 -12 OFFCURVE",
"1046 160 OFFCURVE",
"1043 366 CURVE SMOOTH",
"1043 420 OFFCURVE",
"1046 476 OFFCURVE",
"976 464 CURVE SMOOTH",
"912 453 OFFCURVE",
"906 450 OFFCURVE",
"921 399 CURVE SMOOTH",
"934 358 OFFCURVE",
"939 318 OFFCURVE",
"939 280 CURVE SMOOTH",
"939 168 OFFCURVE",
"886 83 OFFCURVE",
"803 83 CURVE SMOOTH",
"668 83 OFFCURVE",
"728 249 OFFCURVE",
"753 312 CURVE SMOOTH",
"783 387 OFFCURVE",
"816 523 OFFCURVE",
"700 523 CURVE SMOOTH",
"572 523 OFFCURVE",
"508 376 OFFCURVE",
"447 245 CURVE"
);
}
);
};
components = (
{
name = "CC-U-kannada";
transform = "{1, 0, 0, 1, 30, 0}";
}
);
layerId = "32218B01-9E1E-4EFA-B1E6-B9FA5F5A9806";
name = "Regular Sep 16 15, 10:37";
paths = (
{
closed = 1;
nodes = (
"506 207 LINE",
"569 317 OFFCURVE",
"593 427 OFFCURVE",
"650 427 CURVE SMOOTH",
"671 427 OFFCURVE",
"679 413 OFFCURVE",
"679 388 CURVE SMOOTH",
"679 320 OFFCURVE",
"621 218 OFFCURVE",
"621 121 CURVE SMOOTH",
"621 52 OFFCURVE",
"651 -14 OFFCURVE",
"753 -14 CURVE SMOOTH",
"930 -14 OFFCURVE",
"1047 172 OFFCURVE",
"1047 379 CURVE SMOOTH",
"1047 446 OFFCURVE",
"1024 544 OFFCURVE",
"935 456 CURVE SMOOTH",
"915 436 OFFCURVE",
"907 421 OFFCURVE",
"907 401 CURVE SMOOTH",
"907 383 OFFCURVE",
"940 334 OFFCURVE",
"940 268 CURVE SMOOTH",
"940 196 OFFCURVE",
"906 83 OFFCURVE",
"802 83 CURVE SMOOTH",
"738 83 OFFCURVE",
"718 122 OFFCURVE",
"718 172 CURVE SMOOTH",
"718 261 OFFCURVE",
"782 348 OFFCURVE",
"782 436 CURVE SMOOTH",
"782 485 OFFCURVE",
"762 523 OFFCURVE",
"699 523 CURVE SMOOTH",
"570 523 OFFCURVE",
"504 367 OFFCURVE",
"447 245 CURVE"
);
}
);
width = 1073;
}
);
leftKerningGroup = knLA;
leftMetricsKey = knLA;
rightKerningGroup = knLA;
rightMetricsKey = knLA;
unicode = 0C89;
},
{
color = 4;
glyphname = knUU;
lastChange = "2015-11-08 18:00:46 +0000";
layers = (
{
components = (
{
name = "CC-U-kannada";
transform = "{1, 0, 0, 1, 29, 0}";
}
);
layerId = "59118767-2CA9-48AA-9373-694D24C960D8";
name = Regular;
paths = (
{
closed = 1;
nodes = (
"1300 370 OFFCURVE",
"1247 463 OFFCURVE",
"1131 463 CURVE SMOOTH",
"1002 463 OFFCURVE",
"905 349 OFFCURVE",
"812 210 CURVE SMOOTH",
"751 120 OFFCURVE",
"720 55 OFFCURVE",
"663 55 CURVE SMOOTH",
"639 55 OFFCURVE",
"627 66 OFFCURVE",
"627 92 CURVE SMOOTH",
"627 185 OFFCURVE",
"776 321 OFFCURVE",
"776 437 CURVE SMOOTH",
"776 488 OFFCURVE",
"748 523 OFFCURVE",
"693 523 CURVE SMOOTH",
"570 523 OFFCURVE",
"501 360 OFFCURVE",
"446 245 CURVE",
"519 234 LINE",
"568 332 OFFCURVE",
"598 427 OFFCURVE",
"649 427 CURVE SMOOTH",
"668 427 OFFCURVE",
"676 414 OFFCURVE",
"676 391 CURVE SMOOTH",
"676 289 OFFCURVE",
"517 138 OFFCURVE",
"517 31 CURVE SMOOTH",
"517 -18 OFFCURVE",
"551 -54 OFFCURVE",
"611 -54 CURVE SMOOTH",
"716 -54 OFFCURVE",
"793 54 OFFCURVE",
"867 161 CURVE SMOOTH",
"946 275 OFFCURVE",
"998 363 OFFCURVE",
"1087 363 CURVE SMOOTH",
"1176 363 OFFCURVE",
"1232 285 OFFCURVE",
"1232 209 CURVE SMOOTH",
"1232 163 OFFCURVE",
"1212 119 OFFCURVE",
"1167 93 CURVE",
"1190 79 LINE",
"1227 152 OFFCURVE",
"1197 263 OFFCURVE",
"1106 263 CURVE SMOOTH",
"1013 263 OFFCURVE",
"948 167 OFFCURVE",
"948 87 CURVE SMOOTH",
"948 31 OFFCURVE",
"980 -18 OFFCURVE",
"1055 -18 CURVE SMOOTH",
"1079 -18 OFFCURVE",
"1098 -14 OFFCURVE",
"1114 -9 CURVE SMOOTH",
"1207 20 OFFCURVE",
"1300 114 OFFCURVE",
"1300 257 CURVE SMOOTH"
);
},
{
closed = 1;
nodes = (
"1113 170 OFFCURVE",
"1151 135 OFFCURVE",
"1151 78 CURVE SMOOTH",
"1138 74 OFFCURVE",
"1122 72 OFFCURVE",
"1105 72 CURVE SMOOTH",
"1045 72 OFFCURVE",
"1020 105 OFFCURVE",
"1020 131 CURVE SMOOTH",
"1020 152 OFFCURVE",
"1036 170 OFFCURVE",
"1067 170 CURVE SMOOTH"
);
}
);
width = 1330;
},
{
associatedMasterId = "59118767-2CA9-48AA-9373-694D24C960D8";
layerId = "C3C3CE12-A38B-4EC5-800C-C7FEBADF767A";
name = "Regular Aug 31 15, 14:23";
paths = (
{
closed = 1;
nodes = (
"261 313 LINE",
"252 277 OFFCURVE",
"281 271 OFFCURVE",
"306 300 CURVE SMOOTH",
"332 330 OFFCURVE",
"357 364 OFFCURVE",
"387 383 CURVE SMOOTH",
"402 392 OFFCURVE",
"416 397 OFFCURVE",
"426 397 CURVE SMOOTH",
"491 397 OFFCURVE",
"489 295 OFFCURVE",
"440 201 CURVE",
"403 147 LINE",
"345 83 OFFCURVE",
"244 32 OFFCURVE",
"179 39 CURVE",
"181 -50 LINE",
"279 -58 OFFCURVE",
"372 13 OFFCURVE",
"445 107 CURVE",
"491 175 LINE",
"563 298 OFFCURVE",
"593 434 OFFCURVE",
"544 483 CURVE SMOOTH",
"522 505 OFFCURVE",
"485 510 OFFCURVE",
"442 488 CURVE SMOOTH",
"402 468 OFFCURVE",
"356 432 OFFCURVE",
"321 388 CURVE"
);
},
{
closed = 1;
nodes = (
"-110 317 LINE",
"-120 411 OFFCURVE",
"-87 427 OFFCURVE",
"-55 427 CURVE SMOOTH",
"-30 427 OFFCURVE",
"-7 406 OFFCURVE",
"-7 362 CURVE SMOOTH",
"-7 325 OFFCURVE",
"-17 293 OFFCURVE",
"-31 263 CURVE",
"-72 199 LINE",
"-112 143 OFFCURVE",
"-181 29 OFFCURVE",
"-126 -31 CURVE",
"-104 -53 OFFCURVE",
"-67 -58 OFFCURVE",
"-24 -36 CURVE SMOOTH",
"16 -16 OFFCURVE",
"62 20 OFFCURVE",
"97 64 CURVE",
"157 139 LINE",
"166 175 OFFCURVE",
"137 181 OFFCURVE",
"112 152 CURVE SMOOTH",
"86 122 OFFCURVE",
"61 88 OFFCURVE",
"31 69 CURVE SMOOTH",
"16 60 OFFCURVE",
"2 55 OFFCURVE",
"-8 55 CURVE SMOOTH",
"-69 55 OFFCURVE",
"-42 136 OFFCURVE",
"43 297 CURVE SMOOTH",
"101 406 OFFCURVE",
"105 523 OFFCURVE",
"-5 523 CURVE SMOOTH",
"-85 523 OFFCURVE",
"-193 407 OFFCURVE",
"-182 262 CURVE"
);
}
);
width = 555;
},
{
associatedMasterId = "59118767-2CA9-48AA-9373-694D24C960D8";
layerId = "050ACADF-7105-488F-BC22-88DBE9C32C99";
name = "Regular Aug 31 15, 14:24";
paths = (
{
closed = 1;
nodes = (
"-110 317 LINE",
"-120 411 OFFCURVE",
"-87 427 OFFCURVE",
"-55 427 CURVE SMOOTH",
"-30 427 OFFCURVE",
"-7 406 OFFCURVE",
"-7 362 CURVE SMOOTH",
"-7 325 OFFCURVE",
"-17 293 OFFCURVE",
"-31 263 CURVE",
"-72 199 LINE",
"-112 143 OFFCURVE",
"-181 29 OFFCURVE",
"-126 -31 CURVE",
"-104 -53 OFFCURVE",
"-67 -58 OFFCURVE",
"-24 -36 CURVE SMOOTH",
"16 -16 OFFCURVE",
"62 20 OFFCURVE",
"97 64 CURVE",
"206 199 LINE",
"215 235 OFFCURVE",
"186 241 OFFCURVE",
"161 212 CURVE SMOOTH",
"135 182 OFFCURVE",
"61 88 OFFCURVE",
"31 69 CURVE SMOOTH",
"16 60 OFFCURVE",
"2 55 OFFCURVE",
"-8 55 CURVE SMOOTH",
"-69 55 OFFCURVE",
"-42 136 OFFCURVE",
"43 297 CURVE SMOOTH",
"101 406 OFFCURVE",
"105 523 OFFCURVE",
"-5 523 CURVE SMOOTH",
"-85 523 OFFCURVE",
"-193 407 OFFCURVE",
"-182 262 CURVE"
);
},
{
closed = 1;
nodes = (
"422 95 LINE",
"476 175 LINE",
"548 298 OFFCURVE",
"578 434 OFFCURVE",
"529 483 CURVE SMOOTH",
"507 505 OFFCURVE",
"470 510 OFFCURVE",
"427 488 CURVE SMOOTH",
"387 468 OFFCURVE",
"341 432 OFFCURVE",
"306 388 CURVE",
"176 232 LINE",
"167 196 OFFCURVE",
"196 190 OFFCURVE",
"221 219 CURVE SMOOTH",
"247 249 OFFCURVE",
"342 364 OFFCURVE",
"372 383 CURVE SMOOTH",
"387 392 OFFCURVE",
"401 397 OFFCURVE",
"411 397 CURVE SMOOTH",
"476 397 OFFCURVE",
"474 295 OFFCURVE",
"425 201 CURVE",
"380 135 LINE"
);
}
);
width = 555;
},
{
associatedMasterId = "59118767-2CA9-48AA-9373-694D24C960D8";
background = {
paths = (
{
closed = 1;
nodes = (
"892 302 LINE",
"893 309 OFFCURVE",
"911 245 OFFCURVE",
"951 289 CURVE",
"986 332 OFFCURVE",
"1030 355 OFFCURVE",
"1073 355 CURVE",
"1174 355 OFFCURVE",
"1218 281 OFFCURVE",
"1218 209 CURVE SMOOTH",
"1218 118 OFFCURVE",
"1154 72 OFFCURVE",
"1110 72 CURVE SMOOTH",
"1073 72 OFFCURVE",
"1050 104 OFFCURVE",
"1099 166 CURVE SMOOTH",
"1127 202 OFFCURVE",
"1176 236 OFFCURVE",
"1232 244 CURVE",
"1212 283 LINE",
"1081 258 OFFCURVE",
"992 136 OFFCURVE",
"992 66 CURVE SMOOTH",
"992 10 OFFCURVE",
"1025 -14 OFFCURVE",
"1069 -14 CURVE SMOOTH",
"1161 -14 OFFCURVE",
"1302 89 OFFCURVE",
"1302 248 CURVE SMOOTH",
"1302 382 OFFCURVE",
"1222 463 OFFCURVE",
"1125 463 CURVE SMOOTH",
"1072 463 OFFCURVE",
"1014 437 OFFCURVE",
"961 377 CURVE"
);
}
);
};
layerId = "CCC87648-AC01-450F-8D21-480C6F0AECFB";
name = "Regular Aug 31 15, 14:26";
paths = (
{
closed = 1;
nodes = (
"421 132 LINE",
"531 336 OFFCURVE",
"580 427 OFFCURVE",
"612 427 CURVE SMOOTH",
"637 427 OFFCURVE",
"660 406 OFFCURVE",
"660 362 CURVE SMOOTH",
"660 325 OFFCURVE",
"650 293 OFFCURVE",
"636 263 CURVE",
"595 199 LINE",
"555 143 OFFCURVE",
"486 29 OFFCURVE",
"541 -31 CURVE",
"563 -53 OFFCURVE",
"600 -58 OFFCURVE",
"643 -36 CURVE SMOOTH",
"683 -16 OFFCURVE",
"729 20 OFFCURVE",
"764 64 CURVE",
"873 199 LINE",
"882 235 OFFCURVE",
"853 241 OFFCURVE",
"828 212 CURVE SMOOTH",
"802 182 OFFCURVE",
"728 88 OFFCURVE",
"698 69 CURVE SMOOTH",
"683 60 OFFCURVE",
"669 55 OFFCURVE",
"659 55 CURVE SMOOTH",
"598 55 OFFCURVE",
"625 136 OFFCURVE",
"710 297 CURVE SMOOTH",
"768 406 OFFCURVE",
"772 523 OFFCURVE",
"662 523 CURVE SMOOTH",
"582 523 OFFCURVE",
"463 411 OFFCURVE",
"354 156 CURVE"
);
},
{
closed = 1;
nodes = (
"1089 95 LINE",
"1143 175 LINE",
"1215 298 OFFCURVE",
"1245 434 OFFCURVE",
"1196 483 CURVE SMOOTH",
"1174 505 OFFCURVE",
"1137 510 OFFCURVE",
"1094 488 CURVE SMOOTH",
"1054 468 OFFCURVE",
"1008 432 OFFCURVE",
"973 388 CURVE",
"843 232 LINE",
"834 196 OFFCURVE",
"863 190 OFFCURVE",
"888 219 CURVE SMOOTH",
"914 249 OFFCURVE",
"1009 364 OFFCURVE",
"1039 383 CURVE SMOOTH",
"1054 392 OFFCURVE",
"1068 397 OFFCURVE",
"1078 397 CURVE SMOOTH",
"1143 397 OFFCURVE",
"1141 295 OFFCURVE",
"1092 201 CURVE",
"1047 135 LINE"
);
},
{
closed = 1;
nodes = (
"421 132 CURVE",
"424 181 OFFCURVE",
"400 181 OFFCURVE",
"374 181 CURVE SMOOTH",
"346 181 OFFCURVE",
"336 90 OFFCURVE",
"210 90 CURVE SMOOTH",
"142 90 OFFCURVE",
"91 138 OFFCURVE",
"92 211 CURVE SMOOTH",
"94 322 OFFCURVE",
"170 403 OFFCURVE",
"218 403 CURVE SMOOTH",
"266 403 OFFCURVE",
"253 355 OFFCURVE",
"204 327 CURVE SMOOTH",
"155 299 OFFCURVE",
"180 237 OFFCURVE",
"221 242 CURVE SMOOTH",
"323 254 OFFCURVE",
"343 332 OFFCURVE",
"343 379 CURVE SMOOTH",
"343 434 OFFCURVE",
"285 464 OFFCURVE",
"239 464 CURVE SMOOTH",
"161 464 OFFCURVE",
"3 359 OFFCURVE",
"10 147 CURVE SMOOTH",
"14 33 OFFCURVE",
"78 -16 OFFCURVE",
"163 -16 CURVE SMOOTH",
"227 -16 OFFCURVE",
"343 20 OFFCURVE"
);
}
);
width = 3000;
},
{
associatedMasterId = "59118767-2CA9-48AA-9373-694D24C960D8";
background = {
paths = (
{
closed = 1;
nodes = (
"976 331 LINE",
"1101 416 OFFCURVE",
"1274 325 OFFCURVE",
"1210 123 CURVE",
"1180 52 OFFCURVE",
"1034 49 OFFCURVE",
"1034 120 CURVE SMOOTH",
"1034 149 OFFCURVE",
"1059 181 OFFCURVE",
"1104 181 CURVE SMOOTH",
"1140 181 OFFCURVE",
"1193 117 OFFCURVE",
"1156 74 CURVE",
"1194 74 OFFCURVE",
"1234 118 OFFCURVE",
"1226 171 CURVE",
"1188 292 OFFCURVE",
"1045 263 OFFCURVE",
"996 159 CURVE SMOOTH",
"943 42 OFFCURVE",
"1006 -12 OFFCURVE",
"1077 -12 CURVE SMOOTH",
"1172 -12 OFFCURVE",
"1293 85 OFFCURVE",
"1293 261 CURVE SMOOTH",
"1293 367 OFFCURVE",
"1240 463 OFFCURVE",
"1125 463 CURVE SMOOTH",
"1080 463 OFFCURVE",
"1014 444 OFFCURVE",
"966 402 CURVE"
);
}
);
};
layerId = "6F56943A-C29C-4157-A083-E29DBFFDDECF";
name = "Regular Aug 31 15, 16:37";
paths = (
{
closed = 1;
nodes = (
"984 463 OFFCURVE",
"882 325 OFFCURVE",
"805 210 CURVE SMOOTH",
"749 127 OFFCURVE",
"712 55 OFFCURVE",
"659 55 CURVE SMOOTH",
"598 55 OFFCURVE",
"645 136 OFFCURVE",
"730 297 CURVE SMOOTH",
"799 427 OFFCURVE",
"772 523 OFFCURVE",
"662 523 CURVE SMOOTH",
"534 523 OFFCURVE",
"462 387 OFFCURVE",
"406 261 CURVE SMOOTH",
"357 150 OFFCURVE",
"311 90 OFFCURVE",
"210 90 CURVE SMOOTH",
"142 90 OFFCURVE",
"91 138 OFFCURVE",
"92 211 CURVE SMOOTH",
"94 322 OFFCURVE",
"170 403 OFFCURVE",
"218 403 CURVE SMOOTH",
"266 403 OFFCURVE",
"253 355 OFFCURVE",
"204 327 CURVE SMOOTH",
"155 299 OFFCURVE",
"180 237 OFFCURVE",
"221 242 CURVE SMOOTH",
"323 254 OFFCURVE",
"343 332 OFFCURVE",
"343 379 CURVE SMOOTH",
"343 434 OFFCURVE",
"285 464 OFFCURVE",
"239 464 CURVE SMOOTH",
"161 464 OFFCURVE",
"3 359 OFFCURVE",
"10 147 CURVE SMOOTH",
"14 33 OFFCURVE",
"78 -16 OFFCURVE",
"163 -16 CURVE SMOOTH",
"502 -16 OFFCURVE",
"498 427 OFFCURVE",
"612 427 CURVE SMOOTH",
"696 427 OFFCURVE",
"662 311 OFFCURVE",
"595 199 CURVE SMOOTH",
"560 140 OFFCURVE",
"486 29 OFFCURVE",
"541 -31 CURVE SMOOTH",
"599 -89 OFFCURVE",
"738 -26 OFFCURVE",
"804 69 CURVE SMOOTH",
"830 106 OFFCURVE",
"856 141 OFFCURVE",
"878 179 CURVE SMOOTH",
"937 279 OFFCURVE",
"995 355 OFFCURVE",
"1073 355 CURVE SMOOTH",
"1139 355 OFFCURVE",
"1181 323 OFFCURVE",
"1202 281 CURVE",
"1076 252 OFFCURVE",
"992 134 OFFCURVE",
"992 66 CURVE SMOOTH",
"992 10 OFFCURVE",
"1025 -14 OFFCURVE",
"1069 -14 CURVE SMOOTH",
"1161 -14 OFFCURVE",
"1302 89 OFFCURVE",
"1302 248 CURVE SMOOTH",
"1302 382 OFFCURVE",
"1222 463 OFFCURVE",
"1125 463 CURVE SMOOTH"
);
},
{
closed = 1;
nodes = (
"1073 72 OFFCURVE",
"1050 104 OFFCURVE",
"1099 166 CURVE SMOOTH",
"1124 198 OFFCURVE",
"1166 229 OFFCURVE",
"1215 241 CURVE",
"1217 230 OFFCURVE",
"1218 220 OFFCURVE",
"1218 209 CURVE SMOOTH",
"1218 118 OFFCURVE",
"1154 72 OFFCURVE",
"1110 72 CURVE SMOOTH"
);
}
);
width = 1312;
},
{
associatedMasterId = "59118767-2CA9-48AA-9373-694D24C960D8";
components = (
{
name = "CC-U-kannada";
transform = "{1, 0, 0, 1, 30, 0}";
}
);
layerId = "EB990178-D944-47D3-B78C-DACE13373FE0";
name = "Regular Sep 16 15, 11:02";
paths = (
{
closed = 1;
nodes = (
"520 234 LINE",
"566 332 OFFCURVE",
"599 427 OFFCURVE",
"650 427 CURVE SMOOTH",
"704 427 OFFCURVE",
"670 311 OFFCURVE",
"603 199 CURVE SMOOTH",
"568 140 OFFCURVE",
"494 29 OFFCURVE",
"549 -31 CURVE SMOOTH",
"581 -63 OFFCURVE",
"635 -59 OFFCURVE",
"692 -31 CURVE SMOOTH",
"755 -1 OFFCURVE",
"812 78 OFFCURVE",
"868 161 CURVE SMOOTH",
"939 264 OFFCURVE",
"999 363 OFFCURVE",
"1084 363 CURVE SMOOTH",
"1182 363 OFFCURVE",
"1266 274 OFFCURVE",
"1218 123 CURVE",
"1188 52 OFFCURVE",
"1042 49 OFFCURVE",
"1042 120 CURVE SMOOTH",
"1042 149 OFFCURVE",
"1067 181 OFFCURVE",
"1112 181 CURVE SMOOTH",
"1148 181 OFFCURVE",
"1201 117 OFFCURVE",
"1164 74 CURVE",
"1202 74 OFFCURVE",
"1242 118 OFFCURVE",
"1234 171 CURVE",
"1196 292 OFFCURVE",
"1053 263 OFFCURVE",
"1004 159 CURVE SMOOTH",
"951 42 OFFCURVE",
"1014 -12 OFFCURVE",
"1085 -12 CURVE SMOOTH",
"1180 -12 OFFCURVE",
"1301 85 OFFCURVE",
"1301 261 CURVE SMOOTH",
"1301 367 OFFCURVE",
"1248 463 OFFCURVE",
"1133 463 CURVE SMOOTH",
"1001 463 OFFCURVE",
"906 348 OFFCURVE",
"813 210 CURVE SMOOTH",
"757 127 OFFCURVE",
"720 55 OFFCURVE",
"667 55 CURVE SMOOTH",
"606 55 OFFCURVE",
"653 136 OFFCURVE",
"738 297 CURVE SMOOTH",
"807 427 OFFCURVE",
"780 523 OFFCURVE",
"700 523 CURVE SMOOTH",
"573 523 OFFCURVE",
"512 376 OFFCURVE",
"447 245 CURVE"
);
}
);
width = 1331;
},
{
associatedMasterId = "59118767-2CA9-48AA-9373-694D24C960D8";
components = (
{
name = "CC-U-kannada";
transform = "{1, 0, 0, 1, 30, 0}";
}
);
layerId = "3459F211-B2F8-4848-8BD3-3D8B38EEB647";
name = "Regular Sep 16 15, 11:03";
paths = (
{
closed = 1;
nodes = (
"520 234 LINE",
"569 332 OFFCURVE",
"599 427 OFFCURVE",
"650 427 CURVE SMOOTH",
"669 427 OFFCURVE",
"677 414 OFFCURVE",
"677 391 CURVE SMOOTH",
"677 289 OFFCURVE",
"518 138 OFFCURVE",
"518 31 CURVE SMOOTH",
"518 -18 OFFCURVE",
"552 -54 OFFCURVE",
"612 -54 CURVE SMOOTH",
"717 -54 OFFCURVE",
"794 54 OFFCURVE",
"868 161 CURVE SMOOTH",
"947 275 OFFCURVE",
"999 363 OFFCURVE",
"1088 363 CURVE SMOOTH",
"1152 363 OFFCURVE",
"1232 317 OFFCURVE",
"1232 200 CURVE SMOOTH",
"1232 132 OFFCURVE",
"1205 68 OFFCURVE",
"1119 68 CURVE SMOOTH",
"1075 68 OFFCURVE",
"1042 85 OFFCURVE",
"1042 120 CURVE SMOOTH",
"1042 155 OFFCURVE",
"1076 181 OFFCURVE",
"1107 181 CURVE SMOOTH",
"1146 181 OFFCURVE",
"1177 139 OFFCURVE",
"1177 107 CURVE SMOOTH",
"1177 96 OFFCURVE",
"1173 84 OFFCURVE",
"1164 74 CURVE",
"1199 74 OFFCURVE",
"1235 112 OFFCURVE",
"1235 155 CURVE SMOOTH",
"1235 199 OFFCURVE",
"1197 250 OFFCURVE",
"1134 250 CURVE SMOOTH",
"1048 250 OFFCURVE",
"984 156 OFFCURVE",
"984 82 CURVE SMOOTH",
"984 17 OFFCURVE",
"1032 -12 OFFCURVE",
"1084 -12 CURVE SMOOTH",
"1180 -12 OFFCURVE",
"1301 87 OFFCURVE",
"1301 257 CURVE SMOOTH",
"1301 370 OFFCURVE",
"1248 463 OFFCURVE",
"1132 463 CURVE SMOOTH",
"1003 463 OFFCURVE",
"906 349 OFFCURVE",
"813 210 CURVE SMOOTH",
"752 120 OFFCURVE",
"721 55 OFFCURVE",
"664 55 CURVE SMOOTH",
"640 55 OFFCURVE",
"628 66 OFFCURVE",
"628 92 CURVE SMOOTH",
"628 185 OFFCURVE",
"777 321 OFFCURVE",
"777 437 CURVE SMOOTH",
"777 488 OFFCURVE",
"749 523 OFFCURVE",
"694 523 CURVE SMOOTH",
"571 523 OFFCURVE",
"502 360 OFFCURVE",
"447 245 CURVE"
);
}
);
width = 1331;
},
{
associatedMasterId = "59118767-2CA9-48AA-9373-694D24C960D8";
background = {
paths = (
{
closed = 1;
nodes = (
"1175 -18 OFFCURVE",
"1296 104 OFFCURVE",
"1321 154 CURVE SMOOTH",
"1324 160 OFFCURVE",
"1327 167 OFFCURVE",
"1327 177 CURVE SMOOTH",
"1327 192 OFFCURVE",
"1321 205 OFFCURVE",
"1307 205 CURVE SMOOTH",
"1294 205 OFFCURVE",
"1285 194 OFFCURVE",
"1277 184 CURVE SMOOTH",
"1239 136 OFFCURVE",
"1192 72 OFFCURVE",
"1106 72 CURVE SMOOTH",
"1046 72 OFFCURVE",
"1021 105 OFFCURVE",
"1021 131 CURVE SMOOTH",
"1021 152 OFFCURVE",
"1037 170 OFFCURVE",
"1068 170 CURVE SMOOTH",
"1107 170 OFFCURVE",
"1152 140 OFFCURVE",
"1152 82 CURVE SMOOTH",
"1152 67 OFFCURVE",
"1149 52 OFFCURVE",
"1142 35 CURVE",
"1189 75 LINE",
"1198 106 OFFCURVE",
"1202 132 OFFCURVE",
"1202 155 CURVE SMOOTH",
"1202 229 OFFCURVE",
"1163 263 OFFCURVE",
"1107 263 CURVE SMOOTH",
"1014 263 OFFCURVE",
"949 167 OFFCURVE",
"949 87 CURVE SMOOTH",
"949 31 OFFCURVE",
"981 -18 OFFCURVE",
"1056 -18 CURVE SMOOTH"
);
}
);
};
components = (
{
name = "CC-U-kannada";
transform = "{1, 0, 0, 1, 30, 0}";
}
);
layerId = "EC914A54-70CA-49EC-BB14-E6FF6194F720";
name = "Regular Sep 20 15, 10:44";
paths = (
{
closed = 1;
nodes = (
"520 234 LINE",
"569 332 OFFCURVE",
"599 427 OFFCURVE",
"650 427 CURVE SMOOTH",
"669 427 OFFCURVE",
"677 414 OFFCURVE",
"677 391 CURVE SMOOTH",
"677 289 OFFCURVE",
"518 138 OFFCURVE",
"518 31 CURVE SMOOTH",
"518 -18 OFFCURVE",
"552 -54 OFFCURVE",
"612 -54 CURVE SMOOTH",
"717 -54 OFFCURVE",
"794 54 OFFCURVE",
"868 161 CURVE SMOOTH",
"947 275 OFFCURVE",
"999 363 OFFCURVE",
"1088 363 CURVE SMOOTH",
"1152 363 OFFCURVE",
"1232 317 OFFCURVE",
"1232 200 CURVE SMOOTH",
"1232 134 OFFCURVE",
"1202 72 OFFCURVE",
"1106 72 CURVE SMOOTH",
"1043 72 OFFCURVE",
"982 -18 OFFCURVE",
"1056 -18 CURVE SMOOTH",
"1164 -18 OFFCURVE",
"1301 83 OFFCURVE",
"1301 257 CURVE SMOOTH",
"1301 370 OFFCURVE",
"1248 463 OFFCURVE",
"1132 463 CURVE SMOOTH",
"1003 463 OFFCURVE",
"906 349 OFFCURVE",
"813 210 CURVE SMOOTH",
"752 120 OFFCURVE",
"721 55 OFFCURVE",
"664 55 CURVE SMOOTH",
"640 55 OFFCURVE",
"628 66 OFFCURVE",
"628 92 CURVE SMOOTH",
"628 185 OFFCURVE",
"777 321 OFFCURVE",
"777 437 CURVE SMOOTH",
"777 488 OFFCURVE",
"749 523 OFFCURVE",
"694 523 CURVE SMOOTH",
"571 523 OFFCURVE",
"502 360 OFFCURVE",
"447 245 CURVE"
);
},
{
closed = 1;
nodes = (
"1175 -18 OFFCURVE",
"1192 72 OFFCURVE",
"1106 72 CURVE SMOOTH",
"1046 72 OFFCURVE",
"1021 105 OFFCURVE",
"1021 131 CURVE SMOOTH",
"1021 152 OFFCURVE",
"1037 170 OFFCURVE",
"1068 170 CURVE SMOOTH",
"1107 170 OFFCURVE",
"1152 140 OFFCURVE",
"1152 82 CURVE SMOOTH",
"1152 67 OFFCURVE",
"1149 52 OFFCURVE",
"1142 35 CURVE",
"1189 75 LINE",
"1198 106 OFFCURVE",
"1202 132 OFFCURVE",
"1202 155 CURVE SMOOTH",
"1202 229 OFFCURVE",
"1163 263 OFFCURVE",
"1107 263 CURVE SMOOTH",
"1014 263 OFFCURVE",
"949 167 OFFCURVE",
"949 87 CURVE SMOOTH",
"949 31 OFFCURVE",
"981 -18 OFFCURVE",
"1056 -18 CURVE SMOOTH"
);
}
);
width = 1331;
}
);
leftKerningGroup = knLA;
leftMetricsKey = knLA;
rightKerningGroup = knUU;
unicode = 0C8A;
},
{
color = 4;
glyphname = knvR;
lastChange = "2015-11-08 18:00:46 +0000";
layers = (
{
components = (
{
disableAlignment = 1;
name = "CC-knmU";
transform = "{1, 0, 0, 1, 831, 0}";
}
);
layerId = "59118767-2CA9-48AA-9373-694D24C960D8";
name = Regular;
paths = (
{
closed = 1;
nodes = (
"321 51 LINE",
"342 11 OFFCURVE",
"369 -13 OFFCURVE",
"441 -13 CURVE SMOOTH",
"554 -13 OFFCURVE",
"706 126 OFFCURVE",
"706 301 CURVE SMOOTH",
"706 439 OFFCURVE",
"563 485 OFFCURVE",
"473 424 CURVE",
"464 411 OFFCURVE",
"457 390 OFFCURVE",
"457 374 CURVE SMOOTH",
"457 359 OFFCURVE",
"463 347 OFFCURVE",
"475 348 CURVE SMOOTH",
"533 355 OFFCURVE",
"618 343 OFFCURVE",
"618 235 CURVE SMOOTH",
"618 141 OFFCURVE",
"537 82 OFFCURVE",
"480 82 CURVE SMOOTH",
"416 82 OFFCURVE",
"384 105 OFFCURVE",
"368 140 CURVE"
);
},
{
closed = 1;
nodes = (
"508 394 LINE",
"551 469 OFFCURVE",
"631 539 OFFCURVE",
"712 539 CURVE SMOOTH",
"732 539 OFFCURVE",
"753 535 OFFCURVE",
"764 526 CURVE SMOOTH",
"781 512 OFFCURVE",
"785 506 OFFCURVE",
"792 506 CURVE SMOOTH",
"826 506 OFFCURVE",
"868 549 OFFCURVE",
"868 585 CURVE SMOOTH",
"868 611 OFFCURVE",
"849 635 OFFCURVE",
"794 635 CURVE SMOOTH",
"729 635 OFFCURVE",
"610 593 OFFCURVE",
"505 472 CURVE SMOOTH",
"489 454 OFFCURVE",
"477 434 OFFCURVE",
"467 415 CURVE"
);
},
{
closed = 1;
nodes = (
"284 -136 OFFCURVE",
"422 66 OFFCURVE",
"422 261 CURVE SMOOTH",
"422 373 OFFCURVE",
"370 463 OFFCURVE",
"259 463 CURVE SMOOTH",
"148 463 OFFCURVE",
"43 373 OFFCURVE",
"43 250 CURVE SMOOTH",
"43 177 OFFCURVE",
"80 151 OFFCURVE",
"124 151 CURVE SMOOTH",
"193 151 OFFCURVE",
"280 214 OFFCURVE",
"280 316 CURVE SMOOTH",
"280 354 OFFCURVE",
"268 393 OFFCURVE",
"239 436 CURVE",
"216 372 LINE",
"312 364 OFFCURVE",
"355 290 OFFCURVE",
"355 208 CURVE SMOOTH",
"355 94 OFFCURVE",
"272 -37 OFFCURVE",
"156 -37 CURVE SMOOTH",
"122 -37 OFFCURVE",
"107 -18 OFFCURVE",
"107 4 CURVE SMOOTH",
"107 29 OFFCURVE",
"129 58 OFFCURVE",
"167 58 CURVE SMOOTH",
"214 58 OFFCURVE",
"268 9 OFFCURVE",
"243 -46 CURVE",
"299 15 LINE",
"336 70 OFFCURVE",
"281 134 OFFCURVE",
"226 134 CURVE SMOOTH",
"127 134 OFFCURVE",
"27 57 OFFCURVE",
"27 -55 CURVE SMOOTH",
"27 -102 OFFCURVE",
"60 -136 OFFCURVE",
"131 -136 CURVE SMOOTH"
);
},
{
closed = 1;
nodes = (
"141 225 OFFCURVE",
"110 252 OFFCURVE",
"110 300 CURVE SMOOTH",
"111 348 OFFCURVE",
"138 373 OFFCURVE",
"165 373 CURVE SMOOTH",
"193 373 OFFCURVE",
"221 346 OFFCURVE",
"221 295 CURVE SMOOTH",
"221 247 OFFCURVE",
"197 225 OFFCURVE",
"170 225 CURVE SMOOTH"
);
}
);
width = 1022;
},
{
associatedMasterId = "59118767-2CA9-48AA-9373-694D24C960D8";
components = (
{
name = "CC_headstroke-kannada";
transform = "{1, 0, 0, 1, 463, 7}";
},
{
name = "CC-knmU";
transform = "{1, 0, 0, 0.878, 784, -2}";
},
{
name = "CC-kha";
transform = "{1, 0, 0, 1, 30, 0}";
}
);
layerId = "50F72BA7-0687-42C4-AB06-6E07F3B1AD60";
name = "Regular Sep 20 15, 10:46";
paths = (
{
closed = 1;
nodes = (
"268 63 LINE",
"319 11 OFFCURVE",
"387 -14 OFFCURVE",
"458 -14 CURVE SMOOTH",
"636 -14 OFFCURVE",
"700 139 OFFCURVE",
"700 263 CURVE SMOOTH",
"700 383 OFFCURVE",
"603 463 OFFCURVE",
"473 377 CURVE",
"463 359 OFFCURVE",
"463 353 OFFCURVE",
"463 342 CURVE SMOOTH",
"463 322 OFFCURVE",
"474 311 OFFCURVE",
"490 315 CURVE SMOOTH",
"589 340 OFFCURVE",
"637 289 OFFCURVE",
"637 200 CURVE SMOOTH",
"637 130 OFFCURVE",
"577 87 OFFCURVE",
"501 87 CURVE SMOOTH",
"447 87 OFFCURVE",
"411 87 OFFCURVE",
"337 128 CURVE"
);
}
);
width = 1028;
},
{
associatedMasterId = "59118767-2CA9-48AA-9373-694D24C960D8";
components = (
{
name = "CC-knmU";
transform = "{1, 0, 0, 0.878, 819, 0}";
},
{
name = "CC-kha";
transform = "{1, 0, 0, 1, 30, 0}";
},
{
name = "CC_headstroke-kannada";
transform = "{1, 0, 0, 1, 460, 7}";
}
);
layerId = "C3FA58D5-6AAD-476F-9D4D-0CA3384038D1";
name = "Regular Sep 20 15, 10:47";
paths = (
{
closed = 1;
nodes = (
"555 426 OFFCURVE",
"514 411 OFFCURVE",
"470 377 CURVE",
"460 359 OFFCURVE",
"460 353 OFFCURVE",
"460 342 CURVE SMOOTH",
"460 322 OFFCURVE",
"471 311 OFFCURVE",
"487 315 CURVE SMOOTH",
"504 319 OFFCURVE",
"520 321 OFFCURVE",
"534 321 CURVE SMOOTH",
"580 321 OFFCURVE",
"618 299 OFFCURVE",
"618 239 CURVE SMOOTH",
"618 131 OFFCURVE",
"518 90 OFFCURVE",
"453 90 CURVE SMOOTH",
"399 90 OFFCURVE",
"364 119 OFFCURVE",
"351 164 CURVE",
"281 60 LINE",
"305 16 OFFCURVE",
"347 -13 OFFCURVE",
"412 -13 CURVE SMOOTH",
"575 -13 OFFCURVE",
"704 153 OFFCURVE",
"704 300 CURVE SMOOTH",
"704 390 OFFCURVE",
"651 426 OFFCURVE",
"591 426 CURVE SMOOTH"
);
}
);
width = 1235;
},
{
associatedMasterId = "59118767-2CA9-48AA-9373-694D24C960D8";
components = (
{
name = "CC-knmU";
transform = "{1, 0, 0, 0.878, 829, 0}";
},
{
name = "CC-kha";
transform = "{1, 0, 0, 1, 30, 0}";
},
{
name = "CC_headstroke-kannada";
transform = "{1, 0, 0, 1, 470, 7}";
}
);
layerId = "F998A815-B23F-48F4-A1FC-BA11518D0100";
name = "Regular Sep 20 15, 10:49";
paths = (
{
closed = 1;
nodes = (
"309 29 LINE",
"353 1 OFFCURVE",
"397 -12 OFFCURVE",
"441 -12 CURVE SMOOTH",
"586 -12 OFFCURVE",
"714 130 OFFCURVE",
"714 300 CURVE SMOOTH",
"714 390 OFFCURVE",
"661 426 OFFCURVE",
"601 426 CURVE SMOOTH",
"565 426 OFFCURVE",
"524 411 OFFCURVE",
"480 377 CURVE",
"470 359 OFFCURVE",
"470 353 OFFCURVE",
"470 342 CURVE SMOOTH",
"470 322 OFFCURVE",
"481 311 OFFCURVE",
"497 315 CURVE SMOOTH",
"514 319 OFFCURVE",
"530 321 OFFCURVE",
"544 321 CURVE SMOOTH",
"590 321 OFFCURVE",
"628 299 OFFCURVE",
"628 239 CURVE SMOOTH",
"628 131 OFFCURVE",
"528 90 OFFCURVE",
"463 90 CURVE SMOOTH",
"411 90 OFFCURVE",
"384 102 OFFCURVE",
"357 115 CURVE"
);
}
);
width = 1235;
}
);
leftKerningGroup = knKHA;
leftMetricsKey = knKHA;
rightKerningGroup = knJHA;
rightMetricsKey = knJHA;
unicode = 0C8B;
},
{
color = 4;
glyphname = knvRR;
lastChange = "2015-11-08 18:00:46 +0000";
layers = (
{
layerId = "59118767-2CA9-48AA-9373-694D24C960D8";
name = Regular;
paths = (
{
closed = 1;
nodes = (
"568 72 LINE",
"581 14 OFFCURVE",
"630 -14 OFFCURVE",
"686 -14 CURVE SMOOTH",
"794 -14 OFFCURVE",
"846 87 OFFCURVE",
"907 197 CURVE SMOOTH",
"960 292 OFFCURVE",
"1006 363 OFFCURVE",
"1085 363 CURVE SMOOTH",
"1149 363 OFFCURVE",
"1229 317 OFFCURVE",
"1229 200 CURVE SMOOTH",
"1229 147 OFFCURVE",
"1199 72 OFFCURVE",
"1103 72 CURVE SMOOTH",
"1040 72 OFFCURVE",
"979 -18 OFFCURVE",
"1053 -18 CURVE SMOOTH",
"1151 -18 OFFCURVE",
"1298 83 OFFCURVE",
"1298 257 CURVE SMOOTH",
"1298 370 OFFCURVE",
"1245 463 OFFCURVE",
"1129 463 CURVE SMOOTH",
"1008 463 OFFCURVE",
"919 361 OFFCURVE",
"853 237 CURVE SMOOTH",
"802 141 OFFCURVE",
"781 89 OFFCURVE",
"711 89 CURVE SMOOTH",
"675 89 OFFCURVE",
"639 115 OFFCURVE",
"635 150 CURVE"
);
},
{
closed = 1;
nodes = (
"1152 -18 OFFCURVE",
"1179 72 OFFCURVE",
"1093 72 CURVE SMOOTH",
"1033 72 OFFCURVE",
"1008 105 OFFCURVE",
"1008 131 CURVE SMOOTH",
"1008 152 OFFCURVE",
"1024 170 OFFCURVE",
"1055 170 CURVE SMOOTH",
"1094 170 OFFCURVE",
"1139 140 OFFCURVE",
"1139 82 CURVE SMOOTH",
"1139 67 OFFCURVE",
"1136 52 OFFCURVE",
"1129 35 CURVE",
"1176 75 LINE",
"1217 149 OFFCURVE",
"1187 263 OFFCURVE",
"1094 263 CURVE SMOOTH",
"1001 263 OFFCURVE",
"936 167 OFFCURVE",
"936 87 CURVE SMOOTH",
"936 31 OFFCURVE",
"968 -18 OFFCURVE",
"1043 -18 CURVE SMOOTH"
);
},
{
closed = 1;
nodes = (
"321 51 LINE",
"342 11 OFFCURVE",
"369 -13 OFFCURVE",
"441 -13 CURVE SMOOTH",
"554 -13 OFFCURVE",
"706 126 OFFCURVE",
"706 301 CURVE SMOOTH",
"706 439 OFFCURVE",
"563 485 OFFCURVE",
"473 424 CURVE",
"464 411 OFFCURVE",
"457 390 OFFCURVE",
"457 374 CURVE SMOOTH",
"457 359 OFFCURVE",
"463 347 OFFCURVE",
"475 348 CURVE SMOOTH",
"533 355 OFFCURVE",
"618 343 OFFCURVE",
"618 235 CURVE SMOOTH",
"618 141 OFFCURVE",
"537 82 OFFCURVE",
"480 82 CURVE SMOOTH",
"416 82 OFFCURVE",
"384 105 OFFCURVE",
"368 140 CURVE"
);
},
{
closed = 1;
nodes = (
"508 394 LINE",
"551 469 OFFCURVE",
"631 539 OFFCURVE",
"712 539 CURVE SMOOTH",
"732 539 OFFCURVE",
"753 535 OFFCURVE",
"764 526 CURVE SMOOTH",
"781 512 OFFCURVE",
"785 506 OFFCURVE",
"792 506 CURVE SMOOTH",
"826 506 OFFCURVE",
"868 549 OFFCURVE",
"868 585 CURVE SMOOTH",
"868 611 OFFCURVE",
"849 635 OFFCURVE",
"794 635 CURVE SMOOTH",
"729 635 OFFCURVE",
"610 593 OFFCURVE",
"505 472 CURVE SMOOTH",
"489 454 OFFCURVE",
"477 434 OFFCURVE",
"467 415 CURVE"
);
},
{
closed = 1;
nodes = (
"284 -136 OFFCURVE",
"422 66 OFFCURVE",
"422 261 CURVE SMOOTH",
"422 373 OFFCURVE",
"370 463 OFFCURVE",
"259 463 CURVE SMOOTH",
"148 463 OFFCURVE",
"43 373 OFFCURVE",
"43 250 CURVE SMOOTH",
"43 177 OFFCURVE",
"80 151 OFFCURVE",
"124 151 CURVE SMOOTH",
"193 151 OFFCURVE",
"280 214 OFFCURVE",
"280 316 CURVE SMOOTH",
"280 354 OFFCURVE",
"268 393 OFFCURVE",
"239 436 CURVE",
"216 372 LINE",
"312 364 OFFCURVE",
"355 290 OFFCURVE",
"355 208 CURVE SMOOTH",
"355 94 OFFCURVE",
"272 -37 OFFCURVE",
"156 -37 CURVE SMOOTH",
"122 -37 OFFCURVE",
"107 -18 OFFCURVE",
"107 4 CURVE SMOOTH",
"107 29 OFFCURVE",
"129 58 OFFCURVE",
"167 58 CURVE SMOOTH",
"214 58 OFFCURVE",
"268 9 OFFCURVE",
"243 -46 CURVE",
"299 15 LINE",
"336 70 OFFCURVE",
"281 134 OFFCURVE",
"226 134 CURVE SMOOTH",
"127 134 OFFCURVE",
"27 57 OFFCURVE",
"27 -55 CURVE SMOOTH",
"27 -102 OFFCURVE",
"60 -136 OFFCURVE",
"131 -136 CURVE SMOOTH"
);
},
{
closed = 1;
nodes = (
"141 225 OFFCURVE",
"110 252 OFFCURVE",
"110 300 CURVE SMOOTH",
"111 348 OFFCURVE",
"138 373 OFFCURVE",
"165 373 CURVE SMOOTH",
"193 373 OFFCURVE",
"221 346 OFFCURVE",
"221 295 CURVE SMOOTH",
"221 247 OFFCURVE",
"197 225 OFFCURVE",
"170 225 CURVE SMOOTH"
);
}
);
width = 1328;
}
);
leftKerningGroup = knKHA;
leftMetricsKey = knKHA;
rightKerningGroup = knUU;
rightMetricsKey = knUU;
unicode = 0CE0;
},
{
color = 4;
glyphname = knvL;
lastChange = "2015-11-08 17:39:48 +0000";
layers = (
{
layerId = "59118767-2CA9-48AA-9373-694D24C960D8";
name = Regular;
paths = (
{
closed = 1;
nodes = (
"606 613 OFFCURVE",
"570 551 OFFCURVE",
"570 529 CURVE SMOOTH",
"570 516 OFFCURVE",
"576 511 OFFCURVE",
"587 506 CURVE SMOOTH",
"644 479 OFFCURVE",
"681 408 OFFCURVE",
"681 308 CURVE SMOOTH",
"681 145 OFFCURVE",
"523 37 OFFCURVE",
"318 37 CURVE SMOOTH",
"244 37 OFFCURVE",
"206 51 OFFCURVE",
"206 85 CURVE SMOOTH",
"206 119 OFFCURVE",
"245 141 OFFCURVE",
"309 159 CURVE SMOOTH",
"431 194 OFFCURVE",
"556 256 OFFCURVE",
"556 392 CURVE SMOOTH",
"556 451 OFFCURVE",
"523 501 OFFCURVE",
"456 501 CURVE SMOOTH",
"399 501 OFFCURVE",
"323 462 OFFCURVE",
"277 384 CURVE",
"316 383 LINE",
"290 441 OFFCURVE",
"241 466 OFFCURVE",
"194 466 CURVE SMOOTH",
"98 466 OFFCURVE",
"15 365 OFFCURVE",
"15 326 CURVE SMOOTH",
"15 308 OFFCURVE",
"33 297 OFFCURVE",
"47 297 CURVE SMOOTH",
"55 297 OFFCURVE",
"61 300 OFFCURVE",
"64 304 CURVE SMOOTH",
"95 346 OFFCURVE",
"109 368 OFFCURVE",
"153 368 CURVE SMOOTH",
"232 368 OFFCURVE",
"217 297 OFFCURVE",
"237 286 CURVE SMOOTH",
"240 284 OFFCURVE",
"250 282 OFFCURVE",
"255 282 CURVE SMOOTH",
"264 282 OFFCURVE",
"271 287 OFFCURVE",
"282 300 CURVE SMOOTH",
"310 334 OFFCURVE",
"344 398 OFFCURVE",
"403 398 CURVE SMOOTH",
"437 398 OFFCURVE",
"464 376 OFFCURVE",
"464 339 CURVE SMOOTH",
"464 279 OFFCURVE",
"396 256 OFFCURVE",
"320 231 CURVE SMOOTH",
"215 197 OFFCURVE",
"104 163 OFFCURVE",
"104 61 CURVE SMOOTH",
"104 -17 OFFCURVE",
"169 -53 OFFCURVE",
"288 -53 CURVE SMOOTH",
"533 -53 OFFCURVE",
"771 109 OFFCURVE",
"771 366 CURVE SMOOTH",
"771 498 OFFCURVE",
"720 613 OFFCURVE",
"643 613 CURVE SMOOTH"
);
}
);
width = 786;
}
);
leftKerningGroup = knI;
rightKerningGroup = knvL;
unicode = 0C8C;
},
{
color = 4;
glyphname = knE;
lastChange = "2015-11-08 17:39:53 +0000";
layers = (
{
components = (
{
name = "CC-pa-kannada";
transform = "{1, 0, 0, 1, 10, 0}";
}
);
layerId = "59118767-2CA9-48AA-9373-694D24C960D8";
name = Regular;
paths = (
{
closed = 1;
nodes = (
"548 -13 OFFCURVE",
"639 110 OFFCURVE",
"639 249 CURVE SMOOTH",
"639 443 OFFCURVE",
"513 525 OFFCURVE",
"348 525 CURVE SMOOTH",
"269 525 OFFCURVE",
"176 500 OFFCURVE",
"91 442 CURVE",
"89 434 OFFCURVE",
"88 424 OFFCURVE",
"88 415 CURVE SMOOTH",
"88 392 OFFCURVE",
"104 370 OFFCURVE",
"125 370 CURVE SMOOTH",
"146 370 OFFCURVE",
"192 422 OFFCURVE",
"301 422 CURVE SMOOTH",
"415 422 OFFCURVE",
"563 370 OFFCURVE",
"563 197 CURVE SMOOTH",
"563 130 OFFCURVE",
"535 83 OFFCURVE",
"481 83 CURVE SMOOTH",
"443 83 OFFCURVE",
"403 105 OFFCURVE",
"386 157 CURVE",
"316 73 LINE",
"331 15 OFFCURVE",
"376 -13 OFFCURVE",
"419 -13 CURVE SMOOTH"
);
}
);
width = 676;
}
);
leftKerningGroup = knVA;
rightKerningGroup = knDA;
rightMetricsKey = knDA;
unicode = 0C8E;
},
{
color = 4;
glyphname = knEE;
lastChange = "2015-12-12 16:47:49 +0000";
layers = (
{
components = (
{
name = "CC-pa-kannada";
}
);
layerId = "59118767-2CA9-48AA-9373-694D24C960D8";
name = Regular;
paths = (
{
closed = 1;
nodes = (
"226 327 LINE",
"354 332 OFFCURVE",
"547 287 OFFCURVE",
"547 151 CURVE SMOOTH",
"547 115 OFFCURVE",
"515 83 OFFCURVE",
"471 83 CURVE SMOOTH",
"433 83 OFFCURVE",
"393 105 OFFCURVE",
"376 157 CURVE",
"306 73 LINE",
"321 15 OFFCURVE",
"366 -13 OFFCURVE",
"409 -13 CURVE SMOOTH",
"544 -13 OFFCURVE",
"628 107 OFFCURVE",
"628 217 CURVE SMOOTH",
"628 383 OFFCURVE",
"450 431 OFFCURVE",
"269 425 CURVE"
);
},
{
closed = 1;
nodes = (
"304 426 LINE",
"249 425 OFFCURVE",
"204 427 OFFCURVE",
"204 474 CURVE SMOOTH",
"204 493 OFFCURVE",
"220 520 OFFCURVE",
"245 538 CURVE SMOOTH",
"272 557 OFFCURVE",
"305 567 OFFCURVE",
"346 567 CURVE SMOOTH",
"383 567 OFFCURVE",
"412 582 OFFCURVE",
"435 615 CURVE SMOOTH",
"460 652 OFFCURVE",
"452 675 OFFCURVE",
"405 675 CURVE SMOOTH",
"261 675 OFFCURVE",
"112 523 OFFCURVE",
"112 418 CURVE SMOOTH",
"112 332 OFFCURVE",
"183 325 OFFCURVE",
"269 327 CURVE"
);
}
);
width = 665;
},
{
associatedMasterId = "59118767-2CA9-48AA-9373-694D24C960D8";
components = (
{
name = "CC-pa-kannada";
}
);
layerId = "820C9F5B-B448-414B-9F17-754B50EADABE";
name = "Regular Dec 12 15, 22:16";
paths = (
{
closed = 1;
nodes = (
"226 327 LINE",
"354 332 OFFCURVE",
"547 287 OFFCURVE",
"547 151 CURVE SMOOTH",
"547 115 OFFCURVE",
"515 83 OFFCURVE",
"471 83 CURVE SMOOTH",
"433 83 OFFCURVE",
"393 105 OFFCURVE",
"376 157 CURVE",
"306 73 LINE",
"321 15 OFFCURVE",
"366 -13 OFFCURVE",
"409 -13 CURVE SMOOTH",
"544 -13 OFFCURVE",
"628 107 OFFCURVE",
"628 217 CURVE SMOOTH",
"628 383 OFFCURVE",
"450 431 OFFCURVE",
"269 425 CURVE"
);
},
{
closed = 1;
nodes = (
"304 426 LINE",
"249 425 OFFCURVE",
"204 427 OFFCURVE",
"204 474 CURVE SMOOTH",
"204 513 OFFCURVE",
"271 532 OFFCURVE",
"346 532 CURVE SMOOTH",
"392 532 OFFCURVE",
"437 520 OFFCURVE",
"464 495 CURVE SMOOTH",
"495 467 OFFCURVE",
"509 480 OFFCURVE",
"537 521 CURVE SMOOTH",
"568 567 OFFCURVE",
"533 635 OFFCURVE",
"405 635 CURVE SMOOTH",
"261 635 OFFCURVE",
"112 514 OFFCURVE",
"112 418 CURVE SMOOTH",
"112 332 OFFCURVE",
"183 325 OFFCURVE",
"269 327 CURVE"
);
}
);
width = 665;
}
);
leftKerningGroup = knEE;
leftMetricsKey = knPA;
rightKerningGroup = knDA;
rightMetricsKey = knDA;
unicode = 0C8F;
},
{
color = 4;
glyphname = knAI;
lastChange = "2015-11-08 17:40:04 +0000";
layers = (
{
associatedMasterId = "59118767-2CA9-48AA-9373-694D24C960D8";
background = {
components = (
{
name = "CC_Ofirsthalf-kannada";
transform = "{1, 0, 0, 1, 66, 0}";
}
);
paths = (
{
closed = 1;
nodes = (
"676 281 OFFCURVE",
"661 312 OFFCURVE",
"633 312 CURVE SMOOTH",
"590 312 OFFCURVE",
"555 235 OFFCURVE",
"555 215 CURVE SMOOTH",
"555 196 OFFCURVE",
"589 188 OFFCURVE",
"589 148 CURVE SMOOTH",
"589 108 OFFCURVE",
"545 83 OFFCURVE",
"502 83 CURVE SMOOTH",
"454 83 OFFCURVE",
"419 114 OFFCURVE",
"406 157 CURVE",
"335 78 LINE",
"340 15 OFFCURVE",
"384 -14 OFFCURVE",
"443 -14 CURVE SMOOTH",
"559 -14 OFFCURVE",
"676 97 OFFCURVE",
"676 232 CURVE SMOOTH"
);
}
);
};
components = (
{
name = "CC-pa-kannada";
transform = "{1, 0, 0, 1, 30, 0}";
}
);
layerId = "87AFE3C8-61B8-4D4E-A421-7DA5506FFF4B";
name = "Regular Sep 20 15, 11:31";
paths = (
{
closed = 1;
nodes = (
"640 55 OFFCURVE",
"689 135 CURVE SMOOTH",
"776 277 OFFCURVE",
"754 523 OFFCURVE",
"610 523 CURVE SMOOTH",
"521 523 OFFCURVE",
"448 431 OFFCURVE",
"406 362 CURVE",
"438 365 LINE",
"394 440 OFFCURVE",
"339 464 OFFCURVE",
"285 464 CURVE SMOOTH",
"204 464 OFFCURVE",
"103 361 OFFCURVE",
"103 316 CURVE SMOOTH",
"103 303 OFFCURVE",
"111 295 OFFCURVE",
"129 295 CURVE SMOOTH",
"148 295 OFFCURVE",
"158 311 OFFCURVE",
"172 327 CURVE SMOOTH",
"193 353 OFFCURVE",
"226 369 OFFCURVE",
"251 369 CURVE SMOOTH",
"308 369 OFFCURVE",
"353 282 OFFCURVE",
"383 282 CURVE SMOOTH",
"403 282 OFFCURVE",
"425 308 OFFCURVE",
"448 339 CURVE SMOOTH",
"484 387 OFFCURVE",
"520 409 OFFCURVE",
"554 409 CURVE SMOOTH",
"634 409 OFFCURVE",
"693 297 OFFCURVE",
"638 173 CURVE SMOOTH",
"615 120 OFFCURVE",
"566 83 OFFCURVE",
"510 83 CURVE SMOOTH",
"470 83 OFFCURVE",
"425 101 OFFCURVE",
"406 157 CURVE",
"336 73 LINE",
"353 12 OFFCURVE",
"404 -13 OFFCURVE",
"464 -13 CURVE SMOOTH",
"556 -13 OFFCURVE"
);
}
);
width = 767;
},
{
associatedMasterId = "59118767-2CA9-48AA-9373-694D24C960D8";
background = {
paths = (
{
closed = 1;
nodes = (
"618 -13 OFFCURVE",
"709 110 OFFCURVE",
"709 249 CURVE SMOOTH",
"709 443 OFFCURVE",
"583 525 OFFCURVE",
"418 525 CURVE SMOOTH",
"339 525 OFFCURVE",
"256 500 OFFCURVE",
"161 442 CURVE",
"159 434 OFFCURVE",
"158 424 OFFCURVE",
"158 415 CURVE SMOOTH",
"158 392 OFFCURVE",
"174 370 OFFCURVE",
"195 370 CURVE SMOOTH",
"216 370 OFFCURVE",
"262 422 OFFCURVE",
"371 422 CURVE SMOOTH",
"485 422 OFFCURVE",
"633 370 OFFCURVE",
"633 197 CURVE SMOOTH",
"633 130 OFFCURVE",
"605 83 OFFCURVE",
"551 83 CURVE SMOOTH",
"513 83 OFFCURVE",
"473 105 OFFCURVE",
"456 157 CURVE",
"386 73 LINE",
"401 15 OFFCURVE",
"446 -13 OFFCURVE",
"489 -13 CURVE SMOOTH"
);
}
);
};
components = (
{
name = "CC-pa-kannada";
transform = "{1, 0, 0, 1, 30, 0}";
}
);
guideLines = (
{
position = "{580, 417}";
}
);
layerId = "32F28D95-DBD8-4817-BFF3-0B8144F56337";
name = "Regular Sep 20 15, 11:37";
paths = (
{
closed = 1;
nodes = (
"714 152 OFFCURVE",
"714 298 CURVE SMOOTH",
"714 416 OFFCURVE",
"658 522 OFFCURVE",
"543 522 CURVE SMOOTH",
"480 522 OFFCURVE",
"411 478 OFFCURVE",
"356 388 CURVE",
"388 391 LINE",
"314 517 OFFCURVE",
"101 468 OFFCURVE",
"53 315 CURVE SMOOTH",
"49 302 OFFCURVE",
"61 294 OFFCURVE",
"79 294 CURVE SMOOTH",
"98 294 OFFCURVE",
"108 310 OFFCURVE",
"122 326 CURVE SMOOTH",
"145 355 OFFCURVE",
"177 367 OFFCURVE",
"207 367 CURVE SMOOTH",
"273 367 OFFCURVE",
"312 308 OFFCURVE",
"333 308 CURVE SMOOTH",
"353 308 OFFCURVE",
"375 334 OFFCURVE",
"398 365 CURVE SMOOTH",
"425 401 OFFCURVE",
"458 416 OFFCURVE",
"491 416 CURVE SMOOTH",
"563 416 OFFCURVE",
"634 343 OFFCURVE",
"634 225 CURVE SMOOTH",
"634 165 OFFCURVE",
"595 83 OFFCURVE",
"510 83 CURVE SMOOTH",
"470 83 OFFCURVE",
"425 101 OFFCURVE",
"406 157 CURVE",
"336 73 LINE",
"353 12 OFFCURVE",
"404 -13 OFFCURVE",
"464 -13 CURVE SMOOTH",
"628 -13 OFFCURVE"
);
}
);
width = 767;
},
{
associatedMasterId = "59118767-2CA9-48AA-9373-694D24C960D8";
background = {
paths = (
{
closed = 1;
nodes = (
"127 336 LINE",
"116 416 OFFCURVE",
"157 450 OFFCURVE",
"205 450 CURVE SMOOTH",
"260 450 OFFCURVE",
"324 404 OFFCURVE",
"324 332 CURVE SMOOTH",
"324 308 OFFCURVE",
"330 302 OFFCURVE",
"343 302 CURVE SMOOTH",
"380 302 OFFCURVE",
"406 366 OFFCURVE",
"491 366 CURVE SMOOTH",
"555 366 OFFCURVE",
"635 317 OFFCURVE",
"635 200 CURVE SMOOTH",
"635 160 OFFCURVE",
"624 122 OFFCURVE",
"594 98 CURVE",
"566 82 LINE",
"552 75 OFFCURVE",
"531 72 OFFCURVE",
"509 72 CURVE SMOOTH",
"441 72 OFFCURVE",
"418 115 OFFCURVE",
"425 141 CURVE",
"353 103 LINE",
"346 41 OFFCURVE",
"377 -18 OFFCURVE",
"459 -18 CURVE SMOOTH",
"483 -18 OFFCURVE",
"502 -14 OFFCURVE",
"518 -9 CURVE SMOOTH",
"611 20 OFFCURVE",
"704 114 OFFCURVE",
"704 257 CURVE SMOOTH",
"704 370 OFFCURVE",
"651 463 OFFCURVE",
"535 463 CURVE SMOOTH",
"479 463 OFFCURVE",
"425 443 OFFCURVE",
"374 393 CURVE",
"420 391 LINE",
"382 485 OFFCURVE",
"310 523 OFFCURVE",
"223 523 CURVE SMOOTH",
"127 523 OFFCURVE",
"27 427 OFFCURVE",
"38 311 CURVE"
);
}
);
};
components = (
{
name = "CC-pa-kannada";
transform = "{1, 0, 0, 1, 30, 0}";
}
);
guideLines = (
{
position = "{580, 417}";
}
);
layerId = "A187E136-6FC2-4980-9C8A-1E315D0D1E9C";
name = "Regular Sep 20 15, 11:43";
paths = (
{
closed = 1;
nodes = (
"714 152 OFFCURVE",
"714 298 CURVE SMOOTH",
"714 485 OFFCURVE",
"385 513 OFFCURVE",
"356 388 CURVE",
"388 391 LINE",
"355 529 OFFCURVE",
"132 637 OFFCURVE",
"53 325 CURVE SMOOTH",
"50 312 OFFCURVE",
"61 304 OFFCURVE",
"79 304 CURVE SMOOTH",
"98 304 OFFCURVE",
"110 318 OFFCURVE",
"122 336 CURVE SMOOTH",
"176 417 OFFCURVE",
"253 450 OFFCURVE",
"300 368 CURVE SMOOTH",
"317 338 OFFCURVE",
"325 308 OFFCURVE",
"333 308 CURVE SMOOTH",
"353 308 OFFCURVE",
"375 314 OFFCURVE",
"398 345 CURVE SMOOTH",
"441 403 OFFCURVE",
"634 389 OFFCURVE",
"634 225 CURVE SMOOTH",
"634 165 OFFCURVE",
"595 83 OFFCURVE",
"510 83 CURVE SMOOTH",
"470 83 OFFCURVE",
"425 101 OFFCURVE",
"406 157 CURVE",
"336 73 LINE",
"353 12 OFFCURVE",
"404 -13 OFFCURVE",
"464 -13 CURVE SMOOTH",
"628 -13 OFFCURVE"
);
}
);
width = 767;
},
{
associatedMasterId = "59118767-2CA9-48AA-9373-694D24C960D8";
background = {
paths = (
{
closed = 1;
nodes = (
"127 336 LINE",
"116 416 OFFCURVE",
"157 450 OFFCURVE",
"205 450 CURVE SMOOTH",
"260 450 OFFCURVE",
"324 404 OFFCURVE",
"324 332 CURVE SMOOTH",
"324 308 OFFCURVE",
"330 302 OFFCURVE",
"343 302 CURVE SMOOTH",
"380 302 OFFCURVE",
"406 366 OFFCURVE",
"491 366 CURVE SMOOTH",
"555 366 OFFCURVE",
"635 317 OFFCURVE",
"635 200 CURVE SMOOTH",
"635 160 OFFCURVE",
"624 122 OFFCURVE",
"594 98 CURVE",
"566 82 LINE",
"552 75 OFFCURVE",
"531 72 OFFCURVE",
"509 72 CURVE SMOOTH",
"441 72 OFFCURVE",
"418 115 OFFCURVE",
"425 141 CURVE",
"353 103 LINE",
"346 41 OFFCURVE",
"377 -18 OFFCURVE",
"459 -18 CURVE SMOOTH",
"483 -18 OFFCURVE",
"502 -14 OFFCURVE",
"518 -9 CURVE SMOOTH",
"611 20 OFFCURVE",
"704 114 OFFCURVE",
"704 257 CURVE SMOOTH",
"704 370 OFFCURVE",
"651 463 OFFCURVE",
"535 463 CURVE SMOOTH",
"479 463 OFFCURVE",
"425 443 OFFCURVE",
"374 393 CURVE",
"420 391 LINE",
"382 485 OFFCURVE",
"310 523 OFFCURVE",
"223 523 CURVE SMOOTH",
"127 523 OFFCURVE",
"27 427 OFFCURVE",
"38 311 CURVE"
);
}
);
};
components = (
{
name = "CC-pa-kannada";
transform = "{1, 0, 0, 1, 30, 0}";
}
);
guideLines = (
{
position = "{580, 417}";
}
);
layerId = "28485BCA-8FF4-4FE4-8E3C-34BA2ABFF94C";
name = "Regular Sep 20 15, 11:48";
paths = (
{
closed = 1;
nodes = (
"390 461 LINE",
"315 572 OFFCURVE",
"76 527 OFFCURVE",
"30 386 CURVE SMOOTH",
"24 368 OFFCURVE",
"48 357 OFFCURVE",
"62 357 CURVE SMOOTH",
"70 357 OFFCURVE",
"76 360 OFFCURVE",
"79 364 CURVE SMOOTH",
"120 419 OFFCURVE",
"166 441 OFFCURVE",
"208 441 CURVE SMOOTH",
"263 441 OFFCURVE",
"326 392 OFFCURVE",
"315 304 CURVE",
"316 301 OFFCURVE",
"335 342 OFFCURVE",
"340 342 CURVE SMOOTH",
"353 342 OFFCURVE",
"401 386 OFFCURVE",
"425 417 CURVE"
);
},
{
closed = 1;
nodes = (
"315 304 LINE",
"359 289 OFFCURVE",
"381 366 OFFCURVE",
"474 366 CURVE SMOOTH",
"538 366 OFFCURVE",
"618 317 OFFCURVE",
"618 200 CURVE SMOOTH",
"618 160 OFFCURVE",
"607 122 OFFCURVE",
"577 98 CURVE",
"549 82 LINE",
"535 75 OFFCURVE",
"514 72 OFFCURVE",
"492 72 CURVE SMOOTH",
"424 72 OFFCURVE",
"401 115 OFFCURVE",
"408 141 CURVE",
"336 103 LINE",
"329 41 OFFCURVE",
"360 -18 OFFCURVE",
"442 -18 CURVE SMOOTH",
"466 -18 OFFCURVE",
"485 -14 OFFCURVE",
"501 -9 CURVE SMOOTH",
"594 20 OFFCURVE",
"687 114 OFFCURVE",
"687 257 CURVE SMOOTH",
"687 370 OFFCURVE",
"634 463 OFFCURVE",
"518 463 CURVE SMOOTH",
"462 463 OFFCURVE",
"408 443 OFFCURVE",
"357 393 CURVE"
);
}
);
width = 767;
},
{
components = (
{
name = "CC-pa-kannada";
transform = "{1, 0, 0, 1, 10, 0}";
}
);
guideLines = (
{
position = "{664, 417}";
}
);
layerId = "59118767-2CA9-48AA-9373-694D24C960D8";
name = Regular;
paths = (
{
closed = 1;
nodes = (
"504 522 OFFCURVE",
"446 493 OFFCURVE",
"395 434 CURVE",
"363 467 OFFCURVE",
"319 486 OFFCURVE",
"279 486 CURVE SMOOTH",
"203 486 OFFCURVE",
"108 451 OFFCURVE",
"76 378 CURVE SMOOTH",
"65 354 OFFCURVE",
"67 337 OFFCURVE",
"83 327 CURVE SMOOTH",
"93 321 OFFCURVE",
"111 319 OFFCURVE",
"124 340 CURVE SMOOTH",
"145 372 OFFCURVE",
"175 392 OFFCURVE",
"222 392 CURVE SMOOTH",
"296 392 OFFCURVE",
"305 330 OFFCURVE",
"334 330 CURVE SMOOTH",
"343 330 OFFCURVE",
"354 337 OFFCURVE",
"369 352 CURVE SMOOTH",
"411 394 OFFCURVE",
"438 424 OFFCURVE",
"496 424 CURVE SMOOTH",
"580 424 OFFCURVE",
"621 322 OFFCURVE",
"621 258 CURVE SMOOTH",
"621 161 OFFCURVE",
"573 93 OFFCURVE",
"479 93 CURVE SMOOTH",
"436 93 OFFCURVE",
"401 113 OFFCURVE",
"386 157 CURVE",
"296 88 LINE",
"321 29 OFFCURVE",
"362 -12 OFFCURVE",
"449 -12 CURVE SMOOTH",
"607 -12 OFFCURVE",
"702 171 OFFCURVE",
"702 322 CURVE SMOOTH",
"702 430 OFFCURVE",
"650 522 OFFCURVE",
"556 522 CURVE SMOOTH"
);
}
);
width = 739;
},
{
associatedMasterId = "59118767-2CA9-48AA-9373-694D24C960D8";
background = {
paths = (
{
closed = 1;
nodes = (
"127 336 LINE",
"116 416 OFFCURVE",
"157 450 OFFCURVE",
"205 450 CURVE SMOOTH",
"260 450 OFFCURVE",
"324 404 OFFCURVE",
"324 332 CURVE SMOOTH",
"324 308 OFFCURVE",
"330 302 OFFCURVE",
"343 302 CURVE SMOOTH",
"380 302 OFFCURVE",
"406 366 OFFCURVE",
"491 366 CURVE SMOOTH",
"555 366 OFFCURVE",
"635 317 OFFCURVE",
"635 200 CURVE SMOOTH",
"635 160 OFFCURVE",
"624 122 OFFCURVE",
"594 98 CURVE",
"566 82 LINE",
"552 75 OFFCURVE",
"531 72 OFFCURVE",
"509 72 CURVE SMOOTH",
"441 72 OFFCURVE",
"418 115 OFFCURVE",
"425 141 CURVE",
"353 103 LINE",
"346 41 OFFCURVE",
"377 -18 OFFCURVE",
"459 -18 CURVE SMOOTH",
"483 -18 OFFCURVE",
"502 -14 OFFCURVE",
"518 -9 CURVE SMOOTH",
"611 20 OFFCURVE",
"704 114 OFFCURVE",
"704 257 CURVE SMOOTH",
"704 370 OFFCURVE",
"651 463 OFFCURVE",
"535 463 CURVE SMOOTH",
"479 463 OFFCURVE",
"425 443 OFFCURVE",
"374 393 CURVE",
"420 391 LINE",
"382 485 OFFCURVE",
"310 523 OFFCURVE",
"223 523 CURVE SMOOTH",
"127 523 OFFCURVE",
"27 427 OFFCURVE",
"38 311 CURVE"
);
}
);
};
components = (
{
name = "CC-pa-kannada";
transform = "{1, 0, 0, 1, 30, 0}";
}
);
guideLines = (
{
position = "{580, 417}";
}
);
layerId = "2A66BDE1-C649-42BC-B84A-1F62C6477CAD";
name = "Regular Sep 20 15, 11:48";
paths = (
{
closed = 1;
nodes = (
"100 336 LINE",
"99 396 OFFCURVE",
"140 450 OFFCURVE",
"218 450 CURVE SMOOTH",
"243 450 OFFCURVE",
"307 404 OFFCURVE",
"307 332 CURVE SMOOTH",
"307 308 OFFCURVE",
"313 302 OFFCURVE",
"326 302 CURVE SMOOTH",
"363 302 OFFCURVE",
"389 366 OFFCURVE",
"474 366 CURVE SMOOTH",
"538 366 OFFCURVE",
"618 317 OFFCURVE",
"618 200 CURVE SMOOTH",
"618 160 OFFCURVE",
"607 122 OFFCURVE",
"577 98 CURVE",
"549 82 LINE",
"535 75 OFFCURVE",
"514 72 OFFCURVE",
"492 72 CURVE SMOOTH",
"424 72 OFFCURVE",
"401 115 OFFCURVE",
"408 141 CURVE",
"336 103 LINE",
"329 41 OFFCURVE",
"360 -18 OFFCURVE",
"442 -18 CURVE SMOOTH",
"466 -18 OFFCURVE",
"485 -14 OFFCURVE",
"501 -9 CURVE SMOOTH",
"594 20 OFFCURVE",
"687 114 OFFCURVE",
"687 257 CURVE SMOOTH",
"687 370 OFFCURVE",
"634 463 OFFCURVE",
"518 463 CURVE SMOOTH",
"462 463 OFFCURVE",
"408 443 OFFCURVE",
"357 393 CURVE",
"403 391 LINE",
"365 485 OFFCURVE",
"293 523 OFFCURVE",
"236 523 CURVE SMOOTH",
"110 523 OFFCURVE",
"20 407 OFFCURVE",
"21 311 CURVE"
);
}
);
width = 767;
},
{
associatedMasterId = "59118767-2CA9-48AA-9373-694D24C960D8";
background = {
paths = (
{
closed = 1;
nodes = (
"385 487 OFFCURVE",
"310 523 OFFCURVE",
"245 523 CURVE SMOOTH",
"137 523 OFFCURVE",
"29 447 OFFCURVE",
"29 316 CURVE SMOOTH",
"29 242 OFFCURVE",
"73 176 OFFCURVE",
"175 176 CURVE SMOOTH",
"221 176 OFFCURVE",
"268 207 OFFCURVE",
"285 249 CURVE SMOOTH",
"292 266 OFFCURVE",
"291 281 OFFCURVE",
"272 289 CURVE SMOOTH",
"248 299 OFFCURVE",
"208 294 OFFCURVE",
"170 280 CURVE",
"135 298 OFFCURVE",
"117 333 OFFCURVE",
"117 367 CURVE SMOOTH",
"117 410 OFFCURVE",
"145 450 OFFCURVE",
"197 450 CURVE SMOOTH",
"248 450 OFFCURVE",
"276 417 OFFCURVE",
"327 353 CURVE SMOOTH",
"350 324 OFFCURVE",
"350 324 OFFCURVE",
"383 343 CURVE SMOOTH",
"413 361 OFFCURVE",
"445 373 OFFCURVE",
"475 373 CURVE SMOOTH",
"557 373 OFFCURVE",
"629 312 OFFCURVE",
"629 211 CURVE SMOOTH",
"629 176 OFFCURVE",
"619 140 OFFCURVE",
"598 108 CURVE",
"616 178 OFFCURVE",
"583 263 OFFCURVE",
"503 263 CURVE SMOOTH",
"410 263 OFFCURVE",
"345 167 OFFCURVE",
"345 87 CURVE SMOOTH",
"345 19 OFFCURVE",
"399 -14 OFFCURVE",
"463 -14 CURVE SMOOTH",
"609 -14 OFFCURVE",
"709 133 OFFCURVE",
"709 280 CURVE SMOOTH",
"709 400 OFFCURVE",
"640 463 OFFCURVE",
"550 463 CURVE SMOOTH",
"505 463 OFFCURVE",
"455 448 OFFCURVE",
"405 415 CURVE",
"429 393 LINE"
);
}
);
};
components = (
{
name = "CC-pa-kannada";
transform = "{1, 0, 0, 1, 30, 0}";
}
);
guideLines = (
{
position = "{580, 417}";
}
);
layerId = "9103F8AE-E4C5-4834-992A-5FCF548461E2";
name = "Regular Sep 21 15, 10:27";
paths = (
{
closed = 1;
nodes = (
"382 -12 OFFCURVE",
"469 -12 CURVE SMOOTH",
"590 -12 OFFCURVE",
"712 120 OFFCURVE",
"712 281 CURVE SMOOTH",
"712 415 OFFCURVE",
"628 503 OFFCURVE",
"534 503 CURVE SMOOTH",
"482 503 OFFCURVE",
"424 473 OFFCURVE",
"373 414 CURVE",
"346 450 OFFCURVE",
"307 466 OFFCURVE",
"269 466 CURVE SMOOTH",
"173 466 OFFCURVE",
"90 365 OFFCURVE",
"90 326 CURVE SMOOTH",
"90 308 OFFCURVE",
"108 297 OFFCURVE",
"122 297 CURVE SMOOTH",
"133 297 OFFCURVE",
"146 317 OFFCURVE",
"157 330 CURVE SMOOTH",
"178 354 OFFCURVE",
"207 368 OFFCURVE",
"233 368 CURVE SMOOTH",
"259 368 OFFCURVE",
"284 356 OFFCURVE",
"296 322 CURVE SMOOTH",
"306 296 OFFCURVE",
"308 282 OFFCURVE",
"330 282 CURVE SMOOTH",
"339 282 OFFCURVE",
"346 287 OFFCURVE",
"357 300 CURVE SMOOTH",
"369 315 OFFCURVE",
"383 335 OFFCURVE",
"399 354 CURVE SMOOTH",
"426 384 OFFCURVE",
"457 397 OFFCURVE",
"488 397 CURVE SMOOTH",
"561 397 OFFCURVE",
"641 325 OFFCURVE",
"641 231 CURVE SMOOTH",
"641 141 OFFCURVE",
"568 92 OFFCURVE",
"503 92 CURVE SMOOTH",
"460 92 OFFCURVE",
"421 113 OFFCURVE",
"406 157 CURVE",
"316 88 LINE",
"341 29 OFFCURVE"
);
}
);
width = 737;
}
);
leftKerningGroup = knAI;
rightKerningGroup = knAI;
rightMetricsKey = knHA;
unicode = 0C90;
},
{
color = 4;
glyphname = knO;
lastChange = "2015-11-08 17:40:09 +0000";
layers = (
{
components = (
{
name = "CC_Ofirsthalf-kannada";
transform = "{1, 0, 0, 1, 40, 0}";
}
);
layerId = "59118767-2CA9-48AA-9373-694D24C960D8";
name = Regular;
paths = (
{
closed = 1;
nodes = (
"650 281 OFFCURVE",
"635 312 OFFCURVE",
"607 312 CURVE SMOOTH",
"564 312 OFFCURVE",
"529 235 OFFCURVE",
"529 215 CURVE SMOOTH",
"529 196 OFFCURVE",
"563 188 OFFCURVE",
"563 148 CURVE SMOOTH",
"563 108 OFFCURVE",
"519 83 OFFCURVE",
"476 83 CURVE SMOOTH",
"428 83 OFFCURVE",
"393 114 OFFCURVE",
"380 157 CURVE",
"309 78 LINE",
"314 15 OFFCURVE",
"358 -14 OFFCURVE",
"417 -14 CURVE SMOOTH",
"533 -14 OFFCURVE",
"650 97 OFFCURVE",
"650 232 CURVE SMOOTH"
);
}
);
width = 682;
},
{
associatedMasterId = "59118767-2CA9-48AA-9373-694D24C960D8";
background = {
paths = (
{
closed = 1;
nodes = (
"325 299 OFFCURVE",
"-41 -108 OFFCURVE",
"127 -95 CURVE SMOOTH",
"203 -87 OFFCURVE",
"263 0 OFFCURVE",
"327 75 CURVE",
"292 88 LINE",
"303 32 OFFCURVE",
"368 -13 OFFCURVE",
"459 -13 CURVE SMOOTH",
"608 -13 OFFCURVE",
"665 61 OFFCURVE",
"687 135 CURVE SMOOTH",
"709 210 OFFCURVE",
"653 301 OFFCURVE",
"545 289 CURVE",
"570 307 OFFCURVE",
"594 322 OFFCURVE",
"627 322 CURVE SMOOTH",
"694 322 OFFCURVE",
"689 286 OFFCURVE",
"735 276 CURVE",
"766 271 OFFCURVE",
"794 309 OFFCURVE",
"804 350 CURVE",
"808 371 OFFCURVE",
"807 383 OFFCURVE",
"799 388 CURVE SMOOTH",
"739 425 OFFCURVE",
"380 295 OFFCURVE",
"380 225 CURVE SMOOTH",
"380 199 OFFCURVE",
"414 197 OFFCURVE",
"475 196 CURVE SMOOTH",
"544 195 OFFCURVE",
"628 190 OFFCURVE",
"628 126 CURVE SMOOTH",
"628 98 OFFCURVE",
"603 71 OFFCURVE",
"552 71 CURVE SMOOTH",
"399 71 OFFCURVE",
"396 180 OFFCURVE",
"392 180 CURVE SMOOTH",
"345 180 OFFCURVE",
"258 24 OFFCURVE",
"218 58 CURVE SMOOTH",
"204 70 OFFCURVE",
"190 108 OFFCURVE",
"240 206 CURVE SMOOTH",
"278 281 OFFCURVE",
"295 339 OFFCURVE",
"295 380 CURVE SMOOTH",
"295 506 OFFCURVE",
"136 484 OFFCURVE",
"61 349 CURVE SMOOTH",
"-16 204 OFFCURVE",
"38 52 OFFCURVE",
"161 105 CURVE",
"214 229 LINE",
"195 219 OFFCURVE",
"175 214 OFFCURVE",
"157 214 CURVE SMOOTH",
"60 214 OFFCURVE",
"79 397 OFFCURVE",
"175 361 CURVE SMOOTH"
);
}
);
};
layerId = "E5B76D0B-DC41-40B3-A149-49A3CAA7589C";
name = "Regular Aug 16 15, 14:52";
paths = (
{
closed = 1;
nodes = (
"325 299 OFFCURVE",
"-41 -108 OFFCURVE",
"127 -95 CURVE SMOOTH",
"203 -87 OFFCURVE",
"263 0 OFFCURVE",
"327 75 CURVE",
"292 88 LINE",
"303 32 OFFCURVE",
"368 -13 OFFCURVE",
"459 -13 CURVE SMOOTH",
"608 -13 OFFCURVE",
"665 61 OFFCURVE",
"687 135 CURVE SMOOTH",
"709 210 OFFCURVE",
"653 301 OFFCURVE",
"545 289 CURVE",
"570 307 OFFCURVE",
"594 322 OFFCURVE",
"627 322 CURVE SMOOTH",
"694 322 OFFCURVE",
"689 286 OFFCURVE",
"735 276 CURVE",
"766 271 OFFCURVE",
"794 309 OFFCURVE",
"804 350 CURVE",
"808 371 OFFCURVE",
"807 383 OFFCURVE",
"799 388 CURVE SMOOTH",
"739 425 OFFCURVE",
"380 295 OFFCURVE",
"380 225 CURVE SMOOTH",
"380 199 OFFCURVE",
"414 197 OFFCURVE",
"475 196 CURVE SMOOTH",
"544 195 OFFCURVE",
"628 190 OFFCURVE",
"628 126 CURVE SMOOTH",
"628 98 OFFCURVE",
"603 71 OFFCURVE",
"552 71 CURVE SMOOTH",
"399 71 OFFCURVE",
"396 180 OFFCURVE",
"392 180 CURVE SMOOTH",
"345 180 OFFCURVE",
"258 24 OFFCURVE",
"218 58 CURVE SMOOTH",
"204 70 OFFCURVE",
"190 108 OFFCURVE",
"240 206 CURVE SMOOTH",
"278 281 OFFCURVE",
"295 339 OFFCURVE",
"295 380 CURVE SMOOTH",
"295 506 OFFCURVE",
"136 484 OFFCURVE",
"61 349 CURVE SMOOTH",
"-16 204 OFFCURVE",
"38 52 OFFCURVE",
"161 105 CURVE",
"214 229 LINE",
"195 219 OFFCURVE",
"175 214 OFFCURVE",
"157 214 CURVE SMOOTH",
"60 214 OFFCURVE",
"79 397 OFFCURVE",
"175 361 CURVE SMOOTH"
);
}
);
width = 831;
},
{
associatedMasterId = "59118767-2CA9-48AA-9373-694D24C960D8";
background = {
paths = (
{
closed = 1;
nodes = (
"325 299 OFFCURVE",
"-41 -108 OFFCURVE",
"127 -95 CURVE SMOOTH",
"203 -87 OFFCURVE",
"263 0 OFFCURVE",
"327 75 CURVE",
"292 88 LINE",
"303 32 OFFCURVE",
"368 -13 OFFCURVE",
"459 -13 CURVE SMOOTH",
"608 -13 OFFCURVE",
"665 61 OFFCURVE",
"687 135 CURVE SMOOTH",
"709 210 OFFCURVE",
"653 301 OFFCURVE",
"545 289 CURVE",
"570 307 OFFCURVE",
"594 322 OFFCURVE",
"627 322 CURVE SMOOTH",
"694 322 OFFCURVE",
"689 286 OFFCURVE",
"735 276 CURVE",
"766 271 OFFCURVE",
"794 309 OFFCURVE",
"804 350 CURVE",
"808 371 OFFCURVE",
"807 383 OFFCURVE",
"799 388 CURVE SMOOTH",
"739 425 OFFCURVE",
"380 295 OFFCURVE",
"380 225 CURVE SMOOTH",
"380 199 OFFCURVE",
"414 197 OFFCURVE",
"475 196 CURVE SMOOTH",
"544 195 OFFCURVE",
"628 190 OFFCURVE",
"628 126 CURVE SMOOTH",
"628 98 OFFCURVE",
"603 71 OFFCURVE",
"552 71 CURVE SMOOTH",
"399 71 OFFCURVE",
"396 180 OFFCURVE",
"392 180 CURVE SMOOTH",
"345 180 OFFCURVE",
"258 24 OFFCURVE",
"218 58 CURVE SMOOTH",
"204 70 OFFCURVE",
"190 108 OFFCURVE",
"240 206 CURVE SMOOTH",
"278 281 OFFCURVE",
"295 339 OFFCURVE",
"295 380 CURVE SMOOTH",
"295 506 OFFCURVE",
"136 484 OFFCURVE",
"61 349 CURVE SMOOTH",
"-16 204 OFFCURVE",
"38 52 OFFCURVE",
"161 105 CURVE",
"214 229 LINE",
"195 219 OFFCURVE",
"175 214 OFFCURVE",
"157 214 CURVE SMOOTH",
"60 214 OFFCURVE",
"79 397 OFFCURVE",
"175 361 CURVE SMOOTH"
);
}
);
};
layerId = "0FA6DD54-C083-48E0-A135-3EBD7223A80F";
name = "Regular Aug 16 15, 14:59";
paths = (
{
closed = 1;
nodes = (
"435 316 OFFCURVE",
"385 236 OFFCURVE",
"385 215 CURVE SMOOTH",
"385 207 OFFCURVE",
"395 204 OFFCURVE",
"401 204 CURVE SMOOTH",
"414 204 OFFCURVE",
"445 220 OFFCURVE",
"500 220 CURVE SMOOTH",
"580 220 OFFCURVE",
"607 192 OFFCURVE",
"607 155 CURVE SMOOTH",
"607 103 OFFCURVE",
"536 90 OFFCURVE",
"500 90 CURVE SMOOTH",
"441 90 OFFCURVE",
"405 122 OFFCURVE",
"398 177 CURVE",
"315 114 LINE",
"315 10 OFFCURVE",
"379 -16 OFFCURVE",
"442 -16 CURVE SMOOTH",
"586 -16 OFFCURVE",
"693 115 OFFCURVE",
"693 209 CURVE SMOOTH",
"693 263 OFFCURVE",
"657 316 OFFCURVE",
"549 316 CURVE SMOOTH"
);
},
{
closed = 1;
nodes = (
"457 289 LINE",
"503 315 OFFCURVE",
"567 333 OFFCURVE",
"628 333 CURVE SMOOTH",
"664 333 OFFCURVE",
"678 327 OFFCURVE",
"700 311 CURVE SMOOTH",
"718 298 OFFCURVE",
"724 294 OFFCURVE",
"734 294 CURVE SMOOTH",
"768 294 OFFCURVE",
"808 340 OFFCURVE",
"808 378 CURVE SMOOTH",
"808 405 OFFCURVE",
"787 429 OFFCURVE",
"726 429 CURVE SMOOTH",
"584 429 OFFCURVE",
"395 287 OFFCURVE",
"385 215 CURVE"
);
},
{
closed = 1;
nodes = (
"276 -137 OFFCURVE",
"366 9 OFFCURVE",
"390 77 CURVE SMOOTH",
"400 104 OFFCURVE",
"433 173 OFFCURVE",
"434 202 CURVE SMOOTH",
"435 226 OFFCURVE",
"417 227 OFFCURVE",
"412 227 CURVE SMOOTH",
"400 227 OFFCURVE",
"388 221 OFFCURVE",
"382 209 CURVE SMOOTH",
"327 96 OFFCURVE",
"297 -21 OFFCURVE",
"200 -21 CURVE SMOOTH",
"160 -21 OFFCURVE",
"135 -2 OFFCURVE",
"135 27 CURVE SMOOTH",
"135 64 OFFCURVE",
"174 90 OFFCURVE",
"174 149 CURVE SMOOTH",
"174 198 OFFCURVE",
"148 244 OFFCURVE",
"121 244 CURVE SMOOTH",
"86 244 OFFCURVE",
"55 171 OFFCURVE",
"55 154 CURVE SMOOTH",
"55 135 OFFCURVE",
"90 141 OFFCURVE",
"90 84 CURVE SMOOTH",
"90 30 OFFCURVE",
"59 21 OFFCURVE",
"59 -40 CURVE SMOOTH",
"59 -94 OFFCURVE",
"83 -137 OFFCURVE",
"143 -137 CURVE SMOOTH"
);
}
);
width = 831;
},
{
associatedMasterId = "59118767-2CA9-48AA-9373-694D24C960D8";
background = {
paths = (
{
closed = 1;
nodes = (
"325 299 OFFCURVE",
"-41 -108 OFFCURVE",
"127 -95 CURVE SMOOTH",
"203 -87 OFFCURVE",
"263 0 OFFCURVE",
"327 75 CURVE",
"292 88 LINE",
"303 32 OFFCURVE",
"368 -13 OFFCURVE",
"459 -13 CURVE SMOOTH",
"608 -13 OFFCURVE",
"665 61 OFFCURVE",
"687 135 CURVE SMOOTH",
"709 210 OFFCURVE",
"653 301 OFFCURVE",
"545 289 CURVE",
"570 307 OFFCURVE",
"594 322 OFFCURVE",
"627 322 CURVE SMOOTH",
"694 322 OFFCURVE",
"689 286 OFFCURVE",
"735 276 CURVE",
"766 271 OFFCURVE",
"794 309 OFFCURVE",
"804 350 CURVE",
"808 371 OFFCURVE",
"807 383 OFFCURVE",
"799 388 CURVE SMOOTH",
"739 425 OFFCURVE",
"380 295 OFFCURVE",
"380 225 CURVE SMOOTH",
"380 199 OFFCURVE",
"414 197 OFFCURVE",
"475 196 CURVE SMOOTH",
"544 195 OFFCURVE",
"628 190 OFFCURVE",
"628 126 CURVE SMOOTH",
"628 98 OFFCURVE",
"603 71 OFFCURVE",
"552 71 CURVE SMOOTH",
"399 71 OFFCURVE",
"396 180 OFFCURVE",
"392 180 CURVE SMOOTH",
"345 180 OFFCURVE",
"258 24 OFFCURVE",
"218 58 CURVE SMOOTH",
"204 70 OFFCURVE",
"190 108 OFFCURVE",
"240 206 CURVE SMOOTH",
"278 281 OFFCURVE",
"295 339 OFFCURVE",
"295 380 CURVE SMOOTH",
"295 506 OFFCURVE",
"136 484 OFFCURVE",
"61 349 CURVE SMOOTH",
"-16 204 OFFCURVE",
"38 52 OFFCURVE",
"161 105 CURVE",
"214 229 LINE",
"195 219 OFFCURVE",
"175 214 OFFCURVE",
"157 214 CURVE SMOOTH",
"60 214 OFFCURVE",
"79 397 OFFCURVE",
"175 361 CURVE SMOOTH"
);
}
);
};
layerId = "202B741D-CA1F-4A37-A05B-B27D4AE39EF4";
name = "Regular Aug 16 15, 15:06";
paths = (
{
closed = 1;
nodes = (
"431 316 OFFCURVE",
"385 235 OFFCURVE",
"385 216 CURVE SMOOTH",
"385 207 OFFCURVE",
"394 204 OFFCURVE",
"401 204 CURVE SMOOTH",
"415 204 OFFCURVE",
"443 220 OFFCURVE",
"501 220 CURVE SMOOTH",
"579 220 OFFCURVE",
"607 191 OFFCURVE",
"607 157 CURVE SMOOTH",
"607 102 OFFCURVE",
"536 90 OFFCURVE",
"499 90 CURVE SMOOTH",
"442 90 OFFCURVE",
"405 118 OFFCURVE",
"399 153 CURVE",
"329 114 LINE",
"329 8 OFFCURVE",
"387 -16 OFFCURVE",
"446 -16 CURVE SMOOTH",
"584 -16 OFFCURVE",
"693 115 OFFCURVE",
"693 208 CURVE SMOOTH",
"693 263 OFFCURVE",
"655 316 OFFCURVE",
"555 316 CURVE SMOOTH"
);
},
{
closed = 1;
nodes = (
"457 289 LINE",
"503 315 OFFCURVE",
"567 333 OFFCURVE",
"628 333 CURVE SMOOTH",
"664 333 OFFCURVE",
"678 327 OFFCURVE",
"700 311 CURVE SMOOTH",
"718 298 OFFCURVE",
"724 294 OFFCURVE",
"734 294 CURVE SMOOTH",
"768 294 OFFCURVE",
"808 340 OFFCURVE",
"808 378 CURVE SMOOTH",
"808 405 OFFCURVE",
"787 429 OFFCURVE",
"728 429 CURVE SMOOTH",
"583 429 OFFCURVE",
"395 287 OFFCURVE",
"385 215 CURVE"
);
},
{
closed = 1;
nodes = (
"315 -93 OFFCURVE",
"382 80 OFFCURVE",
"395 132 CURVE SMOOTH",
"403 162 OFFCURVE",
"396 170 OFFCURVE",
"380 170 CURVE SMOOTH",
"364 170 OFFCURVE",
"355 162 OFFCURVE",
"348 152 CURVE SMOOTH",
"315 107 OFFCURVE",
"292 23 OFFCURVE",
"216 23 CURVE SMOOTH",
"179 23 OFFCURVE",
"165 43 OFFCURVE",
"165 71 CURVE SMOOTH",
"165 155 OFFCURVE",
"284 228 OFFCURVE",
"284 357 CURVE SMOOTH",
"284 419 OFFCURVE",
"256 458 OFFCURVE",
"231 458 CURVE SMOOTH",
"196 458 OFFCURVE",
"165 385 OFFCURVE",
"165 367 CURVE SMOOTH",
"165 351 OFFCURVE",
"200 361 OFFCURVE",
"200 303 CURVE SMOOTH",
"200 189 OFFCURVE",
"87 123 OFFCURVE",
"87 -6 CURVE SMOOTH",
"87 -61 OFFCURVE",
"114 -93 OFFCURVE",
"171 -93 CURVE SMOOTH"
);
}
);
width = 831;
},
{
associatedMasterId = "59118767-2CA9-48AA-9373-694D24C960D8";
background = {
paths = (
{
closed = 1;
nodes = (
"325 299 OFFCURVE",
"-41 -108 OFFCURVE",
"127 -95 CURVE SMOOTH",
"203 -87 OFFCURVE",
"263 0 OFFCURVE",
"327 75 CURVE",
"292 88 LINE",
"303 32 OFFCURVE",
"368 -13 OFFCURVE",
"459 -13 CURVE SMOOTH",
"608 -13 OFFCURVE",
"665 61 OFFCURVE",
"687 135 CURVE SMOOTH",
"709 210 OFFCURVE",
"653 301 OFFCURVE",
"545 289 CURVE",
"570 307 OFFCURVE",
"594 322 OFFCURVE",
"627 322 CURVE SMOOTH",
"694 322 OFFCURVE",
"689 286 OFFCURVE",
"735 276 CURVE",
"766 271 OFFCURVE",
"794 309 OFFCURVE",
"804 350 CURVE",
"808 371 OFFCURVE",
"807 383 OFFCURVE",
"799 388 CURVE SMOOTH",
"739 425 OFFCURVE",
"380 295 OFFCURVE",
"380 225 CURVE SMOOTH",
"380 199 OFFCURVE",
"414 197 OFFCURVE",
"475 196 CURVE SMOOTH",
"544 195 OFFCURVE",
"628 190 OFFCURVE",
"628 126 CURVE SMOOTH",
"628 98 OFFCURVE",
"603 71 OFFCURVE",
"552 71 CURVE SMOOTH",
"399 71 OFFCURVE",
"396 180 OFFCURVE",
"392 180 CURVE SMOOTH",
"345 180 OFFCURVE",
"258 24 OFFCURVE",
"218 58 CURVE SMOOTH",
"204 70 OFFCURVE",
"190 108 OFFCURVE",
"240 206 CURVE SMOOTH",
"278 281 OFFCURVE",
"295 339 OFFCURVE",
"295 380 CURVE SMOOTH",
"295 506 OFFCURVE",
"136 484 OFFCURVE",
"61 349 CURVE SMOOTH",
"-16 204 OFFCURVE",
"38 52 OFFCURVE",
"161 105 CURVE",
"214 229 LINE",
"195 219 OFFCURVE",
"175 214 OFFCURVE",
"157 214 CURVE SMOOTH",
"60 214 OFFCURVE",
"79 397 OFFCURVE",
"175 361 CURVE SMOOTH"
);
}
);
};
layerId = "182A833C-387B-4D51-94BE-F38D531EB45C";
name = "Regular Aug 16 15, 15:09";
paths = (
{
closed = 1;
nodes = (
"431 316 OFFCURVE",
"385 235 OFFCURVE",
"385 216 CURVE SMOOTH",
"385 207 OFFCURVE",
"394 204 OFFCURVE",
"401 204 CURVE SMOOTH",
"415 204 OFFCURVE",
"443 220 OFFCURVE",
"501 220 CURVE SMOOTH",
"579 220 OFFCURVE",
"607 191 OFFCURVE",
"607 157 CURVE SMOOTH",
"607 102 OFFCURVE",
"536 90 OFFCURVE",
"499 90 CURVE SMOOTH",
"442 90 OFFCURVE",
"405 118 OFFCURVE",
"399 153 CURVE",
"329 114 LINE",
"329 8 OFFCURVE",
"387 -16 OFFCURVE",
"446 -16 CURVE SMOOTH",
"584 -16 OFFCURVE",
"693 115 OFFCURVE",
"693 208 CURVE SMOOTH",
"693 263 OFFCURVE",
"655 316 OFFCURVE",
"555 316 CURVE SMOOTH"
);
},
{
closed = 1;
nodes = (
"457 289 LINE",
"503 315 OFFCURVE",
"567 333 OFFCURVE",
"628 333 CURVE SMOOTH",
"664 333 OFFCURVE",
"678 327 OFFCURVE",
"700 311 CURVE SMOOTH",
"718 298 OFFCURVE",
"724 294 OFFCURVE",
"734 294 CURVE SMOOTH",
"768 294 OFFCURVE",
"808 340 OFFCURVE",
"808 378 CURVE SMOOTH",
"808 405 OFFCURVE",
"787 429 OFFCURVE",
"728 429 CURVE SMOOTH",
"583 429 OFFCURVE",
"395 287 OFFCURVE",
"385 215 CURVE"
);
},
{
closed = 1;
nodes = (
"314 -93 OFFCURVE",
"382 80 OFFCURVE",
"395 132 CURVE SMOOTH",
"402 160 OFFCURVE",
"398 170 OFFCURVE",
"380 170 CURVE SMOOTH",
"364 170 OFFCURVE",
"355 162 OFFCURVE",
"348 152 CURVE SMOOTH",
"315 107 OFFCURVE",
"292 23 OFFCURVE",
"216 23 CURVE SMOOTH",
"179 23 OFFCURVE",
"165 43 OFFCURVE",
"165 71 CURVE SMOOTH",
"165 154 OFFCURVE",
"284 228 OFFCURVE",
"284 357 CURVE SMOOTH",
"284 419 OFFCURVE",
"256 458 OFFCURVE",
"231 458 CURVE SMOOTH",
"196 458 OFFCURVE",
"149 368 OFFCURVE",
"165 368 CURVE SMOOTH",
"181 368 OFFCURVE",
"200 363 OFFCURVE",
"200 302 CURVE SMOOTH",
"200 192 OFFCURVE",
"87 119 OFFCURVE",
"87 -3 CURVE SMOOTH",
"87 -61 OFFCURVE",
"112 -93 OFFCURVE",
"173 -93 CURVE SMOOTH"
);
},
{
closed = 1;
nodes = (
"205 228 LINE",
"151 208 OFFCURVE",
"95 206 OFFCURVE",
"95 289 CURVE SMOOTH",
"95 338 OFFCURVE",
"128 368 OFFCURVE",
"165 368 CURVE SMOOTH",
"222 368 OFFCURVE",
"247 458 OFFCURVE",
"230 458 CURVE SMOOTH",
"103 458 OFFCURVE",
"14 318 OFFCURVE",
"14 226 CURVE SMOOTH",
"14 134 OFFCURVE",
"75 90 OFFCURVE",
"157 125 CURVE"
);
}
);
width = 831;
},
{
associatedMasterId = "59118767-2CA9-48AA-9373-694D24C960D8";
background = {
paths = (
{
closed = 1;
nodes = (
"325 299 OFFCURVE",
"-41 -108 OFFCURVE",
"127 -95 CURVE SMOOTH",
"203 -87 OFFCURVE",
"263 0 OFFCURVE",
"327 75 CURVE",
"292 88 LINE",
"303 32 OFFCURVE",
"368 -13 OFFCURVE",
"459 -13 CURVE SMOOTH",
"608 -13 OFFCURVE",
"665 61 OFFCURVE",
"687 135 CURVE SMOOTH",
"709 210 OFFCURVE",
"653 301 OFFCURVE",
"545 289 CURVE",
"570 307 OFFCURVE",
"594 322 OFFCURVE",
"627 322 CURVE SMOOTH",
"694 322 OFFCURVE",
"689 286 OFFCURVE",
"735 276 CURVE",
"766 271 OFFCURVE",
"794 309 OFFCURVE",
"804 350 CURVE",
"808 371 OFFCURVE",
"807 383 OFFCURVE",
"799 388 CURVE SMOOTH",
"739 425 OFFCURVE",
"380 295 OFFCURVE",
"380 225 CURVE SMOOTH",
"380 199 OFFCURVE",
"414 197 OFFCURVE",
"475 196 CURVE SMOOTH",
"544 195 OFFCURVE",
"628 190 OFFCURVE",
"628 126 CURVE SMOOTH",
"628 98 OFFCURVE",
"603 71 OFFCURVE",
"552 71 CURVE SMOOTH",
"399 71 OFFCURVE",
"396 180 OFFCURVE",
"392 180 CURVE SMOOTH",
"345 180 OFFCURVE",
"258 24 OFFCURVE",
"218 58 CURVE SMOOTH",
"204 70 OFFCURVE",
"190 108 OFFCURVE",
"240 206 CURVE SMOOTH",
"278 281 OFFCURVE",
"295 339 OFFCURVE",
"295 380 CURVE SMOOTH",
"295 506 OFFCURVE",
"136 484 OFFCURVE",
"61 349 CURVE SMOOTH",
"-16 204 OFFCURVE",
"38 52 OFFCURVE",
"161 105 CURVE",
"214 229 LINE",
"195 219 OFFCURVE",
"175 214 OFFCURVE",
"157 214 CURVE SMOOTH",
"60 214 OFFCURVE",
"79 397 OFFCURVE",
"175 361 CURVE SMOOTH"
);
}
);
};
layerId = "8123ABDF-BB6C-44D5-977A-967020AF5A22";
name = "Regular Aug 16 15, 15:13";
paths = (
{
closed = 1;
nodes = (
"314 -93 OFFCURVE",
"382 80 OFFCURVE",
"395 132 CURVE SMOOTH",
"402 160 OFFCURVE",
"398 170 OFFCURVE",
"380 170 CURVE SMOOTH",
"364 170 OFFCURVE",
"355 162 OFFCURVE",
"348 152 CURVE SMOOTH",
"315 107 OFFCURVE",
"292 23 OFFCURVE",
"216 23 CURVE SMOOTH",
"179 23 OFFCURVE",
"165 43 OFFCURVE",
"165 71 CURVE SMOOTH",
"165 151 OFFCURVE",
"284 223 OFFCURVE",
"284 347 CURVE SMOOTH",
"284 425 OFFCURVE",
"248 458 OFFCURVE",
"202 458 CURVE SMOOTH",
"126 458 OFFCURVE",
"24 358 OFFCURVE",
"24 222 CURVE SMOOTH",
"24 168 OFFCURVE",
"67 93 OFFCURVE",
"158 138 CURVE",
"206 235 LINE",
"155 197 OFFCURVE",
"95 223 OFFCURVE",
"95 289 CURVE SMOOTH",
"95 340 OFFCURVE",
"124 367 OFFCURVE",
"152 367 CURVE SMOOTH",
"177 367 OFFCURVE",
"200 346 OFFCURVE",
"200 302 CURVE SMOOTH",
"200 192 OFFCURVE",
"87 116 OFFCURVE",
"87 -3 CURVE SMOOTH",
"87 -61 OFFCURVE",
"112 -93 OFFCURVE",
"173 -93 CURVE SMOOTH"
);
},
{
closed = 1;
nodes = (
"584 -16 OFFCURVE",
"693 115 OFFCURVE",
"693 208 CURVE SMOOTH",
"693 263 OFFCURVE",
"655 316 OFFCURVE",
"555 316 CURVE SMOOTH",
"431 316 OFFCURVE",
"385 235 OFFCURVE",
"385 216 CURVE SMOOTH",
"385 207 OFFCURVE",
"394 204 OFFCURVE",
"401 204 CURVE SMOOTH",
"415 204 OFFCURVE",
"443 220 OFFCURVE",
"501 220 CURVE SMOOTH",
"579 220 OFFCURVE",
"607 191 OFFCURVE",
"607 157 CURVE SMOOTH",
"607 102 OFFCURVE",
"536 90 OFFCURVE",
"499 90 CURVE SMOOTH",
"442 90 OFFCURVE",
"405 118 OFFCURVE",
"399 153 CURVE",
"329 114 LINE",
"329 8 OFFCURVE",
"387 -16 OFFCURVE",
"446 -16 CURVE SMOOTH"
);
},
{
closed = 1;
nodes = (
"457 289 LINE",
"503 315 OFFCURVE",
"567 333 OFFCURVE",
"628 333 CURVE SMOOTH",
"664 333 OFFCURVE",
"678 327 OFFCURVE",
"700 311 CURVE SMOOTH",
"718 298 OFFCURVE",
"724 294 OFFCURVE",
"734 294 CURVE SMOOTH",
"768 294 OFFCURVE",
"808 340 OFFCURVE",
"808 378 CURVE SMOOTH",
"808 405 OFFCURVE",
"787 429 OFFCURVE",
"728 429 CURVE SMOOTH",
"583 429 OFFCURVE",
"395 287 OFFCURVE",
"385 215 CURVE"
);
}
);
width = 831;
},
{
associatedMasterId = "59118767-2CA9-48AA-9373-694D24C960D8";
background = {
paths = (
{
closed = 1;
nodes = (
"321 299 OFFCURVE",
"-45 -108 OFFCURVE",
"123 -95 CURVE SMOOTH",
"199 -87 OFFCURVE",
"259 0 OFFCURVE",
"323 75 CURVE",
"288 88 LINE",
"299 32 OFFCURVE",
"364 -13 OFFCURVE",
"455 -13 CURVE SMOOTH",
"604 -13 OFFCURVE",
"661 61 OFFCURVE",
"683 135 CURVE SMOOTH",
"705 210 OFFCURVE",
"649 301 OFFCURVE",
"541 289 CURVE",
"566 307 OFFCURVE",
"590 322 OFFCURVE",
"623 322 CURVE SMOOTH",
"690 322 OFFCURVE",
"685 286 OFFCURVE",
"731 276 CURVE",
"762 271 OFFCURVE",
"790 309 OFFCURVE",
"800 350 CURVE",
"804 371 OFFCURVE",
"803 383 OFFCURVE",
"795 388 CURVE SMOOTH",
"735 425 OFFCURVE",
"376 295 OFFCURVE",
"376 225 CURVE SMOOTH",
"376 199 OFFCURVE",
"410 197 OFFCURVE",
"471 196 CURVE SMOOTH",
"540 195 OFFCURVE",
"624 190 OFFCURVE",
"624 126 CURVE SMOOTH",
"624 98 OFFCURVE",
"599 71 OFFCURVE",
"548 71 CURVE SMOOTH",
"395 71 OFFCURVE",
"392 180 OFFCURVE",
"388 180 CURVE SMOOTH",
"341 180 OFFCURVE",
"254 24 OFFCURVE",
"214 58 CURVE SMOOTH",
"200 70 OFFCURVE",
"186 108 OFFCURVE",
"236 206 CURVE SMOOTH",
"274 281 OFFCURVE",
"291 339 OFFCURVE",
"291 380 CURVE SMOOTH",
"291 506 OFFCURVE",
"132 484 OFFCURVE",
"57 349 CURVE SMOOTH",
"-20 204 OFFCURVE",
"34 52 OFFCURVE",
"157 105 CURVE",
"210 229 LINE",
"191 219 OFFCURVE",
"171 214 OFFCURVE",
"153 214 CURVE SMOOTH",
"56 214 OFFCURVE",
"75 397 OFFCURVE",
"171 361 CURVE SMOOTH"
);
}
);
};
components = (
{
name = "CC_headstroke-kannada";
transform = "{1, 0, 0, 1, 333, 0}";
},
{
name = "CC_connectingstroke-Kannada";
transform = "{1, 0, 0, 1, 333, 5}";
}
);
layerId = "CB597D66-A4E1-4028-95A6-FF7586E7FD11";
name = "Regular Aug 25 15, 12:46";
paths = (
{
closed = 1;
nodes = (
"121 -157 OFFCURVE",
"274 -8 CURVE SMOOTH",
"333 49 OFFCURVE",
"377 118 OFFCURVE",
"384 132 CURVE SMOOTH",
"404 171 OFFCURVE",
"368 186 OFFCURVE",
"344 152 CURVE SMOOTH",
"311 107 OFFCURVE",
"254 54 OFFCURVE",
"214 54 CURVE SMOOTH",
"122 54 OFFCURVE",
"280 215 OFFCURVE",
"280 347 CURVE SMOOTH",
"280 425 OFFCURVE",
"244 463 OFFCURVE",
"198 463 CURVE SMOOTH",
"122 463 OFFCURVE",
"20 358 OFFCURVE",
"20 222 CURVE SMOOTH",
"20 180 OFFCURVE",
"47 124 OFFCURVE",
"102 124 CURVE SMOOTH",
"117 124 OFFCURVE",
"134 128 OFFCURVE",
"154 138 CURVE",
"202 235 LINE",
"186 223 OFFCURVE",
"169 217 OFFCURVE",
"153 217 CURVE SMOOTH",
"119 217 OFFCURVE",
"91 244 OFFCURVE",
"91 289 CURVE SMOOTH",
"91 340 OFFCURVE",
"120 367 OFFCURVE",
"148 367 CURVE SMOOTH",
"173 367 OFFCURVE",
"196 346 OFFCURVE",
"196 302 CURVE SMOOTH",
"196 231 OFFCURVE",
"156 144 OFFCURVE",
"122 70 CURVE SMOOTH",
"32 -129 OFFCURVE"
);
},
{
closed = 1;
nodes = (
"453 289 LINE",
"499 315 OFFCURVE",
"563 333 OFFCURVE",
"624 333 CURVE SMOOTH",
"660 333 OFFCURVE",
"674 327 OFFCURVE",
"696 311 CURVE SMOOTH",
"714 298 OFFCURVE",
"720 294 OFFCURVE",
"730 294 CURVE SMOOTH",
"764 294 OFFCURVE",
"804 340 OFFCURVE",
"804 378 CURVE SMOOTH",
"804 405 OFFCURVE",
"783 429 OFFCURVE",
"724 429 CURVE SMOOTH",
"579 429 OFFCURVE",
"391 287 OFFCURVE",
"381 215 CURVE"
);
},
{
closed = 1;
nodes = (
"579 -16 OFFCURVE",
"688 125 OFFCURVE",
"688 208 CURVE SMOOTH",
"688 263 OFFCURVE",
"650 316 OFFCURVE",
"550 316 CURVE SMOOTH",
"426 316 OFFCURVE",
"380 235 OFFCURVE",
"380 216 CURVE SMOOTH",
"380 207 OFFCURVE",
"389 204 OFFCURVE",
"396 204 CURVE SMOOTH",
"410 204 OFFCURVE",
"438 220 OFFCURVE",
"496 220 CURVE SMOOTH",
"574 220 OFFCURVE",
"602 191 OFFCURVE",
"602 157 CURVE SMOOTH",
"602 112 OFFCURVE",
"531 90 OFFCURVE",
"494 90 CURVE SMOOTH",
"437 90 OFFCURVE",
"399 122 OFFCURVE",
"389 159 CURVE",
"324 114 LINE",
"324 8 OFFCURVE",
"386 -16 OFFCURVE",
"441 -16 CURVE SMOOTH"
);
}
);
width = 824;
},
{
associatedMasterId = "59118767-2CA9-48AA-9373-694D24C960D8";
background = {
paths = (
{
closed = 1;
nodes = (
"646 253 OFFCURVE",
"623 282 OFFCURVE",
"592 282 CURVE SMOOTH",
"547 282 OFFCURVE",
"523 229 OFFCURVE",
"526 203 CURVE SMOOTH",
"527 192 OFFCURVE",
"559 183 OFFCURVE",
"559 140 CURVE SMOOTH",
"559 103 OFFCURVE",
"507 81 OFFCURVE",
"462 81 CURVE SMOOTH",
"423 81 OFFCURVE",
"391 106 OFFCURVE",
"375 157 CURVE",
"305 78 LINE",
"311 16 OFFCURVE",
"348 -14 OFFCURVE",
"418 -14 CURVE SMOOTH",
"522 -14 OFFCURVE",
"646 102 OFFCURVE",
"646 214 CURVE SMOOTH"
);
}
);
};
components = (
{
name = "CC_Ofirsthalf-kannada";
transform = "{1, 0, 0, 1, 30, 0}";
}
);
layerId = "EBF57A3F-6AD9-4BB7-8AAE-8D2EF8DFEACC";
name = "Regular Sep 19 15, 20:24";
paths = (
{
closed = 1;
nodes = (
"640 281 OFFCURVE",
"625 312 OFFCURVE",
"597 312 CURVE SMOOTH",
"554 312 OFFCURVE",
"519 235 OFFCURVE",
"519 215 CURVE SMOOTH",
"519 196 OFFCURVE",
"553 188 OFFCURVE",
"553 148 CURVE SMOOTH",
"553 93 OFFCURVE",
"490 81 OFFCURVE",
"459 81 CURVE SMOOTH",
"416 81 OFFCURVE",
"385 106 OFFCURVE",
"369 157 CURVE",
"299 78 LINE",
"304 15 OFFCURVE",
"348 -14 OFFCURVE",
"407 -14 CURVE SMOOTH",
"523 -14 OFFCURVE",
"640 97 OFFCURVE",
"640 232 CURVE SMOOTH"
);
}
);
width = 676;
}
);
leftKerningGroup = knO;
rightKerningGroup = knPA;
rightMetricsKey = knPA;
unicode = 0C92;
},
{
color = 4;
glyphname = knAU;
lastChange = "2015-11-09 08:39:25 +0000";
layers = (
{
components = (
{
disableAlignment = 1;
name = knO;
transform = "{1, 0, 0, 1, 10, 0}";
},
{
name = "CC-lenghtmark_Telugu";
transform = "{1, 0.036, -0.036, 1, 131, 208}";
}
);
layerId = "59118767-2CA9-48AA-9373-694D24C960D8";
name = Regular;
paths = (
{
closed = 1;
nodes = (
"266 591 LINE",
"324 592 OFFCURVE",
"329 521 OFFCURVE",
"299 488 CURVE SMOOTH",
"282 471 OFFCURVE",
"255 462 OFFCURVE",
"229 471 CURVE SMOOTH",
"227 472 OFFCURVE",
"226 471 OFFCURVE",
"224 471 CURVE",
"223 399 LINE",
"267 397 OFFCURVE",
"310 420 OFFCURVE",
"339 449 CURVE SMOOTH",
"380 491 OFFCURVE",
"400 555 OFFCURVE",
"381 614 CURVE"
);
}
);
width = 722;
}
);
leftKerningGroup = knO;
rightKerningGroup = knAU;
unicode = 0C94;
},
{
color = 4;
glyphname = knmAA;
lastChange = "2015-12-17 04:44:24 +0000";
layers = (
{
background = {
paths = (
{
closed = 1;
nodes = (
"741 336 LINE",
"601 305 OFFCURVE",
"481 172 OFFCURVE",
"481 80 CURVE SMOOTH",
"481 17 OFFCURVE",
"523 -14 OFFCURVE",
"574 -14 CURVE SMOOTH",
"704 -14 OFFCURVE",
"797 154 OFFCURVE",
"797 305 CURVE SMOOTH",
"797 527 OFFCURVE",
"650 619 OFFCURVE",
"479 619 CURVE SMOOTH",
"305 619 OFFCURVE",
"64 506 OFFCURVE",
"1 330 CURVE",
"55 330 LINE",
"103 462 OFFCURVE",
"283 528 OFFCURVE",
"428 528 CURVE SMOOTH",
"597 528 OFFCURVE",
"720 399 OFFCURVE",
"720 242 CURVE SMOOTH",
"720 167 OFFCURVE",
"688 90 OFFCURVE",
"625 90 CURVE SMOOTH",
"599 90 OFFCURVE",
"577 105 OFFCURVE",
"577 136 CURVE SMOOTH",
"577 201 OFFCURVE",
"661 248 OFFCURVE",
"737 237 CURVE"
);
}
);
};
layerId = "59118767-2CA9-48AA-9373-694D24C960D8";
name = Regular;
paths = (
{
closed = 1;
nodes = (
"741 336 LINE",
"601 305 OFFCURVE",
"481 172 OFFCURVE",
"481 80 CURVE SMOOTH",
"481 17 OFFCURVE",
"523 -14 OFFCURVE",
"574 -14 CURVE SMOOTH",
"704 -14 OFFCURVE",
"797 154 OFFCURVE",
"797 305 CURVE SMOOTH",
"797 527 OFFCURVE",
"650 619 OFFCURVE",
"479 619 CURVE SMOOTH",
"311 619 OFFCURVE",
"80 513 OFFCURVE",
"8 348 CURVE SMOOTH",
"-2 325 OFFCURVE",
"-6 314 OFFCURVE",
"18 305 CURVE SMOOTH",
"41 296 OFFCURVE",
"47 310 OFFCURVE",
"57 335 CURVE SMOOTH",
"108 464 OFFCURVE",
"285 528 OFFCURVE",
"428 528 CURVE SMOOTH",
"597 528 OFFCURVE",
"720 399 OFFCURVE",
"720 242 CURVE SMOOTH",
"720 167 OFFCURVE",
"688 90 OFFCURVE",
"625 90 CURVE SMOOTH",
"599 90 OFFCURVE",
"577 105 OFFCURVE",
"577 136 CURVE SMOOTH",
"577 201 OFFCURVE",
"661 248 OFFCURVE",
"737 237 CURVE"
);
}
);
width = 797;
}
);
unicode = 0CBE;
},
{
color = 4;
glyphname = knmI;
lastChange = "2015-12-17 04:44:32 +0000";
layers = (
{
layerId = "59118767-2CA9-48AA-9373-694D24C960D8";
name = Regular;
paths = (
{
closed = 1;
nodes = (
"105 567 OFFCURVE",
"76 586 OFFCURVE",
"76 629 CURVE SMOOTH",
"76 673 OFFCURVE",
"109 722 OFFCURVE",
"166 722 CURVE SMOOTH",
"212 722 OFFCURVE",
"235 695 OFFCURVE",
"235 661 CURVE SMOOTH",
"235 602 OFFCURVE",
"183 567 OFFCURVE",
"138 567 CURVE SMOOTH"
);
},
{
closed = 1;
nodes = (
"233 413 LINE",
"327 458 OFFCURVE",
"375 553 OFFCURVE",
"375 638 CURVE SMOOTH",
"375 726 OFFCURVE",
"322 804 OFFCURVE",
"214 804 CURVE SMOOTH",
"105 804 OFFCURVE",
"0 722 OFFCURVE",
"0 607 CURVE SMOOTH",
"0 524 OFFCURVE",
"51 493 OFFCURVE",
"114 493 CURVE SMOOTH",
"200 493 OFFCURVE",
"281 565 OFFCURVE",
"284 674 CURVE",
"297 653 OFFCURVE",
"303 630 OFFCURVE",
"303 606 CURVE SMOOTH",
"303 551 OFFCURVE",
"260 492 OFFCURVE",
"212 458 CURVE SMOOTH",
"203 451 OFFCURVE",
"187 446 OFFCURVE",
"183 440 CURVE"
);
}
);
width = 375;
}
);
unicode = 0CBF;
},
{
color = 4;
glyphname = knmII;
lastChange = "2015-12-17 04:44:41 +0000";
layers = (
{
components = (
{
name = knLengthmark;
transform = "{1, 0, 0, 1, 377, 0}";
}
);
layerId = "59118767-2CA9-48AA-9373-694D24C960D8";
name = Regular;
paths = (
{
closed = 1;
nodes = (
"105 567 OFFCURVE",
"76 586 OFFCURVE",
"76 629 CURVE SMOOTH",
"76 673 OFFCURVE",
"109 722 OFFCURVE",
"166 722 CURVE SMOOTH",
"212 722 OFFCURVE",
"235 695 OFFCURVE",
"235 661 CURVE SMOOTH",
"235 602 OFFCURVE",
"183 567 OFFCURVE",
"138 567 CURVE SMOOTH"
);
},
{
closed = 1;
nodes = (
"233 413 LINE",
"327 458 OFFCURVE",
"375 553 OFFCURVE",
"375 638 CURVE SMOOTH",
"375 726 OFFCURVE",
"322 804 OFFCURVE",
"214 804 CURVE SMOOTH",
"105 804 OFFCURVE",
"0 722 OFFCURVE",
"0 607 CURVE SMOOTH",
"0 524 OFFCURVE",
"51 493 OFFCURVE",
"114 493 CURVE SMOOTH",
"200 493 OFFCURVE",
"281 565 OFFCURVE",
"284 674 CURVE",
"297 653 OFFCURVE",
"303 630 OFFCURVE",
"303 606 CURVE SMOOTH",
"303 551 OFFCURVE",
"260 492 OFFCURVE",
"212 458 CURVE SMOOTH",
"203 451 OFFCURVE",
"187 446 OFFCURVE",
"183 440 CURVE"
);
}
);
width = 792;
}
);
unicode = 0CC0;
},
{
color = 4;
glyphname = knmU;
lastChange = "2015-12-17 04:44:54 +0000";
layers = (
{
layerId = "59118767-2CA9-48AA-9373-694D24C960D8";
name = Regular;
paths = (
{
closed = 1;
nodes = (
"272 -12 OFFCURVE",
"399 103 OFFCURVE",
"399 267 CURVE SMOOTH",
"399 377 OFFCURVE",
"346 464 OFFCURVE",
"289 464 CURVE SMOOTH",
"253 464 OFFCURVE",
"214 412 OFFCURVE",
"214 379 CURVE SMOOTH",
"214 365 OFFCURVE",
"221 359 OFFCURVE",
"227 355 CURVE SMOOTH",
"263 327 OFFCURVE",
"315 292 OFFCURVE",
"315 211 CURVE SMOOTH",
"315 117 OFFCURVE",
"249 85 OFFCURVE",
"183 85 CURVE SMOOTH",
"147 85 OFFCURVE",
"118 95 OFFCURVE",
"93 126 CURVE SMOOTH",
"76 147 OFFCURVE",
"74 161 OFFCURVE",
"60 161 CURVE SMOOTH",
"34 161 OFFCURVE",
"0 132 OFFCURVE",
"0 97 CURVE SMOOTH",
"0 45 OFFCURVE",
"59 -12 OFFCURVE",
"140 -12 CURVE SMOOTH"
);
}
);
width = 399;
}
);
unicode = 0CC1;
},
{
color = 4;
glyphname = knmvR;
lastChange = "2015-12-11 03:44:34 +0000";
layers = (
{
layerId = "59118767-2CA9-48AA-9373-694D24C960D8";
name = Regular;
paths = (
{
closed = 1;
nodes = (
"-80 -183 OFFCURVE",
"-100 -178 OFFCURVE",
"-112 -169 CURVE SMOOTH",
"-123 -160 OFFCURVE",
"-127 -149 OFFCURVE",
"-127 -137 CURVE SMOOTH",
"-127 -95 OFFCURVE",
"-90 -72 OFFCURVE",
"-54 -72 CURVE SMOOTH",
"-19 -72 OFFCURVE",
"17 -92 OFFCURVE",
"17 -131 CURVE SMOOTH",
"17 -157 OFFCURVE",
"-6 -183 OFFCURVE",
"-53 -183 CURVE SMOOTH"
);
},
{
closed = 1;
nodes = (
"-215 -101 OFFCURVE",
"-215 -215 CURVE SMOOTH",
"-215 -302 OFFCURVE",
"-151 -382 OFFCURVE",
"-49 -382 CURVE SMOOTH",
"101 -382 OFFCURVE",
"214 -230 OFFCURVE",
"214 -53 CURVE SMOOTH",
"214 95 OFFCURVE",
"142 223 OFFCURVE",
"75 223 CURVE SMOOTH",
"54 223 OFFCURVE",
"31 205 OFFCURVE",
"23 197 CURVE SMOOTH",
"12 187 OFFCURVE",
"7 178 OFFCURVE",
"7 170 CURVE SMOOTH",
"7 159 OFFCURVE",
"134 74 OFFCURVE",
"134 -102 CURVE SMOOTH",
"134 -204 OFFCURVE",
"76 -299 OFFCURVE",
"-17 -299 CURVE SMOOTH",
"-73 -299 OFFCURVE",
"-127 -267 OFFCURVE",
"-127 -206 CURVE",
"-161 -203 LINE",
"-135 -231 OFFCURVE",
"-100 -244 OFFCURVE",
"-64 -244 CURVE SMOOTH",
"11 -244 OFFCURVE",
"88 -190 OFFCURVE",
"88 -106 CURVE SMOOTH",
"88 -56 OFFCURVE",
"55 5 OFFCURVE",
"-22 5 CURVE SMOOTH",
"-137 5 OFFCURVE"
);
}
);
width = 244;
},
{
associatedMasterId = "59118767-2CA9-48AA-9373-694D24C960D8";
layerId = "AA93CE1F-0D85-4A12-B35A-17A0587F16A9";
name = "Regular Oct 29 15, 20:07";
paths = (
{
closed = 1;
nodes = (
"-142 -292 OFFCURVE",
"-174 -243 OFFCURVE",
"-174 -199 CURVE SMOOTH",
"-174 -156 OFFCURVE",
"-145 -137 OFFCURVE",
"-112 -137 CURVE SMOOTH",
"-67 -137 OFFCURVE",
"-15 -173 OFFCURVE",
"-15 -229 CURVE SMOOTH",
"-15 -268 OFFCURVE",
"-41 -292 OFFCURVE",
"-83 -292 CURVE SMOOTH"
);
},
{
closed = 1;
nodes = (
"147 38 OFFCURVE",
"84 175 OFFCURVE",
"-16 268 CURVE SMOOTH",
"-58 308 OFFCURVE",
"-94 245 OFFCURVE",
"-59 211 CURVE SMOOTH",
"7 148 OFFCURVE",
"54 46 OFFCURVE",
"54 -69 CURVE SMOOTH",
"54 -144 OFFCURVE",
"34 -233 OFFCURVE",
"-13 -301 CURVE",
"30 -295 LINE",
"55 -143 OFFCURVE",
"-52 -60 OFFCURVE",
"-141 -60 CURVE SMOOTH",
"-214 -60 OFFCURVE",
"-250 -114 OFFCURVE",
"-250 -178 CURVE SMOOTH",
"-250 -286 OFFCURVE",
"-145 -375 OFFCURVE",
"-45 -375 CURVE SMOOTH",
"87 -375 OFFCURVE",
"147 -258 OFFCURVE",
"147 -118 CURVE SMOOTH"
);
}
);
width = 147;
},
{
associatedMasterId = "59118767-2CA9-48AA-9373-694D24C960D8";
layerId = "5BAF2A1F-2814-4B3C-BDC8-62359BC73731";
name = "Regular Dec 8 15, 21:06";
paths = (
{
closed = 1;
nodes = (
"-60 -85 OFFCURVE",
"-80 -80 OFFCURVE",
"-92 -71 CURVE SMOOTH",
"-103 -62 OFFCURVE",
"-107 -51 OFFCURVE",
"-107 -39 CURVE SMOOTH",
"-107 3 OFFCURVE",
"-70 26 OFFCURVE",
"-34 26 CURVE SMOOTH",
"1 26 OFFCURVE",
"37 6 OFFCURVE",
"37 -33 CURVE SMOOTH",
"37 -59 OFFCURVE",
"14 -85 OFFCURVE",
"-33 -85 CURVE SMOOTH"
);
},
{
closed = 1;
nodes = (
"-195 -3 OFFCURVE",
"-195 -117 CURVE SMOOTH",
"-195 -204 OFFCURVE",
"-144 -284 OFFCURVE",
"-29 -284 CURVE SMOOTH",
"121 -284 OFFCURVE",
"234 -132 OFFCURVE",
"234 41 CURVE SMOOTH",
"234 182 OFFCURVE",
"162 310 OFFCURVE",
"95 310 CURVE SMOOTH",
"74 310 OFFCURVE",
"51 292 OFFCURVE",
"43 284 CURVE SMOOTH",
"32 274 OFFCURVE",
"27 265 OFFCURVE",
"27 257 CURVE SMOOTH",
"27 246 OFFCURVE",
"154 161 OFFCURVE",
"154 -8 CURVE SMOOTH",
"154 -106 OFFCURVE",
"96 -201 OFFCURVE",
"3 -201 CURVE SMOOTH",
"-53 -201 OFFCURVE",
"-107 -169 OFFCURVE",
"-107 -108 CURVE",
"-141 -105 LINE",
"-115 -133 OFFCURVE",
"-80 -146 OFFCURVE",
"-44 -146 CURVE SMOOTH",
"31 -146 OFFCURVE",
"108 -92 OFFCURVE",
"108 -8 CURVE SMOOTH",
"108 42 OFFCURVE",
"75 101 OFFCURVE",
"-2 101 CURVE SMOOTH",
"-117 101 OFFCURVE"
);
}
);
width = 279;
}
);
leftKerningGroup = knmvR;
rightKerningGroup = knmvR;
unicode = 0CC3;
},
{
color = 4;
glyphname = knmE;
lastChange = "2015-12-17 04:43:43 +0000";
layers = (
{
layerId = "59118767-2CA9-48AA-9373-694D24C960D8";
name = Regular;
paths = (
{
closed = 1;
nodes = (
"424 717 OFFCURVE",
"354 593 OFFCURVE",
"394 492 CURVE",
"410 480 OFFCURVE",
"430 492 OFFCURVE",
"436 503 CURVE",
"351 475 OFFCURVE",
"105 499 OFFCURVE",
"51 519 CURVE SMOOTH",
"32 526 OFFCURVE",
"28 527 OFFCURVE",
"8 487 CURVE SMOOTH",
"3 477 OFFCURVE",
"0 467 OFFCURVE",
"0 458 CURVE SMOOTH",
"0 436 OFFCURVE",
"16 420 OFFCURVE",
"50 416 CURVE SMOOTH",
"133 407 OFFCURVE",
"356 407 OFFCURVE",
"430 421 CURVE SMOOTH",
"549 443 OFFCURVE",
"644 501 OFFCURVE",
"644 613 CURVE SMOOTH",
"644 669 OFFCURVE",
"605 717 OFFCURVE",
"533 717 CURVE SMOOTH"
);
},
{
closed = 1;
nodes = (
"574 533 OFFCURVE",
"539 512 OFFCURVE",
"504 512 CURVE SMOOTH",
"462 512 OFFCURVE",
"442 540 OFFCURVE",
"442 570 CURVE SMOOTH",
"442 610 OFFCURVE",
"466 637 OFFCURVE",
"513 637 CURVE SMOOTH",
"550 637 OFFCURVE",
"574 612 OFFCURVE",
"574 576 CURVE SMOOTH"
);
}
);
width = 644;
}
);
unicode = 0CC6;
},
{
color = 4;
glyphname = knmAI;
lastChange = "2015-12-17 04:43:16 +0000";
layers = (
{
layerId = "59118767-2CA9-48AA-9373-694D24C960D8";
name = Regular;
paths = (
{
closed = 1;
nodes = (
"424 717 OFFCURVE",
"354 593 OFFCURVE",
"394 492 CURVE",
"410 480 OFFCURVE",
"430 492 OFFCURVE",
"436 503 CURVE",
"351 475 OFFCURVE",
"105 499 OFFCURVE",
"51 519 CURVE SMOOTH",
"32 526 OFFCURVE",
"28 527 OFFCURVE",
"8 487 CURVE SMOOTH",
"-9 452 OFFCURVE",
"2 421 OFFCURVE",
"50 416 CURVE SMOOTH",
"133 407 OFFCURVE",
"356 407 OFFCURVE",
"430 421 CURVE SMOOTH",
"549 443 OFFCURVE",
"639 499 OFFCURVE",
"644 607 CURVE SMOOTH",
"647 665 OFFCURVE",
"608 717 OFFCURVE",
"533 717 CURVE SMOOTH"
);
},
{
closed = 1;
nodes = (
"574 533 OFFCURVE",
"539 512 OFFCURVE",
"504 512 CURVE SMOOTH",
"462 512 OFFCURVE",
"442 540 OFFCURVE",
"442 570 CURVE SMOOTH",
"442 610 OFFCURVE",
"466 637 OFFCURVE",
"513 637 CURVE SMOOTH",
"550 637 OFFCURVE",
"574 612 OFFCURVE",
"574 576 CURVE SMOOTH"
);
},
{
closed = 1;
nodes = (
"455 -336 OFFCURVE",
"440 -338 OFFCURVE",
"423 -338 CURVE SMOOTH",
"363 -338 OFFCURVE",
"338 -305 OFFCURVE",
"338 -279 CURVE SMOOTH",
"338 -258 OFFCURVE",
"354 -240 OFFCURVE",
"385 -240 CURVE SMOOTH",
"424 -240 OFFCURVE",
"469 -270 OFFCURVE",
"469 -328 CURVE SMOOTH",
"469 -331 LINE"
);
},
{
closed = 1;
nodes = (
"480 -30 OFFCURVE",
"428 -60 OFFCURVE",
"428 -93 CURVE SMOOTH",
"428 -101 OFFCURVE",
"434 -105 OFFCURVE",
"443 -105 CURVE SMOOTH",
"451 -105 OFFCURVE",
"461 -100 OFFCURVE",
"484 -100 CURVE SMOOTH",
"551 -100 OFFCURVE",
"583 -123 OFFCURVE",
"583 -190 CURVE SMOOTH",
"583 -237 OFFCURVE",
"560 -280 OFFCURVE",
"512 -310 CURVE",
"517 -290 OFFCURVE",
"519 -272 OFFCURVE",
"519 -255 CURVE SMOOTH",
"519 -181 OFFCURVE",
"480 -147 OFFCURVE",
"424 -147 CURVE SMOOTH",
"331 -147 OFFCURVE",
"266 -243 OFFCURVE",
"266 -323 CURVE SMOOTH",
"266 -379 OFFCURVE",
"298 -428 OFFCURVE",
"373 -428 CURVE SMOOTH",
"521 -428 OFFCURVE",
"677 -273 OFFCURVE",
"677 -129 CURVE SMOOTH",
"677 -55 OFFCURVE",
"619 -23 OFFCURVE",
"540 -22 CURVE"
);
},
{
closed = 1;
nodes = (
"573 -28 LINE",
"625 3 OFFCURVE",
"671 65 OFFCURVE",
"671 108 CURVE SMOOTH",
"671 134 OFFCURVE",
"660 153 OFFCURVE",
"636 153 CURVE SMOOTH",
"613 153 OFFCURVE",
"562 120 OFFCURVE",
"562 103 CURVE SMOOTH",
"562 45 OFFCURVE",
"543 -17 OFFCURVE",
"466 -45 CURVE"
);
}
);
width = 677;
}
);
unicode = 0CC8;
},
{
color = 4;
glyphname = knLengthmark;
lastChange = "2015-11-09 17:39:53 +0000";
layers = (
{
background = {
paths = (
{
closed = 1;
nodes = (
"346 79 OFFCURVE",
"327 79 CURVE SMOOTH",
"323 79 OFFCURVE",
"318 76 OFFCURVE",
"310 70 CURVE SMOOTH",
"280 47 OFFCURVE",
"251 39 OFFCURVE",
"221 39 CURVE SMOOTH",
"141 39 OFFCURVE",
"98 106 OFFCURVE",
"98 200 CURVE SMOOTH",
"98 320 OFFCURVE",
"180 389 OFFCURVE",
"256 389 CURVE SMOOTH",
"303 389 OFFCURVE",
"325 357 OFFCURVE",
"325 325 CURVE SMOOTH",
"325 295 OFFCURVE",
"304 264 OFFCURVE",
"267 264 CURVE SMOOTH",
"234 264 OFFCURVE",
"219 293 OFFCURVE",
"208 297 CURVE SMOOTH",
"193 302 OFFCURVE",
"129 280 OFFCURVE",
"129 231 CURVE SMOOTH",
"129 202 OFFCURVE",
"152 177 OFFCURVE",
"204 177 CURVE SMOOTH",
"307 177 OFFCURVE",
"415 284 OFFCURVE",
"415 374 CURVE SMOOTH",
"415 434 OFFCURVE",
"376 482 OFFCURVE",
"294 482 CURVE SMOOTH",
"133 482 OFFCURVE",
"10 294 OFFCURVE",
"10 133 CURVE SMOOTH",
"10 24 OFFCURVE",
"65 -50 OFFCURVE",
"168 -50 CURVE SMOOTH",
"259 -50 OFFCURVE",
"354 11 OFFCURVE",
"354 54 CURVE SMOOTH",
"354 67 OFFCURVE"
);
}
);
};
guideLines = (
{
angle = 90;
position = "{415, 94}";
}
);
layerId = "59118767-2CA9-48AA-9373-694D24C960D8";
name = Regular;
paths = (
{
closed = 1;
nodes = (
"407 132 OFFCURVE",
"392 132 CURVE SMOOTH",
"388 132 OFFCURVE",
"383 131 OFFCURVE",
"375 123 CURVE SMOOTH",
"347 95 OFFCURVE",
"298 39 OFFCURVE",
"221 39 CURVE SMOOTH",
"137 39 OFFCURVE",
"98 112 OFFCURVE",
"98 192 CURVE SMOOTH",
"98 286 OFFCURVE",
"167 389 OFFCURVE",
"256 389 CURVE SMOOTH",
"303 389 OFFCURVE",
"325 357 OFFCURVE",
"325 325 CURVE SMOOTH",
"325 295 OFFCURVE",
"304 264 OFFCURVE",
"267 264 CURVE SMOOTH",
"234 264 OFFCURVE",
"219 293 OFFCURVE",
"208 297 CURVE SMOOTH",
"193 302 OFFCURVE",
"129 280 OFFCURVE",
"129 231 CURVE SMOOTH",
"129 202 OFFCURVE",
"152 177 OFFCURVE",
"204 177 CURVE SMOOTH",
"307 177 OFFCURVE",
"415 284 OFFCURVE",
"415 374 CURVE SMOOTH",
"415 444 OFFCURVE",
"366 481 OFFCURVE",
"302 481 CURVE SMOOTH",
"182 481 OFFCURVE",
"10 354 OFFCURVE",
"10 133 CURVE SMOOTH",
"10 24 OFFCURVE",
"65 -50 OFFCURVE",
"168 -50 CURVE SMOOTH",
"302 -50 OFFCURVE",
"415 78 OFFCURVE",
"415 107 CURVE SMOOTH",
"415 120 OFFCURVE"
);
}
);
width = 445;
},
{
associatedMasterId = "59118767-2CA9-48AA-9373-694D24C960D8";
layerId = "92A23BEA-ED36-4452-8459-C2C2C6A631D9";
name = "Regular Sep 23 15, 20:37";
paths = (
{
closed = 1;
nodes = (
"85 219 LINE",
"110 227 OFFCURVE",
"133 236 OFFCURVE",
"154 244 CURVE SMOOTH",
"280 294 OFFCURVE",
"341 367 OFFCURVE",
"341 438 CURVE SMOOTH",
"341 500 OFFCURVE",
"296 524 OFFCURVE",
"252 524 CURVE SMOOTH",
"140 524 OFFCURVE",
"58 366 OFFCURVE",
"58 223 CURVE SMOOTH",
"58 181 OFFCURVE",
"65 137 OFFCURVE",
"81 94 CURVE SMOOTH",
"127 -28 OFFCURVE",
"218 -57 OFFCURVE",
"254 -57 CURVE SMOOTH",
"293 -57 OFFCURVE",
"317 -24 OFFCURVE",
"317 11 CURVE SMOOTH",
"317 28 OFFCURVE",
"311 22 OFFCURVE",
"285 31 CURVE SMOOTH",
"244 45 OFFCURVE",
"199 81 OFFCURVE",
"168 145 CURVE SMOOTH",
"144 195 OFFCURVE",
"134 250 OFFCURVE",
"134 298 CURVE SMOOTH",
"134 361 OFFCURVE",
"152 434 OFFCURVE",
"204 434 CURVE SMOOTH",
"231 434 OFFCURVE",
"253 414 OFFCURVE",
"253 389 CURVE SMOOTH",
"253 368 OFFCURVE",
"237 334 OFFCURVE",
"165 305 CURVE SMOOTH",
"144 296 OFFCURVE",
"117 288 OFFCURVE",
"85 281 CURVE"
);
}
);
width = 555;
},
{
associatedMasterId = "59118767-2CA9-48AA-9373-694D24C960D8";
background = {
paths = (
{
closed = 1;
nodes = (
"102 -13 OFFCURVE",
"197 -13 CURVE SMOOTH",
"265 -13 OFFCURVE",
"341 15 OFFCURVE",
"395 75 CURVE SMOOTH",
"418 99 OFFCURVE",
"437 133 OFFCURVE",
"437 153 CURVE SMOOTH",
"437 165 OFFCURVE",
"431 173 OFFCURVE",
"416 173 CURVE SMOOTH",
"404 173 OFFCURVE",
"396 166 OFFCURVE",
"385 152 CURVE",
"345 106 OFFCURVE",
"302 80 OFFCURVE",
"247 80 CURVE SMOOTH",
"176 80 OFFCURVE",
"121 124 OFFCURVE",
"121 207 CURVE SMOOTH",
"121 296 OFFCURVE",
"175 376 OFFCURVE",
"252 376 CURVE SMOOTH",
"279 376 OFFCURVE",
"292 358 OFFCURVE",
"292 338 CURVE SMOOTH",
"292 315 OFFCURVE",
"276 288 OFFCURVE",
"248 280 CURVE SMOOTH",
"233 275 OFFCURVE",
"221 278 OFFCURVE",
"218 275 CURVE SMOOTH",
"200 252 OFFCURVE",
"212 216 OFFCURVE",
"249 220 CURVE SMOOTH",
"335 230 OFFCURVE",
"394 298 OFFCURVE",
"394 363 CURVE SMOOTH",
"394 423 OFFCURVE",
"349 463 OFFCURVE",
"284 463 CURVE SMOOTH",
"153 463 OFFCURVE",
"22 301 OFFCURVE",
"22 154 CURVE SMOOTH",
"22 43 OFFCURVE"
);
}
);
};
layerId = "3BE1A6D6-1745-4342-896B-E1C8E6839AFC";
name = "Regular Sep 23 15, 20:40";
paths = (
{
closed = 1;
nodes = (
"102 -13 OFFCURVE",
"197 -13 CURVE SMOOTH",
"265 -13 OFFCURVE",
"341 15 OFFCURVE",
"395 75 CURVE SMOOTH",
"418 99 OFFCURVE",
"437 133 OFFCURVE",
"437 153 CURVE SMOOTH",
"437 165 OFFCURVE",
"431 173 OFFCURVE",
"416 173 CURVE SMOOTH",
"404 173 OFFCURVE",
"396 166 OFFCURVE",
"385 152 CURVE",
"345 106 OFFCURVE",
"302 80 OFFCURVE",
"247 80 CURVE SMOOTH",
"176 80 OFFCURVE",
"121 124 OFFCURVE",
"121 207 CURVE SMOOTH",
"121 296 OFFCURVE",
"175 376 OFFCURVE",
"252 376 CURVE SMOOTH",
"279 376 OFFCURVE",
"292 358 OFFCURVE",
"292 338 CURVE SMOOTH",
"292 315 OFFCURVE",
"276 288 OFFCURVE",
"248 280 CURVE SMOOTH",
"233 275 OFFCURVE",
"221 278 OFFCURVE",
"218 275 CURVE SMOOTH",
"200 252 OFFCURVE",
"212 216 OFFCURVE",
"249 220 CURVE SMOOTH",
"335 230 OFFCURVE",
"394 298 OFFCURVE",
"394 363 CURVE SMOOTH",
"394 423 OFFCURVE",
"349 463 OFFCURVE",
"284 463 CURVE SMOOTH",
"153 463 OFFCURVE",
"22 301 OFFCURVE",
"22 154 CURVE SMOOTH",
"22 43 OFFCURVE"
);
}
);
width = 555;
},
{
associatedMasterId = "59118767-2CA9-48AA-9373-694D24C960D8";
background = {
paths = (
{
closed = 1;
nodes = (
"102 -13 OFFCURVE",
"197 -13 CURVE SMOOTH",
"265 -13 OFFCURVE",
"341 15 OFFCURVE",
"395 75 CURVE SMOOTH",
"418 99 OFFCURVE",
"437 133 OFFCURVE",
"437 153 CURVE SMOOTH",
"437 165 OFFCURVE",
"431 173 OFFCURVE",
"416 173 CURVE SMOOTH",
"404 173 OFFCURVE",
"396 166 OFFCURVE",
"385 152 CURVE",
"345 106 OFFCURVE",
"302 80 OFFCURVE",
"247 80 CURVE SMOOTH",
"176 80 OFFCURVE",
"121 124 OFFCURVE",
"121 207 CURVE SMOOTH",
"121 296 OFFCURVE",
"175 376 OFFCURVE",
"252 376 CURVE SMOOTH",
"279 376 OFFCURVE",
"292 358 OFFCURVE",
"292 338 CURVE SMOOTH",
"292 315 OFFCURVE",
"276 288 OFFCURVE",
"248 280 CURVE SMOOTH",
"233 275 OFFCURVE",
"221 278 OFFCURVE",
"218 275 CURVE SMOOTH",
"200 252 OFFCURVE",
"212 216 OFFCURVE",
"249 220 CURVE SMOOTH",
"335 230 OFFCURVE",
"394 298 OFFCURVE",
"394 363 CURVE SMOOTH",
"394 423 OFFCURVE",
"349 463 OFFCURVE",
"284 463 CURVE SMOOTH",
"153 463 OFFCURVE",
"22 301 OFFCURVE",
"22 154 CURVE SMOOTH",
"22 43 OFFCURVE"
);
}
);
};
layerId = "CAEB04B0-AABC-4A54-94D3-31D8CA3478E1";
name = "Regular Sep 23 15, 20:41";
paths = (
{
closed = 1;
nodes = (
"102 -13 OFFCURVE",
"197 -13 CURVE SMOOTH",
"265 -13 OFFCURVE",
"341 15 OFFCURVE",
"395 75 CURVE SMOOTH",
"418 99 OFFCURVE",
"437 133 OFFCURVE",
"437 153 CURVE SMOOTH",
"437 165 OFFCURVE",
"431 173 OFFCURVE",
"416 173 CURVE SMOOTH",
"404 173 OFFCURVE",
"396 166 OFFCURVE",
"385 152 CURVE",
"345 106 OFFCURVE",
"302 80 OFFCURVE",
"247 80 CURVE SMOOTH",
"176 80 OFFCURVE",
"121 124 OFFCURVE",
"121 228 CURVE SMOOTH",
"121 346 OFFCURVE",
"205 436 OFFCURVE",
"282 436 CURVE SMOOTH",
"309 436 OFFCURVE",
"322 418 OFFCURVE",
"322 398 CURVE SMOOTH",
"322 375 OFFCURVE",
"306 348 OFFCURVE",
"278 340 CURVE SMOOTH",
"263 335 OFFCURVE",
"251 338 OFFCURVE",
"248 335 CURVE SMOOTH",
"230 312 OFFCURVE",
"242 276 OFFCURVE",
"279 280 CURVE SMOOTH",
"365 290 OFFCURVE",
"424 358 OFFCURVE",
"424 423 CURVE SMOOTH",
"424 483 OFFCURVE",
"379 523 OFFCURVE",
"314 523 CURVE SMOOTH",
"183 523 OFFCURVE",
"22 351 OFFCURVE",
"22 175 CURVE SMOOTH",
"22 43 OFFCURVE"
);
}
);
width = 555;
},
{
associatedMasterId = "59118767-2CA9-48AA-9373-694D24C960D8";
background = {
paths = (
{
closed = 1;
nodes = (
"363 256 LINE",
"398 302 OFFCURVE",
"418 354 OFFCURVE",
"418 399 CURVE SMOOTH",
"418 483 OFFCURVE",
"358 524 OFFCURVE",
"292 524 CURVE SMOOTH",
"188 524 OFFCURVE",
"121 428 OFFCURVE",
"121 333 CURVE SMOOTH",
"121 231 OFFCURVE",
"193 180 OFFCURVE",
"306 180 CURVE SMOOTH",
"379 180 OFFCURVE",
"472 186 OFFCURVE",
"583 186 CURVE SMOOTH",
"647 186 OFFCURVE",
"731 169 OFFCURVE",
"731 96 CURVE SMOOTH",
"731 58 OFFCURVE",
"698 39 OFFCURVE",
"662 39 CURVE SMOOTH",
"620 39 OFFCURVE",
"575 65 OFFCURVE",
"575 117 CURVE SMOOTH",
"575 142 OFFCURVE",
"583 173 OFFCURVE",
"597 207 CURVE SMOOTH",
"612 245 OFFCURVE",
"642 302 OFFCURVE",
"664 346 CURVE SMOOTH",
"688 394 OFFCURVE",
"664 453 OFFCURVE",
"577 461 CURVE SMOOTH",
"565 463 OFFCURVE",
"547 471 OFFCURVE",
"535 459 CURVE",
"503 419 OFFCURVE",
"482 373 OFFCURVE",
"539 360 CURVE SMOOTH",
"575 352 OFFCURVE",
"588 330 OFFCURVE",
"570 295 CURVE SMOOTH",
"545 246 OFFCURVE",
"486 127 OFFCURVE",
"486 65 CURVE SMOOTH",
"486 -14 OFFCURVE",
"551 -51 OFFCURVE",
"615 -51 CURVE SMOOTH",
"724 -51 OFFCURVE",
"817 48 OFFCURVE",
"817 141 CURVE SMOOTH",
"817 254 OFFCURVE",
"719 282 OFFCURVE",
"596 273 CURVE SMOOTH",
"550 270 OFFCURVE",
"491 265 OFFCURVE",
"417 265 CURVE SMOOTH",
"308 265 OFFCURVE",
"198 284 OFFCURVE",
"198 374 CURVE SMOOTH",
"198 407 OFFCURVE",
"221 432 OFFCURVE",
"252 432 CURVE SMOOTH",
"289 432 OFFCURVE",
"328 391 OFFCURVE",
"328 335 CURVE SMOOTH",
"328 313 OFFCURVE",
"321 289 OFFCURVE",
"305 262 CURVE"
);
}
);
};
layerId = "3B612DA4-7BAD-48D6-BA53-1C6C451B8AA3";
name = "Regular Sep 23 15, 20:57";
paths = (
{
closed = 1;
nodes = (
"80 -53 OFFCURVE",
"175 -53 CURVE SMOOTH",
"243 -53 OFFCURVE",
"319 -25 OFFCURVE",
"373 35 CURVE SMOOTH",
"396 59 OFFCURVE",
"415 93 OFFCURVE",
"415 113 CURVE SMOOTH",
"415 125 OFFCURVE",
"409 133 OFFCURVE",
"394 133 CURVE SMOOTH",
"382 133 OFFCURVE",
"374 126 OFFCURVE",
"363 112 CURVE",
"323 66 OFFCURVE",
"280 40 OFFCURVE",
"225 40 CURVE SMOOTH",
"154 40 OFFCURVE",
"89 84 OFFCURVE",
"89 188 CURVE SMOOTH",
"89 317 OFFCURVE",
"170 396 OFFCURVE",
"260 396 CURVE SMOOTH",
"347 396 OFFCURVE",
"337 274 OFFCURVE",
"245 274 CURVE SMOOTH",
"183 274 OFFCURVE",
"144 315 OFFCURVE",
"141 368 CURVE",
"108 352 OFFCURVE",
"79 268 OFFCURVE",
"100 240 CURVE",
"218 132 OFFCURVE",
"402 240 OFFCURVE",
"402 383 CURVE SMOOTH",
"402 443 OFFCURVE",
"357 483 OFFCURVE",
"292 483 CURVE SMOOTH",
"161 483 OFFCURVE",
"0 311 OFFCURVE",
"0 135 CURVE SMOOTH",
"0 3 OFFCURVE"
);
}
);
width = 450;
},
{
associatedMasterId = "59118767-2CA9-48AA-9373-694D24C960D8";
background = {
paths = (
{
closed = 1;
nodes = (
"415 480 OFFCURVE",
"387 520 OFFCURVE",
"354 542 CURVE",
"265 476 LINE",
"305 450 OFFCURVE",
"321 420 OFFCURVE",
"321 369 CURVE SMOOTH",
"321 306 OFFCURVE",
"297 264 OFFCURVE",
"258 264 CURVE SMOOTH",
"225 264 OFFCURVE",
"210 293 OFFCURVE",
"199 297 CURVE SMOOTH",
"184 302 OFFCURVE",
"120 280 OFFCURVE",
"120 231 CURVE SMOOTH",
"120 202 OFFCURVE",
"143 177 OFFCURVE",
"195 177 CURVE SMOOTH",
"308 177 OFFCURVE",
"415 298 OFFCURVE",
"415 418 CURVE SMOOTH"
);
}
);
};
layerId = "53E1D4A6-7DBD-4DFE-9EC7-C9D3F4248FB1";
name = "Regular Oct 26 15, 20:27";
paths = (
{
closed = 1;
nodes = (
"137 279 OFFCURVE",
"123 246 CURVE SMOOTH",
"107 208 OFFCURVE",
"111 146 OFFCURVE",
"168 146 CURVE SMOOTH",
"267 146 OFFCURVE",
"406 267 OFFCURVE",
"406 374 CURVE SMOOTH",
"406 434 OFFCURVE",
"367 482 OFFCURVE",
"285 482 CURVE SMOOTH",
"123 482 OFFCURVE",
"-4 291 OFFCURVE",
"-4 145 CURVE SMOOTH",
"-4 20 OFFCURVE",
"82 -50 OFFCURVE",
"184 -50 CURVE SMOOTH",
"237 -50 OFFCURVE",
"295 -31 OFFCURVE",
"347 8 CURVE SMOOTH",
"372 27 OFFCURVE",
"402 56 OFFCURVE",
"402 82 CURVE SMOOTH",
"402 95 OFFCURVE",
"397 106 OFFCURVE",
"387 106 CURVE SMOOTH",
"368 106 OFFCURVE",
"323 46 OFFCURVE",
"225 46 CURVE SMOOTH",
"154 46 OFFCURVE",
"89 96 OFFCURVE",
"89 200 CURVE SMOOTH",
"89 320 OFFCURVE",
"171 389 OFFCURVE",
"247 389 CURVE SMOOTH",
"303 389 OFFCURVE",
"339 321 OFFCURVE",
"292 278 CURVE SMOOTH",
"268 256 OFFCURVE",
"235 244 OFFCURVE",
"198 244 CURVE SMOOTH",
"138 244 OFFCURVE"
);
}
);
width = 451;
},
{
associatedMasterId = "59118767-2CA9-48AA-9373-694D24C960D8";
background = {
paths = (
{
closed = 1;
nodes = (
"262 -29 LINE",
"315 4 OFFCURVE",
"352 47 OFFCURVE",
"352 73 CURVE SMOOTH",
"352 91 OFFCURVE",
"334 102 OFFCURVE",
"320 102 CURVE SMOOTH",
"312 102 OFFCURVE",
"306 99 OFFCURVE",
"303 95 CURVE SMOOTH",
"281 65 OFFCURVE",
"267 52 OFFCURVE",
"245 46 CURVE"
);
}
);
};
layerId = "571141D6-D027-4460-BF18-F23FA2E95285";
name = "Regular Oct 26 15, 21:34";
paths = (
{
closed = 1;
nodes = (
"368 106 OFFCURVE",
"323 46 OFFCURVE",
"225 46 CURVE SMOOTH",
"154 46 OFFCURVE",
"89 96 OFFCURVE",
"89 200 CURVE SMOOTH",
"89 320 OFFCURVE",
"171 389 OFFCURVE",
"247 389 CURVE SMOOTH",
"294 389 OFFCURVE",
"316 357 OFFCURVE",
"316 325 CURVE SMOOTH",
"316 295 OFFCURVE",
"295 264 OFFCURVE",
"258 264 CURVE SMOOTH",
"225 264 OFFCURVE",
"210 293 OFFCURVE",
"199 297 CURVE SMOOTH",
"184 302 OFFCURVE",
"120 280 OFFCURVE",
"120 231 CURVE SMOOTH",
"120 202 OFFCURVE",
"143 177 OFFCURVE",
"195 177 CURVE SMOOTH",
"298 177 OFFCURVE",
"406 284 OFFCURVE",
"406 374 CURVE SMOOTH",
"406 434 OFFCURVE",
"367 482 OFFCURVE",
"285 482 CURVE SMOOTH",
"123 482 OFFCURVE",
"-4 291 OFFCURVE",
"-4 145 CURVE SMOOTH",
"-4 20 OFFCURVE",
"82 -50 OFFCURVE",
"184 -50 CURVE SMOOTH",
"237 -50 OFFCURVE",
"295 -31 OFFCURVE",
"347 8 CURVE SMOOTH",
"372 27 OFFCURVE",
"402 56 OFFCURVE",
"402 82 CURVE SMOOTH",
"402 95 OFFCURVE",
"397 106 OFFCURVE",
"387 106 CURVE SMOOTH"
);
}
);
width = 451;
}
);
leftKerningGroup = knlengthmark;
rightKerningGroup = knlengthmark;
unicode = 0CD5;
},
{
color = 4;
glyphname = knAIlengthmark;
lastChange = "2015-12-16 07:07:41 +0000";
layers = (
{
background = {
paths = (
{
closed = 1;
nodes = (
"22 -38 LINE",
"74 -7 OFFCURVE",
"110 55 OFFCURVE",
"110 98 CURVE SMOOTH",
"110 124 OFFCURVE",
"99 143 OFFCURVE",
"82 143 CURVE SMOOTH",
"52 143 OFFCURVE",
"19 110 OFFCURVE",
"21 93 CURVE SMOOTH",
"28 32 OFFCURVE",
"-8 -18 OFFCURVE",
"-85 -46 CURVE"
);
}
);
};
layerId = "59118767-2CA9-48AA-9373-694D24C960D8";
name = Regular;
paths = (
{
closed = 1;
nodes = (
"-116 -336 OFFCURVE",
"-131 -338 OFFCURVE",
"-148 -338 CURVE SMOOTH",
"-208 -338 OFFCURVE",
"-233 -305 OFFCURVE",
"-233 -279 CURVE SMOOTH",
"-233 -258 OFFCURVE",
"-217 -240 OFFCURVE",
"-186 -240 CURVE SMOOTH",
"-147 -240 OFFCURVE",
"-102 -270 OFFCURVE",
"-102 -328 CURVE SMOOTH",
"-102 -331 LINE"
);
},
{
closed = 1;
nodes = (
"-91 -30 OFFCURVE",
"-143 -60 OFFCURVE",
"-143 -93 CURVE SMOOTH",
"-143 -101 OFFCURVE",
"-137 -105 OFFCURVE",
"-128 -105 CURVE SMOOTH",
"-120 -105 OFFCURVE",
"-110 -100 OFFCURVE",
"-87 -100 CURVE SMOOTH",
"-20 -100 OFFCURVE",
"12 -123 OFFCURVE",
"12 -190 CURVE SMOOTH",
"12 -237 OFFCURVE",
"-11 -280 OFFCURVE",
"-59 -310 CURVE",
"-54 -290 OFFCURVE",
"-52 -272 OFFCURVE",
"-52 -255 CURVE SMOOTH",
"-52 -181 OFFCURVE",
"-91 -147 OFFCURVE",
"-147 -147 CURVE SMOOTH",
"-240 -147 OFFCURVE",
"-305 -243 OFFCURVE",
"-305 -323 CURVE SMOOTH",
"-305 -379 OFFCURVE",
"-273 -428 OFFCURVE",
"-198 -428 CURVE SMOOTH",
"-50 -428 OFFCURVE",
"106 -273 OFFCURVE",
"106 -129 CURVE SMOOTH",
"106 -55 OFFCURVE",
"48 -23 OFFCURVE",
"-31 -22 CURVE"
);
},
{
closed = 1;
nodes = (
"2 -28 LINE",
"54 3 OFFCURVE",
"100 65 OFFCURVE",
"100 108 CURVE SMOOTH",
"100 134 OFFCURVE",
"89 153 OFFCURVE",
"65 153 CURVE SMOOTH",
"42 153 OFFCURVE",
"-9 120 OFFCURVE",
"-9 103 CURVE SMOOTH",
"-9 45 OFFCURVE",
"-28 -17 OFFCURVE",
"-105 -45 CURVE"
);
}
);
width = 116;
},
{
associatedMasterId = "59118767-2CA9-48AA-9373-694D24C960D8";
background = {
paths = (
{
closed = 1;
nodes = (
"290 -25 LINE",
"295 26 OFFCURVE",
"275 101 OFFCURVE",
"191 114 CURVE",
"300 192 OFFCURVE",
"272 303 OFFCURVE",
"166 303 CURVE SMOOTH",
"138 303 OFFCURVE",
"112 291 OFFCURVE",
"98 273 CURVE SMOOTH",
"66 232 OFFCURVE",
"101 234 OFFCURVE",
"125 221 CURVE SMOOTH",
"140 213 OFFCURVE",
"152 198 OFFCURVE",
"152 179 CURVE SMOOTH",
"152 156 OFFCURVE",
"135 129 OFFCURVE",
"88 105 CURVE",
"28 84 OFFCURVE",
"13 40 OFFCURVE",
"13 26 CURVE SMOOTH",
"13 17 OFFCURVE",
"22 14 OFFCURVE",
"29 14 CURVE SMOOTH",
"43 14 OFFCURVE",
"51 20 OFFCURVE",
"109 20 CURVE SMOOTH",
"196 20 OFFCURVE",
"208 -41 OFFCURVE",
"204 -74 CURVE"
);
}
);
};
layerId = "05F07815-66DA-4118-862E-DEA165C92B60";
name = "Regular Nov 28 15, 17:15";
paths = (
{
closed = 1;
nodes = (
"1 -225 OFFCURVE",
"-19 -220 OFFCURVE",
"-31 -211 CURVE SMOOTH",
"-42 -202 OFFCURVE",
"-46 -191 OFFCURVE",
"-46 -179 CURVE SMOOTH",
"-46 -137 OFFCURVE",
"-9 -114 OFFCURVE",
"27 -114 CURVE SMOOTH",
"62 -114 OFFCURVE",
"98 -134 OFFCURVE",
"98 -173 CURVE SMOOTH",
"98 -199 OFFCURVE",
"75 -225 OFFCURVE",
"28 -225 CURVE SMOOTH"
);
},
{
closed = 1;
nodes = (
"-134 -143 OFFCURVE",
"-134 -257 CURVE SMOOTH",
"-134 -344 OFFCURVE",
"-83 -424 OFFCURVE",
"32 -424 CURVE SMOOTH",
"182 -424 OFFCURVE",
"295 -272 OFFCURVE",
"295 -99 CURVE SMOOTH",
"295 42 OFFCURVE",
"223 170 OFFCURVE",
"156 170 CURVE SMOOTH",
"135 170 OFFCURVE",
"112 152 OFFCURVE",
"104 144 CURVE SMOOTH",
"93 134 OFFCURVE",
"88 125 OFFCURVE",
"88 117 CURVE SMOOTH",
"88 106 OFFCURVE",
"215 21 OFFCURVE",
"215 -148 CURVE SMOOTH",
"215 -246 OFFCURVE",
"157 -341 OFFCURVE",
"64 -341 CURVE SMOOTH",
"8 -341 OFFCURVE",
"-46 -309 OFFCURVE",
"-46 -248 CURVE",
"-80 -245 LINE",
"-54 -273 OFFCURVE",
"-19 -286 OFFCURVE",
"17 -286 CURVE SMOOTH",
"92 -286 OFFCURVE",
"169 -232 OFFCURVE",
"169 -148 CURVE SMOOTH",
"169 -98 OFFCURVE",
"136 -39 OFFCURVE",
"59 -39 CURVE SMOOTH",
"-56 -39 OFFCURVE"
);
}
);
width = 456;
},
{
associatedMasterId = "59118767-2CA9-48AA-9373-694D24C960D8";
background = {
paths = (
{
closed = 1;
nodes = (
"147 123 OFFCURVE",
"194 182 OFFCURVE",
"194 247 CURVE SMOOTH",
"194 282 OFFCURVE",
"184 309 OFFCURVE",
"161 309 CURVE SMOOTH",
"135 309 OFFCURVE",
"78 265 OFFCURVE",
"81 243 CURVE SMOOTH",
"93 165 OFFCURVE",
"39 116 OFFCURVE",
"-7 90 CURVE",
"61 113 LINE",
"-4 115 OFFCURVE",
"-62 64 OFFCURVE",
"-62 26 CURVE SMOOTH",
"-62 17 OFFCURVE",
"-53 14 OFFCURVE",
"-46 14 CURVE SMOOTH",
"-32 14 OFFCURVE",
"-24 20 OFFCURVE",
"34 20 CURVE SMOOTH",
"92 20 OFFCURVE",
"122 -27 OFFCURVE",
"122 -82 CURVE SMOOTH",
"122 -129 OFFCURVE",
"99 -182 OFFCURVE",
"51 -212 CURVE",
"56 -192 OFFCURVE",
"58 -174 OFFCURVE",
"58 -157 CURVE SMOOTH",
"58 -83 OFFCURVE",
"19 -49 OFFCURVE",
"-37 -49 CURVE SMOOTH",
"-130 -49 OFFCURVE",
"-195 -145 OFFCURVE",
"-195 -225 CURVE SMOOTH",
"-195 -281 OFFCURVE",
"-163 -330 OFFCURVE",
"-88 -330 CURVE SMOOTH",
"168 -330 OFFCURVE",
"357 88 OFFCURVE",
"96 117 CURVE",
"103 97 LINE"
);
},
{
closed = 1;
nodes = (
"-6 -238 OFFCURVE",
"-21 -240 OFFCURVE",
"-38 -240 CURVE SMOOTH",
"-98 -240 OFFCURVE",
"-123 -207 OFFCURVE",
"-123 -181 CURVE SMOOTH",
"-123 -160 OFFCURVE",
"-107 -142 OFFCURVE",
"-76 -142 CURVE SMOOTH",
"-37 -142 OFFCURVE",
"8 -172 OFFCURVE",
"8 -230 CURVE SMOOTH",
"8 -233 LINE"
);
}
);
};
layerId = "B0F5AFBE-203A-4FA2-AE57-FD392EFF71D4";
name = "Regular Dec 8 15, 21:38";
paths = (
{
closed = 1;
nodes = (
"57 17 OFFCURVE",
"108 122 OFFCURVE",
"108 187 CURVE SMOOTH",
"108 222 OFFCURVE",
"94 247 OFFCURVE",
"71 247 CURVE SMOOTH",
"32 247 OFFCURVE",
"-12 203 OFFCURVE",
"-9 181 CURVE SMOOTH",
"3 103 OFFCURVE",
"-51 9 OFFCURVE",
"-97 -10 CURVE",
"-29 10 LINE",
"-87 10 OFFCURVE",
"-133 -29 OFFCURVE",
"-133 -63 CURVE SMOOTH",
"-133 -71 OFFCURVE",
"-127 -75 OFFCURVE",
"-118 -75 CURVE SMOOTH",
"-110 -75 OFFCURVE",
"-90 -70 OFFCURVE",
"-67 -70 CURVE SMOOTH",
"0 -70 OFFCURVE",
"32 -103 OFFCURVE",
"32 -170 CURVE SMOOTH",
"32 -217 OFFCURVE",
"9 -270 OFFCURVE",
"-39 -300 CURVE",
"-34 -280 OFFCURVE",
"-32 -262 OFFCURVE",
"-32 -245 CURVE SMOOTH",
"-32 -171 OFFCURVE",
"-71 -137 OFFCURVE",
"-127 -137 CURVE SMOOTH",
"-220 -137 OFFCURVE",
"-285 -233 OFFCURVE",
"-285 -313 CURVE SMOOTH",
"-285 -369 OFFCURVE",
"-253 -418 OFFCURVE",
"-178 -418 CURVE SMOOTH",
"-30 -418 OFFCURVE",
"131 -253 OFFCURVE",
"131 -109 CURVE SMOOTH",
"131 -37 OFFCURVE",
"72 5 OFFCURVE",
"-3 8 CURVE",
"-3 -9 LINE"
);
},
{
closed = 1;
nodes = (
"-96 -326 OFFCURVE",
"-111 -328 OFFCURVE",
"-128 -328 CURVE SMOOTH",
"-188 -328 OFFCURVE",
"-213 -295 OFFCURVE",
"-213 -269 CURVE SMOOTH",
"-213 -248 OFFCURVE",
"-197 -230 OFFCURVE",
"-166 -230 CURVE SMOOTH",
"-127 -230 OFFCURVE",
"-82 -260 OFFCURVE",
"-82 -318 CURVE SMOOTH",
"-82 -321 LINE"
);
}
);
width = 231;
}
);
leftKerningGroup = knAIlengthmark;
rightKerningGroup = knAIlengthmark;
unicode = 0CD6;
subCategory = "Spacing Combining";
},
{
color = 4;
glyphname = knKHA;
lastChange = "2015-12-12 15:27:21 +0000";
layers = (
{
components = (
{
name = "CC-kha";
transform = "{1, 0, 0, 1, 27, 0}";
},
{
name = "CC-Kha";
transform = "{1, 0, 0, 1, 287, 0}";
}
);
layerId = "59118767-2CA9-48AA-9373-694D24C960D8";
name = Regular;
width = 694;
},
{
associatedMasterId = "59118767-2CA9-48AA-9373-694D24C960D8";
components = (
{
name = "CC-kha";
transform = "{1, 0, 0, 1, 30, 0}";
}
);
layerId = "962EB084-4693-4F50-89A2-F310B66C807B";
name = "Regular Sep 9 15, 21:04";
paths = (
{
closed = 1;
nodes = (
"567 610 OFFCURVE",
"583 584 OFFCURVE",
"583 566 CURVE SMOOTH",
"583 544 OFFCURVE",
"559 512 OFFCURVE",
"519 512 CURVE SMOOTH",
"492 512 OFFCURVE",
"472 529 OFFCURVE",
"472 555 CURVE SMOOTH",
"472 585 OFFCURVE",
"503 610 OFFCURVE",
"534 610 CURVE SMOOTH"
);
},
{
closed = 1;
nodes = (
"589 437 OFFCURVE",
"649 532 OFFCURVE",
"649 611 CURVE SMOOTH",
"649 659 OFFCURVE",
"623 698 OFFCURVE",
"562 698 CURVE SMOOTH",
"404 698 OFFCURVE",
"344 437 OFFCURVE",
"486 437 CURVE SMOOTH"
);
},
{
closed = 1;
nodes = (
"296 42 LINE",
"361 -3 OFFCURVE",
"430 -14 OFFCURVE",
"494 -14 CURVE SMOOTH",
"660 -14 OFFCURVE",
"758 128 OFFCURVE",
"758 245 CURVE SMOOTH",
"758 327 OFFCURVE",
"710 396 OFFCURVE",
"604 396 CURVE SMOOTH",
"565 396 OFFCURVE",
"521 383 OFFCURVE",
"480 356 CURVE",
"470 338 OFFCURVE",
"470 333 OFFCURVE",
"470 322 CURVE SMOOTH",
"470 302 OFFCURVE",
"481 291 OFFCURVE",
"497 295 CURVE SMOOTH",
"596 320 OFFCURVE",
"694 289 OFFCURVE",
"694 200 CURVE SMOOTH",
"694 123 OFFCURVE",
"617 85 OFFCURVE",
"523 85 CURVE SMOOTH",
"461 85 OFFCURVE",
"396 100 OFFCURVE",
"336 134 CURVE"
);
},
{
closed = 1;
nodes = (
"743 614 OFFCURVE",
"609 420 OFFCURVE",
"480 357 CURVE",
"497 295 LINE",
"785 436 OFFCURVE",
"737 698 OFFCURVE",
"562 698 CURVE",
"534 610 LINE"
);
}
);
width = 787;
}
);
leftKerningGroup = knKHA;
rightKerningGroup = knLA;
unicode = 0C96;
},
{
color = 4;
glyphname = knGA;
lastChange = "2015-12-12 16:48:27 +0000";
layers = (
{
components = (
{
name = "CC_headstroke-kannada";
transform = "{1, 0, 0, 1, 40, 18}";
}
);
layerId = "59118767-2CA9-48AA-9373-694D24C960D8";
name = Regular;
paths = (
{
closed = 1;
nodes = (
"420 8 OFFCURVE",
"481 61 OFFCURVE",
"485 77 CURVE",
"493 112 OFFCURVE",
"498 151 OFFCURVE",
"498 211 CURVE SMOOTH",
"498 298 OFFCURVE",
"477 376 OFFCURVE",
"430 425 CURVE SMOOTH",
"397 460 OFFCURVE",
"351 480 OFFCURVE",
"290 480 CURVE SMOOTH",
"221 480 OFFCURVE",
"119 445 OFFCURVE",
"52 382 CURVE",
"43 373 OFFCURVE",
"40 366 OFFCURVE",
"40 356 CURVE SMOOTH",
"40 336 OFFCURVE",
"51 326 OFFCURVE",
"58 326 CURVE SMOOTH",
"64 326 OFFCURVE",
"82 332 OFFCURVE",
"96 337 CURVE SMOOTH",
"137 352 OFFCURVE",
"196 378 OFFCURVE",
"256 378 CURVE SMOOTH",
"343 378 OFFCURVE",
"404 317 OFFCURVE",
"404 188 CURVE SMOOTH",
"404 87 OFFCURVE",
"384 42 OFFCURVE",
"384 22 CURVE SMOOTH",
"384 13 OFFCURVE",
"388 8 OFFCURVE",
"395 8 CURVE SMOOTH"
);
},
{
closed = 1;
nodes = (
"90 0 OFFCURVE",
"152 56 OFFCURVE",
"152 100 CURVE SMOOTH",
"152 131 OFFCURVE",
"155 171 OFFCURVE",
"169 212 CURVE SMOOTH",
"198 292 OFFCURVE",
"252 374 OFFCURVE",
"321 384 CURVE",
"242 386 LINE",
"147 371 OFFCURVE",
"52 216 OFFCURVE",
"51 17 CURVE SMOOTH",
"51 5 OFFCURVE",
"56 0 OFFCURVE",
"64 0 CURVE SMOOTH"
);
}
);
width = 558;
},
{
associatedMasterId = "59118767-2CA9-48AA-9373-694D24C960D8";
components = (
{
name = "CC_headstroke-kannada";
transform = "{1, 0, 0, 1, 32, 0}";
}
);
layerId = "8589261B-931E-465F-A97E-EAC1103DAF2B";
name = "Regular Sep 4 15, 14:29";
paths = (
{
closed = 1;
nodes = (
"89 11 CURVE SMOOTH",
"116 43 OFFCURVE",
"130 51 OFFCURVE",
"134 74 CURVE SMOOTH",
"146 152 OFFCURVE",
"247 376 OFFCURVE",
"313 421 CURVE",
"221 398 LINE",
"142 317 OFFCURVE",
"74 143 OFFCURVE",
"43 28 CURVE SMOOTH",
"27 -37 OFFCURVE",
"76 -4 OFFCURVE"
);
},
{
closed = 1;
nodes = (
"432 15 CURVE SMOOTH",
"449 61 OFFCURVE",
"463 123 OFFCURVE",
"467 186 CURVE SMOOTH",
"476 322 OFFCURVE",
"437 463 OFFCURVE",
"284 463 CURVE SMOOTH",
"227 463 OFFCURVE",
"128 428 OFFCURVE",
"44 374 CURVE",
"35 362 OFFCURVE",
"32 351 OFFCURVE",
"32 336 CURVE SMOOTH",
"32 313 OFFCURVE",
"48 304 OFFCURVE",
"63 310 CURVE SMOOTH",
"134 338 OFFCURVE",
"215 362 OFFCURVE",
"255 362 CURVE SMOOTH",
"346 362 OFFCURVE",
"436 312 OFFCURVE",
"386 155 CURVE SMOOTH",
"381 139 OFFCURVE",
"375 122 OFFCURVE",
"367 104 CURVE SMOOTH",
"343 49 OFFCURVE",
"404 -58 OFFCURVE"
);
}
);
width = 498;
},
{
associatedMasterId = "59118767-2CA9-48AA-9373-694D24C960D8";
background = {
paths = (
{
closed = 1;
nodes = (
"87 11 CURVE SMOOTH",
"114 43 OFFCURVE",
"128 51 OFFCURVE",
"132 74 CURVE SMOOTH",
"144 152 OFFCURVE",
"245 376 OFFCURVE",
"311 421 CURVE",
"219 398 LINE",
"140 317 OFFCURVE",
"72 143 OFFCURVE",
"41 28 CURVE SMOOTH",
"25 -37 OFFCURVE",
"74 -4 OFFCURVE"
);
},
{
closed = 1;
nodes = (
"446 63 OFFCURVE",
"452 84 CURVE SMOOTH",
"502 268 OFFCURVE",
"435 463 OFFCURVE",
"282 463 CURVE SMOOTH",
"225 463 OFFCURVE",
"126 428 OFFCURVE",
"42 374 CURVE",
"33 362 OFFCURVE",
"30 351 OFFCURVE",
"30 336 CURVE SMOOTH",
"30 313 OFFCURVE",
"46 304 OFFCURVE",
"61 310 CURVE SMOOTH",
"132 338 OFFCURVE",
"213 362 OFFCURVE",
"253 362 CURVE SMOOTH",
"344 362 OFFCURVE",
"406 210 OFFCURVE",
"357 53 CURVE SMOOTH",
"333 -27 OFFCURVE"
);
}
);
};
components = (
{
name = "CC_headstroke-kannada";
transform = "{1, 0, 0, 1, 30, 0}";
}
);
layerId = "72C17302-7360-4162-8B6D-A82470F9C99A";
name = "Regular Sep 17 15, 11:23";
paths = (
{
closed = 1;
nodes = (
"87 11 CURVE SMOOTH",
"114 43 OFFCURVE",
"128 51 OFFCURVE",
"132 74 CURVE SMOOTH",
"144 152 OFFCURVE",
"245 376 OFFCURVE",
"311 421 CURVE",
"219 398 LINE",
"140 317 OFFCURVE",
"72 143 OFFCURVE",
"41 28 CURVE SMOOTH",
"25 -37 OFFCURVE",
"74 -4 OFFCURVE"
);
},
{
closed = 1;
nodes = (
"446 63 OFFCURVE",
"452 84 CURVE SMOOTH",
"502 268 OFFCURVE",
"435 463 OFFCURVE",
"282 463 CURVE SMOOTH",
"225 463 OFFCURVE",
"126 428 OFFCURVE",
"42 374 CURVE",
"33 362 OFFCURVE",
"30 351 OFFCURVE",
"30 336 CURVE SMOOTH",
"30 313 OFFCURVE",
"46 304 OFFCURVE",
"61 310 CURVE SMOOTH",
"132 338 OFFCURVE",
"213 362 OFFCURVE",
"253 362 CURVE SMOOTH",
"344 362 OFFCURVE",
"406 210 OFFCURVE",
"357 53 CURVE SMOOTH",
"333 -27 OFFCURVE"
);
}
);
width = 498;
},
{
associatedMasterId = "59118767-2CA9-48AA-9373-694D24C960D8";
background = {
paths = (
{
closed = 1;
nodes = (
"87 11 CURVE SMOOTH",
"114 43 OFFCURVE",
"128 51 OFFCURVE",
"132 74 CURVE SMOOTH",
"144 152 OFFCURVE",
"245 376 OFFCURVE",
"311 421 CURVE",
"219 398 LINE",
"140 317 OFFCURVE",
"72 143 OFFCURVE",
"41 28 CURVE SMOOTH",
"25 -37 OFFCURVE",
"74 -4 OFFCURVE"
);
},
{
closed = 1;
nodes = (
"446 63 OFFCURVE",
"452 84 CURVE SMOOTH",
"502 268 OFFCURVE",
"435 463 OFFCURVE",
"282 463 CURVE SMOOTH",
"225 463 OFFCURVE",
"126 428 OFFCURVE",
"42 374 CURVE",
"33 362 OFFCURVE",
"30 351 OFFCURVE",
"30 336 CURVE SMOOTH",
"30 313 OFFCURVE",
"46 304 OFFCURVE",
"61 310 CURVE SMOOTH",
"132 338 OFFCURVE",
"213 362 OFFCURVE",
"253 362 CURVE SMOOTH",
"344 362 OFFCURVE",
"406 210 OFFCURVE",
"357 53 CURVE SMOOTH",
"333 -27 OFFCURVE"
);
}
);
};
components = (
{
name = "CC_headstroke-kannada";
transform = "{1, 0, 0, 1, 30, 0}";
}
);
layerId = "60BBA0AE-710B-4FF6-BDC9-D87722B9C8D2";
name = "Regular Sep 17 15, 11:29";
paths = (
{
closed = 1;
nodes = (
"333 -27 OFFCURVE",
"446 63 OFFCURVE",
"452 84 CURVE SMOOTH",
"502 268 OFFCURVE",
"435 463 OFFCURVE",
"282 463 CURVE SMOOTH",
"225 463 OFFCURVE",
"126 428 OFFCURVE",
"42 374 CURVE",
"33 362 OFFCURVE",
"30 351 OFFCURVE",
"30 336 CURVE SMOOTH",
"30 313 OFFCURVE",
"46 304 OFFCURVE",
"61 310 CURVE SMOOTH",
"132 338 OFFCURVE",
"213 362 OFFCURVE",
"253 362 CURVE SMOOTH",
"344 362 OFFCURVE",
"406 210 OFFCURVE",
"357 53 CURVE SMOOTH"
);
},
{
closed = 1;
nodes = (
"41 -44 OFFCURVE",
"137 35 OFFCURVE",
"137 92 CURVE SMOOTH",
"137 252 OFFCURVE",
"207 368 OFFCURVE",
"311 421 CURVE",
"209 398 LINE",
"94 303 OFFCURVE",
"41 225 OFFCURVE",
"41 9 CURVE SMOOTH"
);
}
);
width = 498;
},
{
associatedMasterId = "59118767-2CA9-48AA-9373-694D24C960D8";
background = {
paths = (
{
closed = 1;
nodes = (
"87 11 CURVE SMOOTH",
"114 43 OFFCURVE",
"128 51 OFFCURVE",
"132 74 CURVE SMOOTH",
"144 152 OFFCURVE",
"245 376 OFFCURVE",
"311 421 CURVE",
"219 398 LINE",
"140 317 OFFCURVE",
"72 143 OFFCURVE",
"41 28 CURVE SMOOTH",
"25 -37 OFFCURVE",
"74 -4 OFFCURVE"
);
},
{
closed = 1;
nodes = (
"446 63 OFFCURVE",
"452 84 CURVE SMOOTH",
"502 268 OFFCURVE",
"435 463 OFFCURVE",
"282 463 CURVE SMOOTH",
"225 463 OFFCURVE",
"126 428 OFFCURVE",
"42 374 CURVE",
"33 362 OFFCURVE",
"30 351 OFFCURVE",
"30 336 CURVE SMOOTH",
"30 313 OFFCURVE",
"46 304 OFFCURVE",
"61 310 CURVE SMOOTH",
"132 338 OFFCURVE",
"213 362 OFFCURVE",
"253 362 CURVE SMOOTH",
"344 362 OFFCURVE",
"406 210 OFFCURVE",
"357 53 CURVE SMOOTH",
"333 -27 OFFCURVE"
);
}
);
};
components = (
{
name = "CC_headstroke-kannada";
transform = "{1, 0, 0, 1, 30, 0}";
}
);
layerId = "44CB9641-C214-4DAC-9064-A1D2BBA10B93";
name = "Regular Sep 17 15, 11:34";
paths = (
{
closed = 1;
nodes = (
"400 20 OFFCURVE",
"453 73 OFFCURVE",
"457 89 CURVE",
"465 124 OFFCURVE",
"470 163 OFFCURVE",
"470 202 CURVE SMOOTH",
"470 330 OFFCURVE",
"420 459 OFFCURVE",
"279 459 CURVE SMOOTH",
"211 459 OFFCURVE",
"109 427 OFFCURVE",
"42 364 CURVE",
"33 355 OFFCURVE",
"30 347 OFFCURVE",
"30 339 CURVE SMOOTH",
"30 317 OFFCURVE",
"41 308 OFFCURVE",
"49 308 CURVE SMOOTH",
"55 308 OFFCURVE",
"68 313 OFFCURVE",
"86 319 CURVE SMOOTH",
"125 334 OFFCURVE",
"188 357 OFFCURVE",
"247 357 CURVE SMOOTH",
"333 357 OFFCURVE",
"384 308 OFFCURVE",
"384 180 CURVE SMOOTH",
"384 100 OFFCURVE",
"364 53 OFFCURVE",
"364 35 CURVE SMOOTH",
"364 24 OFFCURVE",
"368 20 OFFCURVE",
"375 20 CURVE SMOOTH"
);
},
{
closed = 1;
nodes = (
"80 -8 OFFCURVE",
"137 48 OFFCURVE",
"137 92 CURVE",
"137 184 OFFCURVE",
"207 351 OFFCURVE",
"311 366 CURVE",
"232 368 LINE",
"137 353 OFFCURVE",
"41 208 OFFCURVE",
"41 9 CURVE",
"41 -3 OFFCURVE",
"46 -8 OFFCURVE",
"54 -8 CURVE SMOOTH"
);
}
);
width = 498;
}
);
leftKerningGroup = knGA;
rightKerningGroup = knGA;
unicode = 0C97;
},
{
color = 4;
glyphname = knGHA;
lastChange = "2015-12-18 06:38:39 +0000";
layers = (
{
background = {
paths = (
{
closed = 1;
nodes = (
"552 193 LINE",
"674 186 OFFCURVE",
"791 261 OFFCURVE",
"791 402 CURVE SMOOTH",
"791 451 OFFCURVE",
"776 462 OFFCURVE",
"748 462 CURVE SMOOTH",
"705 462 OFFCURVE",
"670 405 OFFCURVE",
"670 385 CURVE SMOOTH",
"670 366 OFFCURVE",
"704 358 OFFCURVE",
"704 318 CURVE SMOOTH",
"704 283 OFFCURVE",
"651 271 OFFCURVE",
"607 280 CURVE"
);
}
);
};
components = (
{
disableAlignment = 1;
name = knPHA;
},
{
name = "CC-Kn-Gha";
transform = "{1, 0, 0, 1, 552, 0}";
}
);
layerId = "59118767-2CA9-48AA-9373-694D24C960D8";
name = Regular;
width = 801;
},
{
associatedMasterId = "59118767-2CA9-48AA-9373-694D24C960D8";
components = (
{
name = knPHA;
transform = "{1, 0, 0, 1, -10, 0}";
}
);
layerId = "66E1E18D-20F0-427A-875F-B107512592A2";
name = "Regular Sep 19 15, 20:23";
paths = (
{
closed = 1;
nodes = (
"634 174 LINE",
"746 192 OFFCURVE",
"827 288 OFFCURVE",
"827 360 CURVE SMOOTH",
"827 415 OFFCURVE",
"781 463 OFFCURVE",
"745 463 CURVE SMOOTH",
"697 463 OFFCURVE",
"640 373 OFFCURVE",
"681 368 CURVE SMOOTH",
"737 360 OFFCURVE",
"757 356 OFFCURVE",
"757 317 CURVE SMOOTH",
"757 252 OFFCURVE",
"675 243 OFFCURVE",
"639 275 CURVE"
);
}
);
width = 857;
}
);
leftKerningGroup = knPA;
leftMetricsKey = knPA;
rightKerningGroup = knGHA;
unicode = 0C98;
},
{
color = 4;
glyphname = knCA;
lastChange = "2015-11-08 18:00:46 +0000";
layers = (
{
components = (
{
name = "CC_connectingstroke-Kannada";
transform = "{1, 0, 0, 1, 357, 5}";
},
{
name = "CC_Ofirsthalf-kannada";
transform = "{1, 0, 0, 1, 40, 0}";
}
);
layerId = "59118767-2CA9-48AA-9373-694D24C960D8";
name = Regular;
paths = (
{
closed = 1;
nodes = (
"474 277 LINE",
"509 302 OFFCURVE",
"573 335 OFFCURVE",
"637 335 CURVE SMOOTH",
"669 335 OFFCURVE",
"693 327 OFFCURVE",
"712 314 CURVE SMOOTH",
"730 301 OFFCURVE",
"731 295 OFFCURVE",
"741 295 CURVE SMOOTH",
"768 295 OFFCURVE",
"815 338 OFFCURVE",
"815 375 CURVE SMOOTH",
"815 399 OFFCURVE",
"794 424 OFFCURVE",
"735 424 CURVE SMOOTH",
"590 424 OFFCURVE",
"402 276 OFFCURVE",
"402 215 CURVE"
);
},
{
closed = 1;
nodes = (
"311 78 LINE",
"315 36 OFFCURVE",
"360 -14 OFFCURVE",
"440 -14 CURVE SMOOTH",
"555 -14 OFFCURVE",
"710 88 OFFCURVE",
"710 204 CURVE SMOOTH",
"710 263 OFFCURVE",
"669 310 OFFCURVE",
"581 310 CURVE SMOOTH",
"468 310 OFFCURVE",
"402 234 OFFCURVE",
"402 215 CURVE SMOOTH",
"402 208 OFFCURVE",
"410 204 OFFCURVE",
"418 204 CURVE SMOOTH",
"432 204 OFFCURVE",
"460 220 OFFCURVE",
"518 220 CURVE SMOOTH",
"596 220 OFFCURVE",
"624 191 OFFCURVE",
"624 158 CURVE SMOOTH",
"624 108 OFFCURVE",
"560 84 OFFCURVE",
"501 84 CURVE SMOOTH",
"447 84 OFFCURVE",
"396 105 OFFCURVE",
"380 159 CURVE"
);
},
{
closed = 1;
nodes = (
"366 352 LINE",
"413 385 LINE",
"456 461 OFFCURVE",
"535 532 OFFCURVE",
"620 532 CURVE SMOOTH",
"637 532 OFFCURVE",
"656 529 OFFCURVE",
"670 519 CURVE SMOOTH",
"685 508 OFFCURVE",
"687 499 OFFCURVE",
"700 499 CURVE SMOOTH",
"729 499 OFFCURVE",
"774 540 OFFCURVE",
"774 578 CURVE SMOOTH",
"774 604 OFFCURVE",
"753 628 OFFCURVE",
"703 628 CURVE SMOOTH",
"632 628 OFFCURVE",
"503 577 OFFCURVE",
"411 465 CURVE SMOOTH",
"375 421 OFFCURVE",
"356 381 OFFCURVE",
"357 341 CURVE"
);
}
);
width = 822;
},
{
associatedMasterId = "59118767-2CA9-48AA-9373-694D24C960D8";
components = (
{
name = "CC_headstroke-kannada";
transform = "{1, 0, 0, 1, 339, 0}";
},
{
name = "CC_connectingstroke-Kannada";
transform = "{1, 0, 0, 1, 338, 0}";
}
);
layerId = "D36A4B9F-BBEC-468D-9BC2-8CBC3EFB9C3A";
name = "Regular Aug 16 15, 14:43";
paths = (
{
closed = 1;
nodes = (
"325 299 OFFCURVE",
"-41 -108 OFFCURVE",
"127 -95 CURVE SMOOTH",
"203 -87 OFFCURVE",
"263 0 OFFCURVE",
"327 75 CURVE",
"292 88 LINE",
"303 32 OFFCURVE",
"368 -13 OFFCURVE",
"459 -13 CURVE SMOOTH",
"608 -13 OFFCURVE",
"665 61 OFFCURVE",
"687 135 CURVE SMOOTH",
"709 210 OFFCURVE",
"653 301 OFFCURVE",
"545 289 CURVE",
"570 307 OFFCURVE",
"594 322 OFFCURVE",
"627 322 CURVE SMOOTH",
"694 322 OFFCURVE",
"689 286 OFFCURVE",
"735 276 CURVE",
"766 271 OFFCURVE",
"794 309 OFFCURVE",
"804 350 CURVE",
"808 371 OFFCURVE",
"807 383 OFFCURVE",
"799 388 CURVE SMOOTH",
"739 425 OFFCURVE",
"380 295 OFFCURVE",
"380 225 CURVE SMOOTH",
"380 199 OFFCURVE",
"414 197 OFFCURVE",
"475 196 CURVE SMOOTH",
"544 195 OFFCURVE",
"628 190 OFFCURVE",
"628 126 CURVE SMOOTH",
"628 98 OFFCURVE",
"603 71 OFFCURVE",
"552 71 CURVE SMOOTH",
"399 71 OFFCURVE",
"396 180 OFFCURVE",
"392 180 CURVE SMOOTH",
"345 180 OFFCURVE",
"258 24 OFFCURVE",
"218 58 CURVE SMOOTH",
"204 70 OFFCURVE",
"190 108 OFFCURVE",
"240 206 CURVE SMOOTH",
"278 281 OFFCURVE",
"295 339 OFFCURVE",
"295 380 CURVE SMOOTH",
"295 506 OFFCURVE",
"136 484 OFFCURVE",
"61 349 CURVE SMOOTH",
"-16 204 OFFCURVE",
"38 52 OFFCURVE",
"161 105 CURVE",
"214 229 LINE",
"195 219 OFFCURVE",
"175 214 OFFCURVE",
"157 214 CURVE SMOOTH",
"60 214 OFFCURVE",
"79 397 OFFCURVE",
"175 361 CURVE SMOOTH"
);
}
);
width = 831;
},
{
associatedMasterId = "59118767-2CA9-48AA-9373-694D24C960D8";
components = (
{
name = "CC_headstroke-kannada";
transform = "{1, 0, 0, 1, 339, 0}";
},
{
name = "CC_connectingstroke-Kannada";
transform = "{1, 0, 0, 1, 338, 0}";
}
);
layerId = "74ED8F17-F3A4-4FCB-8F3B-B90ABDBA63B4";
name = "Regular Aug 16 15, 14:45";
paths = (
{
closed = 1;
nodes = (
"325 299 OFFCURVE",
"-41 -108 OFFCURVE",
"127 -95 CURVE SMOOTH",
"203 -87 OFFCURVE",
"263 0 OFFCURVE",
"327 75 CURVE",
"292 88 LINE",
"303 32 OFFCURVE",
"368 -13 OFFCURVE",
"459 -13 CURVE SMOOTH",
"608 -13 OFFCURVE",
"665 61 OFFCURVE",
"687 135 CURVE SMOOTH",
"709 210 OFFCURVE",
"653 301 OFFCURVE",
"545 289 CURVE",
"570 307 OFFCURVE",
"594 322 OFFCURVE",
"627 322 CURVE SMOOTH",
"694 322 OFFCURVE",
"689 286 OFFCURVE",
"735 276 CURVE",
"766 271 OFFCURVE",
"794 309 OFFCURVE",
"804 350 CURVE",
"808 371 OFFCURVE",
"807 383 OFFCURVE",
"799 388 CURVE SMOOTH",
"739 425 OFFCURVE",
"380 295 OFFCURVE",
"380 225 CURVE SMOOTH",
"380 199 OFFCURVE",
"414 197 OFFCURVE",
"475 196 CURVE SMOOTH",
"544 195 OFFCURVE",
"628 190 OFFCURVE",
"628 126 CURVE SMOOTH",
"628 98 OFFCURVE",
"603 71 OFFCURVE",
"552 71 CURVE SMOOTH",
"399 71 OFFCURVE",
"396 180 OFFCURVE",
"392 180 CURVE SMOOTH",
"345 180 OFFCURVE",
"258 24 OFFCURVE",
"218 58 CURVE SMOOTH",
"204 70 OFFCURVE",
"190 108 OFFCURVE",
"240 206 CURVE SMOOTH",
"278 281 OFFCURVE",
"295 339 OFFCURVE",
"295 380 CURVE SMOOTH",
"295 506 OFFCURVE",
"136 484 OFFCURVE",
"61 349 CURVE SMOOTH",
"-16 204 OFFCURVE",
"38 52 OFFCURVE",
"161 105 CURVE",
"214 229 LINE",
"195 219 OFFCURVE",
"175 214 OFFCURVE",
"157 214 CURVE SMOOTH",
"60 214 OFFCURVE",
"79 397 OFFCURVE",
"175 361 CURVE SMOOTH"
);
}
);
width = 831;
},
{
associatedMasterId = "59118767-2CA9-48AA-9373-694D24C960D8";
components = (
{
name = "CC_headstroke-kannada";
transform = "{1, 0, 0, 1, 336, 0}";
},
{
name = "CC_connectingstroke-Kannada";
transform = "{1, 0, 0, 1, 336, 5}";
},
{
name = "CC_Ofirsthalf-kannada";
transform = "{1, 0, 0, 1, -47, 0}";
}
);
layerId = "16188EDA-346A-4861-9E58-72FF418C458F";
name = "Regular Sep 13 15, 16:50";
paths = (
{
closed = 1;
nodes = (
"456 289 LINE",
"502 315 OFFCURVE",
"566 333 OFFCURVE",
"627 333 CURVE SMOOTH",
"663 333 OFFCURVE",
"677 327 OFFCURVE",
"699 311 CURVE SMOOTH",
"717 298 OFFCURVE",
"723 294 OFFCURVE",
"733 294 CURVE SMOOTH",
"767 294 OFFCURVE",
"807 340 OFFCURVE",
"807 378 CURVE SMOOTH",
"807 405 OFFCURVE",
"786 429 OFFCURVE",
"727 429 CURVE SMOOTH",
"582 429 OFFCURVE",
"394 287 OFFCURVE",
"384 215 CURVE"
);
},
{
closed = 1;
nodes = (
"395 -12 LINE",
"572 -25 OFFCURVE",
"691 121 OFFCURVE",
"691 208 CURVE SMOOTH",
"691 263 OFFCURVE",
"653 316 OFFCURVE",
"553 316 CURVE SMOOTH",
"429 316 OFFCURVE",
"383 235 OFFCURVE",
"383 216 CURVE SMOOTH",
"383 207 OFFCURVE",
"392 204 OFFCURVE",
"399 204 CURVE SMOOTH",
"413 204 OFFCURVE",
"441 220 OFFCURVE",
"499 220 CURVE SMOOTH",
"577 220 OFFCURVE",
"605 191 OFFCURVE",
"605 157 CURVE SMOOTH",
"605 130 OFFCURVE",
"578 109 OFFCURVE",
"549 97 CURVE SMOOTH",
"525 88 OFFCURVE",
"499 85 OFFCURVE",
"455 85 CURVE"
);
}
);
width = 837;
},
{
associatedMasterId = "59118767-2CA9-48AA-9373-694D24C960D8";
background = {
paths = (
{
closed = 1;
nodes = (
"422 481 LINE",
"468 513 OFFCURVE",
"522 538 OFFCURVE",
"583 538 CURVE SMOOTH",
"619 538 OFFCURVE",
"638 534 OFFCURVE",
"660 518 CURVE SMOOTH",
"678 505 OFFCURVE",
"679 499 OFFCURVE",
"689 499 CURVE SMOOTH",
"716 499 OFFCURVE",
"763 543 OFFCURVE",
"763 577 CURVE SMOOTH",
"763 604 OFFCURVE",
"742 628 OFFCURVE",
"683 628 CURVE SMOOTH",
"538 628 OFFCURVE",
"350 481 OFFCURVE",
"350 420 CURVE"
);
}
);
};
components = (
{
name = "CC_connectingstroke-Kannada";
transform = "{1, 0, 0, 1, 345, 5}";
},
{
name = "CC_Ofirsthalf-kannada";
transform = "{1, 0, 0, 1, 24, 0}";
}
);
layerId = "3831CB3D-EBF1-4A58-8230-A31D81BCB4E2";
name = "Regular Sep 15 15, 14:33";
paths = (
{
closed = 1;
nodes = (
"462 277 LINE",
"512 311 OFFCURVE",
"560 334 OFFCURVE",
"628 334 CURVE SMOOTH",
"657 334 OFFCURVE",
"678 330 OFFCURVE",
"700 314 CURVE SMOOTH",
"718 301 OFFCURVE",
"719 295 OFFCURVE",
"729 295 CURVE SMOOTH",
"756 295 OFFCURVE",
"803 338 OFFCURVE",
"803 375 CURVE SMOOTH",
"803 399 OFFCURVE",
"782 424 OFFCURVE",
"723 424 CURVE SMOOTH",
"578 424 OFFCURVE",
"390 276 OFFCURVE",
"390 215 CURVE"
);
},
{
closed = 1;
nodes = (
"299 78 LINE",
"303 36 OFFCURVE",
"348 -14 OFFCURVE",
"428 -14 CURVE SMOOTH",
"543 -14 OFFCURVE",
"698 88 OFFCURVE",
"698 204 CURVE SMOOTH",
"698 263 OFFCURVE",
"657 310 OFFCURVE",
"569 310 CURVE SMOOTH",
"456 310 OFFCURVE",
"390 234 OFFCURVE",
"390 215 CURVE SMOOTH",
"390 208 OFFCURVE",
"398 204 OFFCURVE",
"406 204 CURVE SMOOTH",
"420 204 OFFCURVE",
"448 220 OFFCURVE",
"506 220 CURVE SMOOTH",
"584 220 OFFCURVE",
"612 191 OFFCURVE",
"612 158 CURVE SMOOTH",
"612 108 OFFCURVE",
"548 85 OFFCURVE",
"489 85 CURVE SMOOTH",
"435 85 OFFCURVE",
"384 105 OFFCURVE",
"368 159 CURVE"
);
},
{
closed = 1;
nodes = (
"354 352 LINE",
"401 385 LINE",
"444 461 OFFCURVE",
"523 532 OFFCURVE",
"608 532 CURVE SMOOTH",
"625 532 OFFCURVE",
"644 529 OFFCURVE",
"658 519 CURVE SMOOTH",
"673 508 OFFCURVE",
"675 499 OFFCURVE",
"688 499 CURVE SMOOTH",
"717 499 OFFCURVE",
"762 540 OFFCURVE",
"762 578 CURVE SMOOTH",
"762 604 OFFCURVE",
"741 628 OFFCURVE",
"691 628 CURVE SMOOTH",
"616 628 OFFCURVE",
"489 574 OFFCURVE",
"399 465 CURVE SMOOTH",
"363 421 OFFCURVE",
"344 381 OFFCURVE",
"345 341 CURVE"
);
}
);
width = 823;
}
);
leftKerningGroup = knO;
leftMetricsKey = knO;
rightKerningGroup = knKA;
rightMetricsKey = knKA;
unicode = 0C9A;
},
{
color = 4;
glyphname = knCHA;
lastChange = "2015-11-08 18:00:46 +0000";
layers = (
{
layerId = "59118767-2CA9-48AA-9373-694D24C960D8";
name = Regular;
paths = (
{
closed = 1;
nodes = (
"638 -13 OFFCURVE",
"757 152 OFFCURVE",
"757 302 CURVE SMOOTH",
"757 385 OFFCURVE",
"720 462 OFFCURVE",
"619 462 CURVE SMOOTH",
"573 462 OFFCURVE",
"516 449 OFFCURVE",
"460 424 CURVE",
"451 411 OFFCURVE",
"444 390 OFFCURVE",
"444 374 CURVE SMOOTH",
"444 359 OFFCURVE",
"450 348 OFFCURVE",
"462 348 CURVE SMOOTH",
"473 348 OFFCURVE",
"519 358 OFFCURVE",
"553 358 CURVE SMOOTH",
"628 358 OFFCURVE",
"660 308 OFFCURVE",
"660 236 CURVE SMOOTH",
"660 163 OFFCURVE",
"614 83 OFFCURVE",
"536 83 CURVE SMOOTH",
"498 83 OFFCURVE",
"450 107 OFFCURVE",
"439 157 CURVE",
"365 73 LINE",
"382 13 OFFCURVE",
"431 -13 OFFCURVE",
"485 -13 CURVE SMOOTH"
);
},
{
closed = 1;
nodes = (
"440 414 OFFCURVE",
"440 383 OFFCURVE",
"446 360 CURVE",
"483 386 LINE",
"526 462 OFFCURVE",
"605 533 OFFCURVE",
"690 533 CURVE SMOOTH",
"707 533 OFFCURVE",
"726 530 OFFCURVE",
"740 520 CURVE SMOOTH",
"755 509 OFFCURVE",
"757 500 OFFCURVE",
"770 500 CURVE SMOOTH",
"799 500 OFFCURVE",
"844 541 OFFCURVE",
"844 579 CURVE SMOOTH",
"844 605 OFFCURVE",
"824 629 OFFCURVE",
"772 629 CURVE SMOOTH",
"677 629 OFFCURVE",
"548 550 OFFCURVE",
"481 466 CURVE SMOOTH"
);
},
{
closed = 1;
nodes = (
"438 129 LINE",
"445 166 OFFCURVE",
"434 173 OFFCURVE",
"423 173 CURVE SMOOTH",
"411 173 OFFCURVE",
"403 166 OFFCURVE",
"392 152 CURVE",
"352 106 OFFCURVE",
"309 80 OFFCURVE",
"254 80 CURVE SMOOTH",
"183 80 OFFCURVE",
"126 128 OFFCURVE",
"126 207 CURVE SMOOTH",
"126 257 OFFCURVE",
"147 312 OFFCURVE",
"182 346 CURVE SMOOTH",
"202 366 OFFCURVE",
"227 381 OFFCURVE",
"255 381 CURVE SMOOTH",
"290 381 OFFCURVE",
"309 356 OFFCURVE",
"309 331 CURVE SMOOTH",
"309 303 OFFCURVE",
"285 268 OFFCURVE",
"235 251 CURVE SMOOTH",
"215 244 OFFCURVE",
"197 226 OFFCURVE",
"214 204 CURVE SMOOTH",
"251 156 OFFCURVE",
"416 241 OFFCURVE",
"416 354 CURVE SMOOTH",
"416 416 OFFCURVE",
"372 460 OFFCURVE",
"301 460 CURVE SMOOTH",
"151 460 OFFCURVE",
"29 304 OFFCURVE",
"29 154 CURVE SMOOTH",
"29 41 OFFCURVE",
"108 -14 OFFCURVE",
"203 -14 CURVE SMOOTH",
"266 -14 OFFCURVE",
"336 10 OFFCURVE",
"394 58 CURVE"
);
},
{
closed = 1;
nodes = (
"308 -158 OFFCURVE",
"318 -192 OFFCURVE",
"356 -192 CURVE SMOOTH",
"394 -192 OFFCURVE",
"413 -158 OFFCURVE",
"413 -125 CURVE SMOOTH",
"413 -98 OFFCURVE",
"400 -9 OFFCURVE",
"379 -9 CURVE SMOOTH",
"358 -9 OFFCURVE",
"308 -95 OFFCURVE",
"308 -139 CURVE SMOOTH"
);
}
);
width = 806;
},
{
associatedMasterId = "59118767-2CA9-48AA-9373-694D24C960D8";
layerId = "1E3B90F5-16DC-40BA-AACF-8BBED1372650";
name = "Regular Aug 31 15, 17:20";
paths = (
{
closed = 1;
nodes = (
"411 129 LINE",
"418 166 OFFCURVE",
"407 173 OFFCURVE",
"396 173 CURVE SMOOTH",
"384 173 OFFCURVE",
"376 166 OFFCURVE",
"365 152 CURVE",
"325 106 OFFCURVE",
"282 80 OFFCURVE",
"227 80 CURVE SMOOTH",
"156 80 OFFCURVE",
"101 124 OFFCURVE",
"101 207 CURVE SMOOTH",
"101 306 OFFCURVE",
"179 403 OFFCURVE",
"240 403 CURVE SMOOTH",
"259 403 OFFCURVE",
"268 394 OFFCURVE",
"268 378 CURVE SMOOTH",
"268 352 OFFCURVE",
"245 339 OFFCURVE",
"223 327 CURVE",
"219 325 OFFCURVE",
"215 319 OFFCURVE",
"215 301 CURVE SMOOTH",
"215 274 OFFCURVE",
"224 222 OFFCURVE",
"255 222 CURVE SMOOTH",
"288 222 OFFCURVE",
"363 278 OFFCURVE",
"363 363 CURVE SMOOTH",
"363 419 OFFCURVE",
"330 464 OFFCURVE",
"257 464 CURVE SMOOTH",
"113 464 OFFCURVE",
"10 286 OFFCURVE",
"10 157 CURVE SMOOTH",
"10 52 OFFCURVE",
"79 -16 OFFCURVE",
"187 -16 CURVE SMOOTH",
"258 -16 OFFCURVE",
"315 14 OFFCURVE",
"365 57 CURVE"
);
},
{
closed = 1;
nodes = (
"440 360 LINE",
"477 386 LINE",
"520 462 OFFCURVE",
"599 533 OFFCURVE",
"684 533 CURVE SMOOTH",
"701 533 OFFCURVE",
"720 530 OFFCURVE",
"734 520 CURVE SMOOTH",
"749 509 OFFCURVE",
"751 500 OFFCURVE",
"764 500 CURVE SMOOTH",
"793 500 OFFCURVE",
"838 541 OFFCURVE",
"838 579 CURVE SMOOTH",
"838 605 OFFCURVE",
"818 629 OFFCURVE",
"766 629 CURVE SMOOTH",
"671 629 OFFCURVE",
"542 550 OFFCURVE",
"475 466 CURVE SMOOTH",
"460 447 OFFCURVE",
"441 418 OFFCURVE",
"435 395 CURVE"
);
},
{
closed = 1;
nodes = (
"631 -13 OFFCURVE",
"764 152 OFFCURVE",
"764 302 CURVE SMOOTH",
"764 399 OFFCURVE",
"708 462 OFFCURVE",
"607 462 CURVE SMOOTH",
"561 462 OFFCURVE",
"504 449 OFFCURVE",
"448 424 CURVE",
"439 411 OFFCURVE",
"432 390 OFFCURVE",
"432 374 CURVE SMOOTH",
"432 359 OFFCURVE",
"438 348 OFFCURVE",
"450 348 CURVE SMOOTH",
"461 348 OFFCURVE",
"507 358 OFFCURVE",
"541 358 CURVE SMOOTH",
"616 358 OFFCURVE",
"667 308 OFFCURVE",
"667 236 CURVE SMOOTH",
"667 163 OFFCURVE",
"620 83 OFFCURVE",
"537 83 CURVE SMOOTH",
"488 83 OFFCURVE",
"428 107 OFFCURVE",
"412 157 CURVE",
"342 73 LINE",
"363 23 OFFCURVE",
"418 -13 OFFCURVE",
"492 -13 CURVE SMOOTH"
);
},
{
closed = 1;
nodes = (
"263 -158 OFFCURVE",
"273 -192 OFFCURVE",
"311 -192 CURVE SMOOTH",
"349 -192 OFFCURVE",
"368 -158 OFFCURVE",
"368 -125 CURVE SMOOTH",
"368 -98 OFFCURVE",
"355 -9 OFFCURVE",
"334 -9 CURVE SMOOTH",
"313 -9 OFFCURVE",
"263 -95 OFFCURVE",
"263 -139 CURVE SMOOTH"
);
}
);
width = 879;
},
{
associatedMasterId = "59118767-2CA9-48AA-9373-694D24C960D8";
components = (
{
name = "CC_headstroke-kannada";
transform = "{1, 0, 0, 1, 422, 0}";
}
);
layerId = "11AA04F3-86F6-48BE-AB36-41D7217256E3";
name = "Regular Sep 21 15, 16:23";
paths = (
{
closed = 1;
nodes = (
"441 132 LINE",
"444 181 OFFCURVE",
"420 181 OFFCURVE",
"394 181 CURVE SMOOTH",
"366 181 OFFCURVE",
"356 90 OFFCURVE",
"230 90 CURVE SMOOTH",
"162 90 OFFCURVE",
"111 138 OFFCURVE",
"112 211 CURVE SMOOTH",
"114 322 OFFCURVE",
"190 403 OFFCURVE",
"238 403 CURVE SMOOTH",
"286 403 OFFCURVE",
"273 355 OFFCURVE",
"224 327 CURVE SMOOTH",
"175 299 OFFCURVE",
"200 237 OFFCURVE",
"241 242 CURVE SMOOTH",
"343 254 OFFCURVE",
"363 332 OFFCURVE",
"363 379 CURVE SMOOTH",
"363 434 OFFCURVE",
"305 464 OFFCURVE",
"259 464 CURVE SMOOTH",
"181 464 OFFCURVE",
"23 359 OFFCURVE",
"30 147 CURVE SMOOTH",
"34 33 OFFCURVE",
"98 -16 OFFCURVE",
"183 -16 CURVE SMOOTH",
"254 -16 OFFCURVE",
"330 29 OFFCURVE",
"369 78 CURVE"
);
},
{
closed = 1;
nodes = (
"357 134 LINE",
"354 32 OFFCURVE",
"408 -16 OFFCURVE",
"497 -16 CURVE SMOOTH",
"676 -16 OFFCURVE",
"790 172 OFFCURVE",
"790 302 CURVE SMOOTH",
"790 507 OFFCURVE",
"551 497 OFFCURVE",
"432 374 CURVE",
"423 362 OFFCURVE",
"420 351 OFFCURVE",
"420 336 CURVE SMOOTH",
"420 313 OFFCURVE",
"436 310 OFFCURVE",
"451 310 CURVE SMOOTH",
"474 310 OFFCURVE",
"521 356 OFFCURVE",
"581 356 CURVE SMOOTH",
"670 356 OFFCURVE",
"704 306 OFFCURVE",
"704 239 CURVE SMOOTH",
"704 126 OFFCURVE",
"606 90 OFFCURVE",
"544 90 CURVE SMOOTH",
"488 90 OFFCURVE",
"451 118 OFFCURVE",
"440 157 CURVE"
);
},
{
closed = 1;
nodes = (
"281 -158 OFFCURVE",
"291 -192 OFFCURVE",
"329 -192 CURVE SMOOTH",
"367 -192 OFFCURVE",
"386 -158 OFFCURVE",
"386 -125 CURVE SMOOTH",
"386 -98 OFFCURVE",
"373 -9 OFFCURVE",
"352 -9 CURVE SMOOTH",
"331 -9 OFFCURVE",
"281 -95 OFFCURVE",
"281 -139 CURVE SMOOTH"
);
}
);
width = 869;
}
);
leftKerningGroup = knLA;
leftMetricsKey = knLA;
rightKerningGroup = knBHA;
rightMetricsKey = knBHA;
unicode = 0C9B;
},
{
color = 4;
glyphname = knJA;
lastChange = "2015-11-08 18:00:46 +0000";
layers = (
{
components = (
{
name = knO;
}
);
layerId = "59118767-2CA9-48AA-9373-694D24C960D8";
name = Regular;
paths = (
{
closed = 1;
nodes = (
"551 601 OFFCURVE",
"536 612 OFFCURVE",
"508 612 CURVE SMOOTH",
"465 612 OFFCURVE",
"430 555 OFFCURVE",
"430 535 CURVE SMOOTH",
"430 516 OFFCURVE",
"464 508 OFFCURVE",
"464 468 CURVE SMOOTH",
"464 428 OFFCURVE",
"420 383 OFFCURVE",
"377 383 CURVE SMOOTH",
"329 383 OFFCURVE",
"294 414 OFFCURVE",
"281 457 CURVE",
"220 388 LINE",
"225 325 OFFCURVE",
"269 296 OFFCURVE",
"328 296 CURVE SMOOTH",
"444 296 OFFCURVE",
"551 417 OFFCURVE",
"551 552 CURVE SMOOTH"
);
}
);
width = 682;
},
{
associatedMasterId = "59118767-2CA9-48AA-9373-694D24C960D8";
components = (
{
name = knO;
}
);
layerId = "60401DEE-92F4-4DA2-B21F-B6289F972E4B";
name = "Regular Sep 21 15, 13:04";
paths = (
{
closed = 1;
nodes = (
"217 317 LINE",
"271 297 OFFCURVE",
"297 293 OFFCURVE",
"348 293 CURVE SMOOTH",
"492 293 OFFCURVE",
"557 431 OFFCURVE",
"557 510 CURVE SMOOTH",
"557 565 OFFCURVE",
"511 613 OFFCURVE",
"475 613 CURVE SMOOTH",
"427 613 OFFCURVE",
"370 523 OFFCURVE",
"411 518 CURVE SMOOTH",
"467 510 OFFCURVE",
"487 506 OFFCURVE",
"487 467 CURVE SMOOTH",
"487 425 OFFCURVE",
"463 402 OFFCURVE",
"408 402 CURVE SMOOTH",
"355 402 OFFCURVE",
"332 407 OFFCURVE",
"275 427 CURVE"
);
}
);
width = 676;
}
);
leftKerningGroup = knO;
leftMetricsKey = knO;
rightKerningGroup = knPA;
rightMetricsKey = knPA;
unicode = 0C9C;
},
{
color = 4;
glyphname = knJHA;
lastChange = "2015-12-10 05:12:16 +0000";
layers = (
{
components = (
{
disableAlignment = 1;
name = knRA;
},
{
disableAlignment = 1;
name = "CC-knmU";
transform = "{1, 0, 0, 1, 846, 0}";
},
{
disableAlignment = 1;
name = "CC-knmU";
transform = "{1, 0, 0, 1, 568, 0}";
}
);
guideLines = (
{
position = "{676, 49}";
}
);
layerId = "59118767-2CA9-48AA-9373-694D24C960D8";
name = Regular;
paths = (
{
closed = 1;
nodes = (
"567 -158 OFFCURVE",
"577 -192 OFFCURVE",
"615 -192 CURVE SMOOTH",
"653 -192 OFFCURVE",
"672 -158 OFFCURVE",
"672 -125 CURVE SMOOTH",
"672 -98 OFFCURVE",
"659 -9 OFFCURVE",
"638 -9 CURVE SMOOTH",
"617 -9 OFFCURVE",
"567 -95 OFFCURVE",
"567 -139 CURVE SMOOTH"
);
}
);
width = 1037;
}
);
leftKerningGroup = knRA;
leftMetricsKey = knRA;
rightKerningGroup = knJHA;
unicode = 0C9D;
},
{
color = 4;
glyphname = knTTA;
lastChange = "2015-11-08 17:41:38 +0000";
layers = (
{
anchors = (
{
name = bottom;
position = "{402, -90}";
}
);
layerId = "59118767-2CA9-48AA-9373-694D24C960D8";
name = Regular;
paths = (
{
closed = 1;
nodes = (
"111 190 LINE",
"12 55 OFFCURVE",
"43 -45 OFFCURVE",
"126 -45 CURVE SMOOTH",
"179 -45 OFFCURVE",
"254 -12 OFFCURVE",
"329 61 CURVE",
"349 12 OFFCURVE",
"423 -16 OFFCURVE",
"470 -13 CURVE SMOOTH",
"608 -12 OFFCURVE",
"716 125 OFFCURVE",
"716 208 CURVE SMOOTH",
"716 258 OFFCURVE",
"693 322 OFFCURVE",
"616 334 CURVE",
"725 412 OFFCURVE",
"697 523 OFFCURVE",
"591 523 CURVE SMOOTH",
"563 523 OFFCURVE",
"537 511 OFFCURVE",
"523 493 CURVE SMOOTH",
"491 452 OFFCURVE",
"526 454 OFFCURVE",
"550 441 CURVE SMOOTH",
"565 433 OFFCURVE",
"577 418 OFFCURVE",
"577 399 CURVE SMOOTH",
"577 376 OFFCURVE",
"560 349 OFFCURVE",
"513 325 CURVE",
"453 304 OFFCURVE",
"438 260 OFFCURVE",
"438 246 CURVE SMOOTH",
"438 237 OFFCURVE",
"447 234 OFFCURVE",
"454 234 CURVE SMOOTH",
"468 234 OFFCURVE",
"476 240 OFFCURVE",
"534 240 CURVE SMOOTH",
"612 240 OFFCURVE",
"630 191 OFFCURVE",
"630 157 CURVE SMOOTH",
"630 70 OFFCURVE",
"419 42 OFFCURVE",
"406 158 CURVE",
"402 176 OFFCURVE",
"380 175 OFFCURVE",
"360 152 CURVE SMOOTH",
"341 130 OFFCURVE",
"264 60 OFFCURVE",
"193 55 CURVE SMOOTH",
"143 52 OFFCURVE",
"129 74 OFFCURVE",
"175 172 CURVE"
);
},
{
closed = 1;
nodes = (
"190 519 OFFCURVE",
"168 514 CURVE SMOOTH",
"116 503 OFFCURVE",
"85 458 OFFCURVE",
"74 402 CURVE SMOOTH",
"46 271 OFFCURVE",
"55 134 OFFCURVE",
"174 134 CURVE SMOOTH",
"292 134 OFFCURVE",
"410 230 OFFCURVE",
"379 314 CURVE SMOOTH",
"348 397 OFFCURVE",
"186 334 OFFCURVE",
"139 210 CURVE",
"186 181 LINE",
"204 244 OFFCURVE",
"280 298 OFFCURVE",
"303 264 CURVE SMOOTH",
"319 239 OFFCURVE",
"295 212 OFFCURVE",
"255 201 CURVE SMOOTH",
"135 171 OFFCURVE",
"139 352 OFFCURVE",
"190 479 CURVE SMOOTH",
"202 509 OFFCURVE"
);
}
);
width = 746;
},
{
anchors = (
{
name = bottom;
position = "{377, -90}";
}
);
associatedMasterId = "59118767-2CA9-48AA-9373-694D24C960D8";
layerId = "1F8F8C9D-73F8-4BE5-BCB8-BE2C59DA36D9";
name = "Regular Aug 31 15, 15:43";
paths = (
{
closed = 1;
nodes = (
"425 -12 LINE",
"572 -25 OFFCURVE",
"691 121 OFFCURVE",
"691 208 CURVE SMOOTH",
"691 263 OFFCURVE",
"663 336 OFFCURVE",
"563 336 CURVE SMOOTH",
"439 336 OFFCURVE",
"413 265 OFFCURVE",
"413 246 CURVE SMOOTH",
"413 237 OFFCURVE",
"422 234 OFFCURVE",
"429 234 CURVE SMOOTH",
"443 234 OFFCURVE",
"451 240 OFFCURVE",
"509 240 CURVE SMOOTH",
"587 240 OFFCURVE",
"605 191 OFFCURVE",
"605 157 CURVE SMOOTH",
"605 130 OFFCURVE",
"578 109 OFFCURVE",
"549 97 CURVE SMOOTH",
"525 88 OFFCURVE",
"499 85 OFFCURVE",
"485 85 CURVE"
);
},
{
closed = 1;
nodes = (
"260 371 OFFCURVE",
"285 383 OFFCURVE",
"304 402 CURVE SMOOTH",
"334 434 OFFCURVE",
"329 478 OFFCURVE",
"288 505 CURVE SMOOTH",
"270 516 OFFCURVE",
"246 523 OFFCURVE",
"218 523 CURVE SMOOTH",
"142 523 OFFCURVE",
"40 418 OFFCURVE",
"40 282 CURVE SMOOTH",
"40 240 OFFCURVE",
"57 184 OFFCURVE",
"122 184 CURVE SMOOTH",
"127 184 OFFCURVE",
"135 185 OFFCURVE",
"143 188 CURVE",
"103 129 OFFCURVE",
"45 25 OFFCURVE",
"97 -31 CURVE",
"119 -53 OFFCURVE",
"156 -58 OFFCURVE",
"199 -36 CURVE SMOOTH",
"235 -18 OFFCURVE",
"276 13 OFFCURVE",
"309 51 CURVE",
"335 6 OFFCURVE",
"409 -19 OFFCURVE",
"452 -12 CURVE",
"499 85 LINE",
"494 85 LINE",
"454 82 OFFCURVE",
"416 103 OFFCURVE",
"381 158 CURVE",
"377 176 OFFCURVE",
"355 175 OFFCURVE",
"335 152 CURVE SMOOTH",
"309 122 OFFCURVE",
"284 88 OFFCURVE",
"254 69 CURVE SMOOTH",
"239 60 OFFCURVE",
"225 55 OFFCURVE",
"215 55 CURVE SMOOTH",
"161 55 OFFCURVE",
"176 119 OFFCURVE",
"240 246 CURVE SMOOTH",
"254 274 OFFCURVE",
"254 303 OFFCURVE",
"216 284 CURVE SMOOTH",
"193 272 OFFCURVE",
"182 272 OFFCURVE",
"173 272 CURVE SMOOTH",
"139 272 OFFCURVE",
"111 304 OFFCURVE",
"111 349 CURVE SMOOTH",
"111 415 OFFCURVE",
"140 427 OFFCURVE",
"168 427 CURVE SMOOTH",
"189 427 OFFCURVE",
"218 427 OFFCURVE",
"251 382 CURVE"
);
},
{
closed = 1;
nodes = (
"677 523 OFFCURVE",
"566 523 CURVE SMOOTH",
"538 523 OFFCURVE",
"512 511 OFFCURVE",
"498 493 CURVE SMOOTH",
"466 452 OFFCURVE",
"501 454 OFFCURVE",
"525 441 CURVE SMOOTH",
"540 433 OFFCURVE",
"552 418 OFFCURVE",
"552 399 CURVE SMOOTH",
"552 373 OFFCURVE",
"530 342 OFFCURVE",
"467 315 CURVE",
"576 324 LINE",
"702 402 OFFCURVE"
);
}
);
width = 711;
},
{
anchors = (
{
name = bottom;
position = "{377, -90}";
}
);
associatedMasterId = "59118767-2CA9-48AA-9373-694D24C960D8";
background = {
paths = (
{
closed = 1;
nodes = (
"151 199 LINE",
"111 143 OFFCURVE",
"42 29 OFFCURVE",
"97 -31 CURVE",
"119 -53 OFFCURVE",
"156 -58 OFFCURVE",
"199 -36 CURVE SMOOTH",
"235 -18 OFFCURVE",
"276 13 OFFCURVE",
"309 51 CURVE",
"335 6 OFFCURVE",
"409 -19 OFFCURVE",
"452 -12 CURVE",
"499 85 LINE",
"494 85 LINE",
"454 82 OFFCURVE",
"416 103 OFFCURVE",
"381 158 CURVE",
"377 176 OFFCURVE",
"355 175 OFFCURVE",
"335 152 CURVE SMOOTH",
"309 122 OFFCURVE",
"284 88 OFFCURVE",
"254 69 CURVE SMOOTH",
"239 60 OFFCURVE",
"225 55 OFFCURVE",
"215 55 CURVE SMOOTH",
"157 55 OFFCURVE",
"179 129 OFFCURVE",
"255 274 CURVE"
);
}
);
};
layerId = "76480D55-6497-4539-973C-023CEF7C0DBB";
name = "Regular Aug 31 15, 15:51";
paths = (
{
closed = 1;
nodes = (
"425 -12 LINE",
"572 -25 OFFCURVE",
"691 121 OFFCURVE",
"691 208 CURVE SMOOTH",
"691 263 OFFCURVE",
"663 336 OFFCURVE",
"563 336 CURVE SMOOTH",
"439 336 OFFCURVE",
"413 265 OFFCURVE",
"413 246 CURVE SMOOTH",
"413 237 OFFCURVE",
"422 234 OFFCURVE",
"429 234 CURVE SMOOTH",
"443 234 OFFCURVE",
"451 240 OFFCURVE",
"509 240 CURVE SMOOTH",
"587 240 OFFCURVE",
"605 191 OFFCURVE",
"605 157 CURVE SMOOTH",
"605 130 OFFCURVE",
"578 109 OFFCURVE",
"549 97 CURVE SMOOTH",
"525 88 OFFCURVE",
"499 85 OFFCURVE",
"485 85 CURVE"
);
},
{
closed = 1;
nodes = (
"77 158 LINE",
"37 102 OFFCURVE",
"-5 29 OFFCURVE",
"50 -31 CURVE",
"100 -81 OFFCURVE",
"262 9 OFFCURVE",
"321 78 CURVE",
"300 78 LINE",
"307 16 OFFCURVE",
"401 -20 OFFCURVE",
"452 -12 CURVE",
"499 85 LINE",
"494 85 LINE",
"454 82 OFFCURVE",
"416 103 OFFCURVE",
"381 158 CURVE",
"377 176 OFFCURVE",
"355 175 OFFCURVE",
"335 152 CURVE SMOOTH",
"316 130 OFFCURVE",
"239 60 OFFCURVE",
"168 55 CURVE SMOOTH",
"114 51 OFFCURVE",
"102 78 OFFCURVE",
"166 204 CURVE"
);
},
{
closed = 1;
nodes = (
"702 402 OFFCURVE",
"677 523 OFFCURVE",
"566 523 CURVE SMOOTH",
"538 523 OFFCURVE",
"512 511 OFFCURVE",
"498 493 CURVE SMOOTH",
"466 452 OFFCURVE",
"501 454 OFFCURVE",
"525 441 CURVE SMOOTH",
"540 433 OFFCURVE",
"552 418 OFFCURVE",
"552 399 CURVE SMOOTH",
"552 373 OFFCURVE",
"530 342 OFFCURVE",
"467 315 CURVE",
"576 324 LINE"
);
},
{
closed = 1;
nodes = (
"4 50 OFFCURVE",
"158 176 OFFCURVE",
"166 204 CURVE SMOOTH",
"188 279 OFFCURVE",
"276 298 OFFCURVE",
"293 271 CURVE SMOOTH",
"300 260 OFFCURVE",
"299 231 OFFCURVE",
"252 215 CURVE SMOOTH",
"222 205 OFFCURVE",
"103 180 OFFCURVE",
"88 200 CURVE",
"57 181 LINE",
"84 117 OFFCURVE",
"234 147 OFFCURVE",
"283 165 CURVE SMOOTH",
"351 190 OFFCURVE",
"379 251 OFFCURVE",
"363 295 CURVE SMOOTH",
"325 397 OFFCURVE",
"141 262 OFFCURVE",
"77 158 CURVE"
);
},
{
closed = 1;
nodes = (
"37 388 OFFCURVE",
"25 236 OFFCURVE",
"57 181 CURVE",
"133 203 LINE",
"122 365 OFFCURVE",
"169 459 OFFCURVE",
"179 514 CURVE",
"159 524 OFFCURVE",
"94 514 OFFCURVE",
"74 484 CURVE"
);
}
);
width = 711;
}
);
leftKerningGroup = knTTA;
rightKerningGroup = knTTA;
unicode = 0C9F;
},
{
color = 4;
glyphname = knDDA;
lastChange = "2015-12-10 05:12:51 +0000";
layers = (
{
components = (
{
name = "CC_headstroke-kannada";
transform = "{1, 0, 0, 1, 53, 7}";
}
);
layerId = "59118767-2CA9-48AA-9373-694D24C960D8";
name = Regular;
paths = (
{
closed = 1;
nodes = (
"555 327 OFFCURVE",
"557 340 OFFCURVE",
"557 352 CURVE SMOOTH",
"557 425 OFFCURVE",
"478 463 OFFCURVE",
"377 463 CURVE SMOOTH",
"268 463 OFFCURVE",
"133 436 OFFCURVE",
"57 380 CURVE",
"46 345 OFFCURVE",
"59 310 OFFCURVE",
"74 310 CURVE SMOOTH",
"90 310 OFFCURVE",
"120 333 OFFCURVE",
"177 352 CURVE",
"95 284 OFFCURVE",
"22 145 OFFCURVE",
"22 34 CURVE SMOOTH",
"22 -19 OFFCURVE",
"47 -50 OFFCURVE",
"100 -50 CURVE SMOOTH",
"146 -50 OFFCURVE",
"216 -20 OFFCURVE",
"278 46 CURVE",
"298 5 OFFCURVE",
"342 -14 OFFCURVE",
"391 -14 CURVE SMOOTH",
"449 -14 OFFCURVE",
"515 11 OFFCURVE",
"562 53 CURVE SMOOTH",
"615 100 OFFCURVE",
"648 162 OFFCURVE",
"648 208 CURVE SMOOTH",
"648 271 OFFCURVE",
"605 306 OFFCURVE",
"550 313 CURVE"
);
},
{
closed = 1;
nodes = (
"404 81 OFFCURVE",
"347 97 OFFCURVE",
"339 157 CURVE",
"339 166 OFFCURVE",
"331 173 OFFCURVE",
"322 173 CURVE SMOOTH",
"311 173 OFFCURVE",
"300 165 OFFCURVE",
"291 152 CURVE SMOOTH",
"255 99 OFFCURVE",
"199 54 OFFCURVE",
"165 54 CURVE SMOOTH",
"134 54 OFFCURVE",
"123 76 OFFCURVE",
"123 110 CURVE SMOOTH",
"123 190 OFFCURVE",
"192 324 OFFCURVE",
"270 371 CURVE",
"292 374 OFFCURVE",
"315 375 OFFCURVE",
"338 375 CURVE SMOOTH",
"411 375 OFFCURVE",
"490 358 OFFCURVE",
"497 311 CURVE",
"437 301 OFFCURVE",
"378 264 OFFCURVE",
"378 194 CURVE SMOOTH",
"378 176 OFFCURVE",
"385 162 OFFCURVE",
"405 162 CURVE SMOOTH",
"442 162 OFFCURVE",
"493 198 OFFCURVE",
"526 240 CURVE",
"552 235 OFFCURVE",
"567 209 OFFCURVE",
"567 180 CURVE SMOOTH",
"567 118 OFFCURVE",
"515 81 OFFCURVE",
"442 81 CURVE SMOOTH"
);
}
);
width = 680;
},
{
associatedMasterId = "59118767-2CA9-48AA-9373-694D24C960D8";
background = {
paths = (
{
closed = 1;
nodes = (
"513 246 LINE",
"524 153 OFFCURVE",
"454 87 OFFCURVE",
"391 87 CURVE SMOOTH",
"355 87 OFFCURVE",
"322 108 OFFCURVE",
"308 158 CURVE",
"304 176 OFFCURVE",
"282 175 OFFCURVE",
"262 152 CURVE SMOOTH",
"236 122 OFFCURVE",
"211 88 OFFCURVE",
"181 69 CURVE",
"141 46 OFFCURVE",
"114 48 OFFCURVE",
"114 102 CURVE SMOOTH",
"114 188 OFFCURVE",
"183 290 OFFCURVE",
"259 382 CURVE",
"179 354 LINE",
"65 235 OFFCURVE",
"0 121 OFFCURVE",
"0 36 CURVE SMOOTH",
"0 -35 OFFCURVE",
"55 -73 OFFCURVE",
"126 -36 CURVE SMOOTH",
"169 -14 OFFCURVE",
"220 26 OFFCURVE",
"255 74 CURVE",
"226 77 LINE",
"240 22 OFFCURVE",
"297 -13 OFFCURVE",
"345 -13 CURVE SMOOTH",
"492 -13 OFFCURVE",
"600 168 OFFCURVE",
"592 282 CURVE"
);
},
{
closed = 1;
nodes = (
"591 250 LINE",
"605 501 OFFCURVE",
"306 513 OFFCURVE",
"70 374 CURVE",
"61 362 OFFCURVE",
"58 351 OFFCURVE",
"58 336 CURVE SMOOTH",
"58 313 OFFCURVE",
"74 310 OFFCURVE",
"89 310 CURVE SMOOTH",
"110 310 OFFCURVE",
"172 340 OFFCURVE",
"199 353 CURVE SMOOTH",
"209 358 OFFCURVE",
"219 345 OFFCURVE",
"230 349 CURVE SMOOTH",
"359 400 OFFCURVE",
"528 350 OFFCURVE",
"513 209 CURVE"
);
}
);
};
components = (
{
name = "CC_headstroke-kannada";
transform = "{1, 0, 0, 1, 26, 7}";
}
);
layerId = "E4F3B6C0-8B99-4F38-834F-0A1EA598ACD8";
name = "Regular Aug 31 15, 16:59";
paths = (
{
closed = 1;
nodes = (
"307 139 LINE",
"316 175 OFFCURVE",
"287 181 OFFCURVE",
"262 152 CURVE SMOOTH",
"236 122 OFFCURVE",
"211 88 OFFCURVE",
"181 69 CURVE",
"141 46 OFFCURVE",
"114 48 OFFCURVE",
"114 102 CURVE SMOOTH",
"114 188 OFFCURVE",
"183 290 OFFCURVE",
"259 382 CURVE",
"179 354 LINE",
"65 235 OFFCURVE",
"0 121 OFFCURVE",
"0 36 CURVE SMOOTH",
"0 -35 OFFCURVE",
"55 -73 OFFCURVE",
"126 -36 CURVE SMOOTH",
"173 -12 OFFCURVE",
"230 34 OFFCURVE",
"264 88 CURVE"
);
},
{
closed = 1;
nodes = (
"353 -12 LINE",
"500 -25 OFFCURVE",
"619 121 OFFCURVE",
"619 208 CURVE SMOOTH",
"619 263 OFFCURVE",
"591 336 OFFCURVE",
"491 336 CURVE SMOOTH",
"367 336 OFFCURVE",
"341 265 OFFCURVE",
"341 246 CURVE SMOOTH",
"341 237 OFFCURVE",
"350 234 OFFCURVE",
"357 234 CURVE SMOOTH",
"371 234 OFFCURVE",
"379 240 OFFCURVE",
"437 240 CURVE SMOOTH",
"515 240 OFFCURVE",
"533 191 OFFCURVE",
"533 157 CURVE SMOOTH",
"533 130 OFFCURVE",
"506 109 OFFCURVE",
"477 97 CURVE SMOOTH",
"453 88 OFFCURVE",
"427 85 OFFCURVE",
"413 85 CURVE"
);
},
{
closed = 1;
nodes = (
"630 402 OFFCURVE",
"605 523 OFFCURVE",
"494 523 CURVE SMOOTH",
"466 523 OFFCURVE",
"440 511 OFFCURVE",
"426 493 CURVE SMOOTH",
"394 452 OFFCURVE",
"429 454 OFFCURVE",
"453 441 CURVE SMOOTH",
"468 433 OFFCURVE",
"480 418 OFFCURVE",
"480 399 CURVE SMOOTH",
"480 373 OFFCURVE",
"458 342 OFFCURVE",
"395 315 CURVE",
"504 324 LINE"
);
},
{
closed = 1;
nodes = (
"291 168 LINE",
"231 65 LINE",
"248 11 OFFCURVE",
"333 -20 OFFCURVE",
"380 -12 CURVE",
"427 85 LINE",
"422 85 LINE",
"381 82 OFFCURVE",
"342 104 OFFCURVE",
"306 162 CURVE"
);
}
);
width = 622;
},
{
associatedMasterId = "59118767-2CA9-48AA-9373-694D24C960D8";
background = {
paths = (
{
closed = 1;
nodes = (
"513 246 LINE",
"524 153 OFFCURVE",
"454 87 OFFCURVE",
"391 87 CURVE SMOOTH",
"355 87 OFFCURVE",
"322 108 OFFCURVE",
"308 158 CURVE",
"304 176 OFFCURVE",
"282 175 OFFCURVE",
"262 152 CURVE SMOOTH",
"236 122 OFFCURVE",
"211 88 OFFCURVE",
"181 69 CURVE",
"141 46 OFFCURVE",
"114 48 OFFCURVE",
"114 102 CURVE SMOOTH",
"114 188 OFFCURVE",
"183 290 OFFCURVE",
"259 382 CURVE",
"179 354 LINE",
"65 235 OFFCURVE",
"0 121 OFFCURVE",
"0 36 CURVE SMOOTH",
"0 -35 OFFCURVE",
"55 -73 OFFCURVE",
"126 -36 CURVE SMOOTH",
"169 -14 OFFCURVE",
"220 26 OFFCURVE",
"255 74 CURVE",
"226 77 LINE",
"240 22 OFFCURVE",
"297 -13 OFFCURVE",
"345 -13 CURVE SMOOTH",
"492 -13 OFFCURVE",
"600 168 OFFCURVE",
"592 282 CURVE"
);
},
{
closed = 1;
nodes = (
"591 250 LINE",
"605 501 OFFCURVE",
"306 513 OFFCURVE",
"70 374 CURVE",
"61 362 OFFCURVE",
"58 351 OFFCURVE",
"58 336 CURVE SMOOTH",
"58 313 OFFCURVE",
"74 310 OFFCURVE",
"89 310 CURVE SMOOTH",
"110 310 OFFCURVE",
"172 340 OFFCURVE",
"199 353 CURVE SMOOTH",
"209 358 OFFCURVE",
"219 345 OFFCURVE",
"230 349 CURVE SMOOTH",
"359 400 OFFCURVE",
"528 350 OFFCURVE",
"513 209 CURVE"
);
}
);
};
components = (
{
name = "CC_headstroke-kannada";
transform = "{1, 0, 0, 1, 60, 7}";
}
);
layerId = "8B5CE5F4-5774-4010-9614-D6D4D4F42D86";
name = "Regular Aug 31 15, 17:00";
paths = (
{
closed = 1;
nodes = (
"307 139 LINE",
"316 175 OFFCURVE",
"287 181 OFFCURVE",
"262 152 CURVE SMOOTH",
"236 122 OFFCURVE",
"211 88 OFFCURVE",
"181 69 CURVE",
"141 46 OFFCURVE",
"114 48 OFFCURVE",
"114 102 CURVE SMOOTH",
"114 188 OFFCURVE",
"183 290 OFFCURVE",
"259 382 CURVE",
"179 354 LINE",
"65 235 OFFCURVE",
"0 121 OFFCURVE",
"0 36 CURVE SMOOTH",
"0 -35 OFFCURVE",
"55 -73 OFFCURVE",
"126 -36 CURVE SMOOTH",
"173 -12 OFFCURVE",
"230 34 OFFCURVE",
"264 88 CURVE"
);
},
{
closed = 1;
nodes = (
"353 -12 LINE",
"500 -25 OFFCURVE",
"619 121 OFFCURVE",
"619 208 CURVE SMOOTH",
"619 263 OFFCURVE",
"591 306 OFFCURVE",
"491 306 CURVE SMOOTH",
"367 306 OFFCURVE",
"341 235 OFFCURVE",
"341 216 CURVE SMOOTH",
"341 207 OFFCURVE",
"350 204 OFFCURVE",
"357 204 CURVE SMOOTH",
"371 204 OFFCURVE",
"379 210 OFFCURVE",
"437 210 CURVE SMOOTH",
"515 210 OFFCURVE",
"533 191 OFFCURVE",
"533 157 CURVE SMOOTH",
"533 115 OFFCURVE",
"468 85 OFFCURVE",
"413 85 CURVE"
);
},
{
closed = 1;
nodes = (
"291 168 LINE",
"231 65 LINE",
"248 11 OFFCURVE",
"333 -20 OFFCURVE",
"380 -12 CURVE",
"427 85 LINE",
"422 85 LINE",
"381 82 OFFCURVE",
"342 104 OFFCURVE",
"306 162 CURVE"
);
},
{
closed = 1;
nodes = (
"541 250 LINE",
"555 501 OFFCURVE",
"306 513 OFFCURVE",
"70 374 CURVE",
"61 362 OFFCURVE",
"58 351 OFFCURVE",
"58 336 CURVE SMOOTH",
"58 313 OFFCURVE",
"74 310 OFFCURVE",
"89 310 CURVE SMOOTH",
"110 310 OFFCURVE",
"172 340 OFFCURVE",
"199 353 CURVE SMOOTH",
"209 358 OFFCURVE",
"219 345 OFFCURVE",
"230 349 CURVE SMOOTH",
"359 400 OFFCURVE",
"478 350 OFFCURVE",
"463 209 CURVE"
);
}
);
width = 622;
},
{
associatedMasterId = "59118767-2CA9-48AA-9373-694D24C960D8";
background = {
paths = (
{
closed = 1;
nodes = (
"513 246 LINE",
"524 153 OFFCURVE",
"454 87 OFFCURVE",
"391 87 CURVE SMOOTH",
"355 87 OFFCURVE",
"322 108 OFFCURVE",
"308 158 CURVE",
"304 176 OFFCURVE",
"282 175 OFFCURVE",
"262 152 CURVE SMOOTH",
"236 122 OFFCURVE",
"211 88 OFFCURVE",
"181 69 CURVE",
"141 46 OFFCURVE",
"114 48 OFFCURVE",
"114 102 CURVE SMOOTH",
"114 188 OFFCURVE",
"183 290 OFFCURVE",
"259 382 CURVE",
"179 354 LINE",
"65 235 OFFCURVE",
"0 121 OFFCURVE",
"0 36 CURVE SMOOTH",
"0 -35 OFFCURVE",
"55 -73 OFFCURVE",
"126 -36 CURVE SMOOTH",
"169 -14 OFFCURVE",
"220 26 OFFCURVE",
"255 74 CURVE",
"226 77 LINE",
"240 22 OFFCURVE",
"297 -13 OFFCURVE",
"345 -13 CURVE SMOOTH",
"492 -13 OFFCURVE",
"600 168 OFFCURVE",
"592 282 CURVE"
);
},
{
closed = 1;
nodes = (
"591 250 LINE",
"605 501 OFFCURVE",
"306 513 OFFCURVE",
"70 374 CURVE",
"61 362 OFFCURVE",
"58 351 OFFCURVE",
"58 336 CURVE SMOOTH",
"58 313 OFFCURVE",
"74 310 OFFCURVE",
"89 310 CURVE SMOOTH",
"110 310 OFFCURVE",
"172 340 OFFCURVE",
"199 353 CURVE SMOOTH",
"209 358 OFFCURVE",
"219 345 OFFCURVE",
"230 349 CURVE SMOOTH",
"359 400 OFFCURVE",
"528 350 OFFCURVE",
"513 209 CURVE"
);
}
);
};
components = (
{
name = "CC_headstroke-kannada";
transform = "{1, 0, 0, 1, 60, 7}";
}
);
layerId = "4AB4D9CC-6BF5-4D4D-BA87-8223F9DD6B8B";
name = "Regular Aug 31 15, 17:01";
paths = (
{
closed = 1;
nodes = (
"307 139 LINE",
"316 175 OFFCURVE",
"287 181 OFFCURVE",
"262 152 CURVE SMOOTH",
"236 122 OFFCURVE",
"211 88 OFFCURVE",
"181 69 CURVE",
"141 46 OFFCURVE",
"114 48 OFFCURVE",
"114 102 CURVE SMOOTH",
"114 188 OFFCURVE",
"183 290 OFFCURVE",
"259 382 CURVE",
"179 354 LINE",
"65 235 OFFCURVE",
"0 121 OFFCURVE",
"0 36 CURVE SMOOTH",
"0 -35 OFFCURVE",
"55 -73 OFFCURVE",
"126 -36 CURVE SMOOTH",
"173 -12 OFFCURVE",
"230 34 OFFCURVE",
"264 88 CURVE"
);
},
{
closed = 1;
nodes = (
"353 -12 LINE",
"500 -25 OFFCURVE",
"619 121 OFFCURVE",
"619 208 CURVE SMOOTH",
"619 263 OFFCURVE",
"591 306 OFFCURVE",
"491 306 CURVE SMOOTH",
"367 306 OFFCURVE",
"341 235 OFFCURVE",
"341 216 CURVE SMOOTH",
"341 195 OFFCURVE",
"421 153 OFFCURVE",
"541 250 CURVE",
"589 245 OFFCURVE",
"533 185 OFFCURVE",
"533 157 CURVE SMOOTH",
"533 115 OFFCURVE",
"468 85 OFFCURVE",
"413 85 CURVE"
);
},
{
closed = 1;
nodes = (
"291 168 LINE",
"231 65 LINE",
"248 11 OFFCURVE",
"333 -20 OFFCURVE",
"380 -12 CURVE",
"427 85 LINE",
"422 85 LINE",
"381 82 OFFCURVE",
"342 104 OFFCURVE",
"306 162 CURVE"
);
},
{
closed = 1;
nodes = (
"541 250 LINE",
"555 501 OFFCURVE",
"306 513 OFFCURVE",
"70 374 CURVE",
"61 362 OFFCURVE",
"58 351 OFFCURVE",
"58 336 CURVE SMOOTH",
"58 313 OFFCURVE",
"74 310 OFFCURVE",
"89 310 CURVE SMOOTH",
"110 310 OFFCURVE",
"172 340 OFFCURVE",
"199 353 CURVE SMOOTH",
"209 358 OFFCURVE",
"219 345 OFFCURVE",
"230 349 CURVE SMOOTH",
"359 400 OFFCURVE",
"478 350 OFFCURVE",
"463 209 CURVE"
);
}
);
width = 622;
},
{
associatedMasterId = "59118767-2CA9-48AA-9373-694D24C960D8";
background = {
components = (
{
name = "CC_Ofirsthalf-kannada";
transform = "{1, 0, 0, 1, -2, 0}";
}
);
paths = (
{
closed = 1;
nodes = (
"608 281 OFFCURVE",
"593 312 OFFCURVE",
"565 312 CURVE SMOOTH",
"522 312 OFFCURVE",
"487 235 OFFCURVE",
"487 215 CURVE SMOOTH",
"487 196 OFFCURVE",
"521 188 OFFCURVE",
"521 148 CURVE SMOOTH",
"521 108 OFFCURVE",
"477 83 OFFCURVE",
"434 83 CURVE SMOOTH",
"386 83 OFFCURVE",
"351 114 OFFCURVE",
"338 157 CURVE",
"267 78 LINE",
"272 15 OFFCURVE",
"316 -14 OFFCURVE",
"375 -14 CURVE SMOOTH",
"491 -14 OFFCURVE",
"608 97 OFFCURVE",
"608 232 CURVE SMOOTH"
);
}
);
};
components = (
{
name = "CC_headstroke-kannada";
transform = "{1, 0, 0, 1, 90, 7}";
}
);
layerId = "6BACCA1F-A2BF-41BA-AF62-836316E45D03";
name = "Regular Sep 19 15, 22:02";
paths = (
{
closed = 1;
nodes = (
"337 139 LINE",
"346 175 OFFCURVE",
"317 181 OFFCURVE",
"292 152 CURVE SMOOTH",
"266 122 OFFCURVE",
"241 88 OFFCURVE",
"211 69 CURVE",
"171 46 OFFCURVE",
"144 48 OFFCURVE",
"144 102 CURVE SMOOTH",
"144 188 OFFCURVE",
"213 290 OFFCURVE",
"289 382 CURVE",
"209 354 LINE",
"95 235 OFFCURVE",
"30 121 OFFCURVE",
"30 36 CURVE SMOOTH",
"30 -35 OFFCURVE",
"85 -73 OFFCURVE",
"156 -36 CURVE SMOOTH",
"203 -12 OFFCURVE",
"260 34 OFFCURVE",
"294 88 CURVE"
);
},
{
closed = 1;
nodes = (
"383 -12 LINE",
"530 -25 OFFCURVE",
"649 121 OFFCURVE",
"649 208 CURVE SMOOTH",
"649 263 OFFCURVE",
"621 306 OFFCURVE",
"521 306 CURVE SMOOTH",
"474 306 OFFCURVE",
"441 292 OFFCURVE",
"418 274 CURVE SMOOTH",
"384 247 OFFCURVE",
"357 137 OFFCURVE",
"457 179 CURVE SMOOTH",
"497 196 OFFCURVE",
"546 233 OFFCURVE",
"559 284 CURVE",
"509 245 LINE",
"639 224 OFFCURVE",
"558 85 OFFCURVE",
"443 85 CURVE"
);
},
{
closed = 1;
nodes = (
"321 168 LINE",
"261 65 LINE",
"278 11 OFFCURVE",
"363 -20 OFFCURVE",
"410 -12 CURVE",
"457 85 LINE",
"452 85 LINE",
"411 82 OFFCURVE",
"372 104 OFFCURVE",
"336 162 CURVE"
);
},
{
closed = 1;
nodes = (
"562 292 LINE",
"579 369 OFFCURVE",
"544 434 OFFCURVE",
"481 453 CURVE SMOOTH",
"389 480 OFFCURVE",
"228 449 OFFCURVE",
"100 374 CURVE",
"91 362 OFFCURVE",
"88 351 OFFCURVE",
"88 336 CURVE SMOOTH",
"88 313 OFFCURVE",
"104 310 OFFCURVE",
"119 310 CURVE SMOOTH",
"140 310 OFFCURVE",
"202 340 OFFCURVE",
"229 353 CURVE SMOOTH",
"239 358 OFFCURVE",
"249 345 OFFCURVE",
"260 349 CURVE SMOOTH",
"312 370 OFFCURVE",
"392 374 OFFCURVE",
"433 362 CURVE SMOOTH",
"493 345 OFFCURVE",
"497 302 OFFCURVE",
"453 230 CURVE"
);
}
);
width = 679;
},
{
associatedMasterId = "59118767-2CA9-48AA-9373-694D24C960D8";
background = {
paths = (
{
closed = 1;
nodes = (
"220 379 LINE",
"122 331 OFFCURVE",
"23 163 OFFCURVE",
"23 34 CURVE SMOOTH",
"23 -19 OFFCURVE",
"48 -50 OFFCURVE",
"101 -50 CURVE SMOOTH",
"162 -50 OFFCURVE",
"264 3 OFFCURVE",
"336 122 CURVE SMOOTH",
"340 129 OFFCURVE",
"340 152 OFFCURVE",
"340 157 CURVE SMOOTH",
"340 166 OFFCURVE",
"332 173 OFFCURVE",
"323 173 CURVE SMOOTH",
"312 173 OFFCURVE",
"301 165 OFFCURVE",
"292 152 CURVE SMOOTH",
"256 99 OFFCURVE",
"200 54 OFFCURVE",
"166 54 CURVE SMOOTH",
"135 54 OFFCURVE",
"124 76 OFFCURVE",
"124 110 CURVE SMOOTH",
"124 195 OFFCURVE",
"202 341 OFFCURVE",
"286 379 CURVE"
);
},
{
closed = 1;
nodes = (
"609 109 OFFCURVE",
"609 240 CURVE SMOOTH",
"609 390 OFFCURVE",
"510 462 OFFCURVE",
"371 462 CURVE SMOOTH",
"248 462 OFFCURVE",
"139 433 OFFCURVE",
"58 380 CURVE",
"47 345 OFFCURVE",
"60 310 OFFCURVE",
"75 310 CURVE SMOOTH",
"102 310 OFFCURVE",
"156 359 OFFCURVE",
"325 359 CURVE SMOOTH",
"440 359 OFFCURVE",
"534 287 OFFCURVE",
"534 184 CURVE SMOOTH",
"534 129 OFFCURVE",
"489 83 OFFCURVE",
"435 83 CURVE SMOOTH",
"397 83 OFFCURVE",
"357 105 OFFCURVE",
"340 157 CURVE",
"270 73 LINE",
"285 13 OFFCURVE",
"331 -13 OFFCURVE",
"383 -13 CURVE SMOOTH",
"503 -13 OFFCURVE"
);
}
);
};
components = (
{
name = "CC_headstroke-kannada";
transform = "{1, 0, 0, 1, 90, 7}";
}
);
layerId = "E8D3C032-14E7-4A26-A01E-B35219E89E1A";
name = "Regular Sep 20 15, 10:56";
paths = (
{
closed = 1;
nodes = (
"337 139 LINE",
"346 175 OFFCURVE",
"317 181 OFFCURVE",
"292 152 CURVE SMOOTH",
"266 122 OFFCURVE",
"241 88 OFFCURVE",
"211 69 CURVE",
"171 46 OFFCURVE",
"144 48 OFFCURVE",
"144 102 CURVE SMOOTH",
"144 188 OFFCURVE",
"213 290 OFFCURVE",
"289 382 CURVE",
"209 354 LINE",
"95 235 OFFCURVE",
"30 121 OFFCURVE",
"30 36 CURVE SMOOTH",
"30 -35 OFFCURVE",
"85 -73 OFFCURVE",
"156 -36 CURVE SMOOTH",
"203 -12 OFFCURVE",
"260 34 OFFCURVE",
"294 88 CURVE"
);
},
{
closed = 1;
nodes = (
"383 -12 LINE",
"530 -25 OFFCURVE",
"649 121 OFFCURVE",
"649 208 CURVE SMOOTH",
"649 263 OFFCURVE",
"621 306 OFFCURVE",
"521 306 CURVE SMOOTH",
"474 306 OFFCURVE",
"441 292 OFFCURVE",
"418 274 CURVE SMOOTH",
"384 247 OFFCURVE",
"357 137 OFFCURVE",
"457 179 CURVE SMOOTH",
"497 196 OFFCURVE",
"546 233 OFFCURVE",
"559 284 CURVE",
"509 245 LINE",
"639 224 OFFCURVE",
"558 85 OFFCURVE",
"443 85 CURVE"
);
},
{
closed = 1;
nodes = (
"321 168 LINE",
"261 65 LINE",
"278 11 OFFCURVE",
"363 -20 OFFCURVE",
"410 -12 CURVE",
"457 85 LINE",
"452 85 LINE",
"411 82 OFFCURVE",
"372 104 OFFCURVE",
"336 162 CURVE"
);
},
{
closed = 1;
nodes = (
"562 292 LINE",
"579 369 OFFCURVE",
"544 434 OFFCURVE",
"481 453 CURVE SMOOTH",
"389 480 OFFCURVE",
"228 449 OFFCURVE",
"100 374 CURVE",
"91 362 OFFCURVE",
"88 351 OFFCURVE",
"88 336 CURVE SMOOTH",
"88 313 OFFCURVE",
"104 310 OFFCURVE",
"119 310 CURVE SMOOTH",
"140 310 OFFCURVE",
"202 340 OFFCURVE",
"229 353 CURVE SMOOTH",
"239 358 OFFCURVE",
"249 345 OFFCURVE",
"260 349 CURVE SMOOTH",
"312 370 OFFCURVE",
"392 374 OFFCURVE",
"433 362 CURVE SMOOTH",
"493 345 OFFCURVE",
"497 302 OFFCURVE",
"453 230 CURVE"
);
}
);
width = 679;
}
);
leftKerningGroup = knDA;
leftMetricsKey = knDA;
rightKerningGroup = knDDA;
unicode = 0CA1;
},
{
color = 4;
glyphname = knDDHA;
lastChange = "2015-12-11 09:12:58 +0000";
layers = (
{
components = (
{
name = knDDA;
}
);
layerId = "59118767-2CA9-48AA-9373-694D24C960D8";
name = Regular;
paths = (
{
closed = 1;
nodes = (
"212 -158 OFFCURVE",
"222 -192 OFFCURVE",
"260 -192 CURVE SMOOTH",
"298 -192 OFFCURVE",
"317 -158 OFFCURVE",
"317 -125 CURVE SMOOTH",
"317 -98 OFFCURVE",
"304 -9 OFFCURVE",
"283 -9 CURVE SMOOTH",
"262 -9 OFFCURVE",
"212 -95 OFFCURVE",
"212 -139 CURVE SMOOTH"
);
}
);
width = 680;
}
);
leftKerningGroup = knDA;
leftMetricsKey = knDA;
rightKerningGroup = knDDA;
rightMetricsKey = knDDA;
unicode = 0CA2;
},
{
color = 4;
glyphname = knNNA;
lastChange = "2015-12-12 15:00:19 +0000";
layers = (
{
layerId = "59118767-2CA9-48AA-9373-694D24C960D8";
name = Regular;
paths = (
{
closed = 1;
nodes = (
"405 487 OFFCURVE",
"330 523 OFFCURVE",
"265 523 CURVE SMOOTH",
"157 523 OFFCURVE",
"49 447 OFFCURVE",
"49 316 CURVE SMOOTH",
"49 242 OFFCURVE",
"93 176 OFFCURVE",
"195 176 CURVE SMOOTH",
"241 176 OFFCURVE",
"288 207 OFFCURVE",
"305 249 CURVE SMOOTH",
"312 266 OFFCURVE",
"311 281 OFFCURVE",
"292 289 CURVE SMOOTH",
"268 299 OFFCURVE",
"228 294 OFFCURVE",
"190 280 CURVE",
"155 298 OFFCURVE",
"137 333 OFFCURVE",
"137 367 CURVE SMOOTH",
"137 410 OFFCURVE",
"165 450 OFFCURVE",
"217 450 CURVE SMOOTH",
"268 450 OFFCURVE",
"296 417 OFFCURVE",
"347 353 CURVE SMOOTH",
"370 324 OFFCURVE",
"370 324 OFFCURVE",
"403 343 CURVE SMOOTH",
"433 361 OFFCURVE",
"465 373 OFFCURVE",
"495 373 CURVE SMOOTH",
"577 373 OFFCURVE",
"649 312 OFFCURVE",
"649 211 CURVE SMOOTH",
"649 176 OFFCURVE",
"639 140 OFFCURVE",
"618 108 CURVE",
"636 178 OFFCURVE",
"603 263 OFFCURVE",
"523 263 CURVE SMOOTH",
"430 263 OFFCURVE",
"365 167 OFFCURVE",
"365 87 CURVE SMOOTH",
"365 19 OFFCURVE",
"419 -14 OFFCURVE",
"483 -14 CURVE SMOOTH",
"629 -14 OFFCURVE",
"729 133 OFFCURVE",
"729 280 CURVE SMOOTH",
"729 400 OFFCURVE",
"660 463 OFFCURVE",
"570 463 CURVE SMOOTH",
"525 463 OFFCURVE",
"475 448 OFFCURVE",
"425 415 CURVE",
"449 393 LINE"
);
},
{
closed = 1;
nodes = (
"523 170 OFFCURVE",
"568 140 OFFCURVE",
"568 82 CURVE SMOOTH",
"568 78 LINE",
"555 74 OFFCURVE",
"539 72 OFFCURVE",
"522 72 CURVE SMOOTH",
"462 72 OFFCURVE",
"437 105 OFFCURVE",
"437 131 CURVE SMOOTH",
"437 152 OFFCURVE",
"453 170 OFFCURVE",
"484 170 CURVE SMOOTH"
);
},
{
closed = 1;
nodes = (
"114 225 LINE",
"72 193 OFFCURVE",
"50 147 OFFCURVE",
"50 104 CURVE SMOOTH",
"50 37 OFFCURVE",
"92 -12 OFFCURVE",
"161 -13 CURVE SMOOTH",
"186 -13 OFFCURVE",
"211 -3 OFFCURVE",
"233 19 CURVE SMOOTH",
"256 44 OFFCURVE",
"267 71 OFFCURVE",
"261 83 CURVE SMOOTH",
"257 90 OFFCURVE",
"249 88 OFFCURVE",
"234 88 CURVE SMOOTH",
"174 87 OFFCURVE",
"126 107 OFFCURVE",
"126 155 CURVE SMOOTH",
"126 170 OFFCURVE",
"131 179 OFFCURVE",
"140 186 CURVE"
);
}
);
width = 766;
}
);
leftKerningGroup = knTTA;
leftMetricsKey = knTTA;
rightKerningGroup = knVA;
rightMetricsKey = knVA;
unicode = 0CA3;
},
{
color = 4;
glyphname = knDA;
lastChange = "2015-12-12 15:24:05 +0000";
layers = (
{
components = (
{
name = "CC_headstroke-kannada";
transform = "{1, 0, 0, 1, 53, 7}";
}
);
layerId = "59118767-2CA9-48AA-9373-694D24C960D8";
name = Regular;
paths = (
{
closed = 1;
nodes = (
"219 379 LINE",
"121 331 OFFCURVE",
"22 163 OFFCURVE",
"22 34 CURVE SMOOTH",
"22 -19 OFFCURVE",
"47 -50 OFFCURVE",
"100 -50 CURVE SMOOTH",
"161 -50 OFFCURVE",
"263 3 OFFCURVE",
"335 122 CURVE SMOOTH",
"339 129 OFFCURVE",
"339 152 OFFCURVE",
"339 157 CURVE SMOOTH",
"339 166 OFFCURVE",
"331 173 OFFCURVE",
"322 173 CURVE SMOOTH",
"311 173 OFFCURVE",
"300 165 OFFCURVE",
"291 152 CURVE SMOOTH",
"255 99 OFFCURVE",
"199 54 OFFCURVE",
"165 54 CURVE SMOOTH",
"134 54 OFFCURVE",
"123 76 OFFCURVE",
"123 110 CURVE SMOOTH",
"123 195 OFFCURVE",
"201 341 OFFCURVE",
"285 379 CURVE"
);
},
{
closed = 1;
nodes = (
"608 109 OFFCURVE",
"608 240 CURVE SMOOTH",
"608 390 OFFCURVE",
"509 462 OFFCURVE",
"370 462 CURVE SMOOTH",
"274 462 OFFCURVE",
"187 444 OFFCURVE",
"114 411 CURVE SMOOTH",
"75 393 OFFCURVE",
"53 389 OFFCURVE",
"53 353 CURVE SMOOTH",
"53 329 OFFCURVE",
"63 310 OFFCURVE",
"74 310 CURVE SMOOTH",
"101 310 OFFCURVE",
"155 359 OFFCURVE",
"324 359 CURVE SMOOTH",
"439 359 OFFCURVE",
"533 287 OFFCURVE",
"533 184 CURVE SMOOTH",
"533 129 OFFCURVE",
"488 83 OFFCURVE",
"434 83 CURVE SMOOTH",
"396 83 OFFCURVE",
"356 105 OFFCURVE",
"339 157 CURVE",
"269 73 LINE",
"284 13 OFFCURVE",
"330 -13 OFFCURVE",
"382 -13 CURVE SMOOTH",
"502 -13 OFFCURVE"
);
}
);
width = 645;
},
{
associatedMasterId = "59118767-2CA9-48AA-9373-694D24C960D8";
components = (
{
name = "CC-heartbum-Kannada";
},
{
name = "CC_headstroke-kannada";
transform = "{1, 0, 0, 1, 89, 0}";
}
);
layerId = "A60F052F-0741-4DC8-90EC-F705B8972834";
name = "Regular Sep 14 15, 08:22";
width = 652;
}
);
leftKerningGroup = knDA;
rightKerningGroup = knDA;
unicode = 0CA6;
},
{
color = 4;
glyphname = knDHA;
lastChange = "2015-12-08 10:28:30 +0000";
layers = (
{
components = (
{
name = knDA;
}
);
layerId = "59118767-2CA9-48AA-9373-694D24C960D8";
name = Regular;
paths = (
{
closed = 1;
nodes = (
"215 -158 OFFCURVE",
"225 -192 OFFCURVE",
"263 -192 CURVE SMOOTH",
"301 -192 OFFCURVE",
"320 -158 OFFCURVE",
"320 -125 CURVE SMOOTH",
"320 -98 OFFCURVE",
"307 -9 OFFCURVE",
"286 -9 CURVE SMOOTH",
"265 -9 OFFCURVE",
"215 -95 OFFCURVE",
"215 -139 CURVE SMOOTH"
);
}
);
width = 645;
}
);
leftKerningGroup = knDA;
leftMetricsKey = knDA;
rightKerningGroup = knDA;
unicode = 0CA7;
},
